<svg xmlns="http://www.w3.org/2000/svg" xmlns:xlink="http://www.w3.org/1999/xlink" width="400" zoomAndPan="magnify" viewBox="0 0 300 299.999988" height="400" preserveAspectRatio="xMidYMid meet" version="1.0"><defs><g/><clipPath id="ab2edd4bcf"><path d="M 97.675781 82 L 201 82 L 201 180.890625 L 97.675781 180.890625 Z M 97.675781 82 " clip-rule="nonzero"/></clipPath></defs><rect x="-30" width="360" fill="#ffffff" y="-29.999999" height="359.999986" fill-opacity="1"/><rect x="-30" width="360" fill="#ffffff" y="-29.999999" height="359.999986" fill-opacity="1"/><rect x="-30" width="360" fill="#000000" y="-29.999999" height="359.999986" fill-opacity="1"/><g clip-path="url(#ab2edd4bcf)"><path fill="#ffffff" d="M 198.875 109.085938 C 194.636719 92.640625 180.570312 82.046875 163.589844 82.039062 C 143.9375 82.023438 124.28125 82.03125 104.625 82.03125 L 112.328125 95.605469 C 129.425781 95.570312 146.511719 95.582031 163.609375 95.597656 C 169.25 95.597656 174.332031 97.253906 178.613281 101.011719 C 185.285156 106.855469 187.308594 114.4375 186.425781 122.953125 C 185.410156 132.808594 178.945312 141.085938 170.121094 143.203125 C 166.378906 144.105469 162.351562 143.753906 158.476562 144.140625 C 156.28125 144.367188 155.167969 143.453125 154.128906 141.621094 C 146.988281 129.046875 139.734375 116.53125 132.515625 104.003906 C 131.199219 101.714844 129.761719 101.691406 128.460938 103.9375 C 126.542969 107.253906 124.628906 110.578125 122.710938 113.894531 C 114.617188 127.933594 106.515625 141.960938 98.429688 156.003906 C 98.183594 156.4375 98.019531 156.910156 97.679688 157.671875 L 99.875 157.671875 C 115.070312 157.671875 130.269531 157.703125 145.46875 157.621094 C 146.574219 157.609375 147.339844 157.847656 147.964844 158.386719 C 148.363281 158.71875 148.691406 159.164062 149.019531 159.746094 C 152.988281 166.765625 157.050781 173.730469 161.042969 180.738281 L 176.765625 180.738281 C 174.890625 177.480469 173.09375 174.378906 171.308594 171.28125 C 168.769531 166.878906 166.242188 162.472656 163.734375 158.09375 C 164.039062 157.859375 164.132812 157.722656 164.242188 157.714844 C 164.695312 157.671875 165.164062 157.660156 165.628906 157.640625 C 172.578125 157.351562 178.875 155.175781 184.589844 151.238281 C 198.703125 141.550781 202.671875 123.847656 198.875 109.085938 Z M 121.070312 143.949219 C 124.210938 138.492188 127.246094 133.230469 130.453125 127.660156 C 132.257812 130.800781 134.007812 133.839844 135.765625 136.898438 C 137.109375 139.21875 138.449219 141.558594 139.824219 143.949219 Z M 121.070312 143.949219 " fill-opacity="1" fill-rule="nonzero"/></g><g fill="#ffffff" fill-opacity="1"><g transform="translate(72.636679, 210.282573)"><g><path d="M 3.5 0 L 5 -4 L 11.4375 -4 L 12.96875 0.25 L 16.21875 -0.203125 L 9.625 -16.984375 L 6.875 -16.984375 L 0.25 0 Z M 8.171875 -12.546875 L 10.4375 -6.625 L 5.953125 -6.625 Z M 8.171875 -12.546875 "/></g></g></g><g fill="#ffffff" fill-opacity="1"><g transform="translate(89.096148, 210.282573)"><g><path d="M 6.84375 0 L 9.59375 0 L 16.21875 -16.984375 L 12.96875 -16.984375 L 8.296875 -4.453125 L 3.5 -17.234375 L 0.25 -16.796875 Z M 6.84375 0 "/></g></g></g><g fill="#ffffff" fill-opacity="1"><g transform="translate(105.555617, 210.282573)"><g><path d="M 5.34375 -2.515625 L 5.34375 -7.296875 L 11.421875 -7.296875 L 10.890625 -9.875 L 5.34375 -9.875 L 5.34375 -14.4375 L 12.765625 -14.4375 L 12.265625 -16.984375 L 2.125 -16.984375 L 2.125 0 L 14.015625 0 L 13.484375 -2.515625 Z M 5.34375 -2.515625 "/></g></g></g><g fill="#ffffff" fill-opacity="1"><g transform="translate(120.066927, 210.282573)"><g><path d="M 5.34375 0 L 5.34375 -6.453125 L 8.390625 -6.453125 L 12 0 L 15.4375 0 L 11.265625 -7.296875 C 12.148438 -7.722656 12.851562 -8.320312 13.375 -9.09375 C 13.90625 -9.863281 14.171875 -10.753906 14.171875 -11.765625 C 14.171875 -13.460938 13.539062 -14.753906 12.28125 -15.640625 C 11.019531 -16.535156 9.410156 -16.984375 7.453125 -16.984375 L 2.125 -16.984375 L 2.125 0 Z M 7.34375 -14.296875 C 9.613281 -14.296875 10.75 -13.40625 10.75 -11.625 C 10.75 -10.75 10.441406 -10.109375 9.828125 -9.703125 C 9.222656 -9.296875 8.410156 -9.09375 7.390625 -9.09375 L 5.34375 -9.09375 L 5.34375 -14.296875 Z M 7.34375 -14.296875 "/></g></g></g><g fill="#ffffff" fill-opacity="1"><g transform="translate(135.752124, 210.282573)"><g><path d="M 14.9375 -16.984375 L 11.515625 -16.984375 L 7.390625 -9.890625 L 3.453125 -17.34375 L 0.25 -16.421875 L 5.796875 -6.625 L 5.796875 0 L 9.046875 0 L 9.046875 -6.5 Z M 14.9375 -16.984375 "/></g></g></g><g fill="#ffffff" fill-opacity="1"><g transform="translate(150.937794, 210.282573)"><g/></g></g><g fill="#ffffff" fill-opacity="1"><g transform="translate(156.557489, 210.282573)"><g><path d="M 8.5625 0 C 11.0625 -0.03125 12.988281 -0.800781 14.34375 -2.3125 C 15.707031 -3.820312 16.390625 -5.914062 16.390625 -8.59375 C 16.390625 -10.257812 16.101562 -11.71875 15.53125 -12.96875 C 14.957031 -14.226562 14.082031 -15.210938 12.90625 -15.921875 C 11.726562 -16.628906 10.28125 -16.984375 8.5625 -16.984375 L 2.125 -16.984375 L 2.125 0 Z M 8.6875 -14.234375 C 10.15625 -14.234375 11.25 -13.742188 11.96875 -12.765625 C 12.6875 -11.796875 13.046875 -10.40625 13.046875 -8.59375 C 13.046875 -6.5625 12.648438 -5.070312 11.859375 -4.125 C 11.066406 -3.1875 9.953125 -2.71875 8.515625 -2.71875 L 5.34375 -2.71875 L 5.34375 -14.234375 Z M 8.6875 -14.234375 "/></g></g></g><g fill="#ffffff" fill-opacity="1"><g transform="translate(173.816204, 210.282573)"><g><path d="M 3.5 0 L 5 -4 L 11.4375 -4 L 12.96875 0.25 L 16.21875 -0.203125 L 9.625 -16.984375 L 6.875 -16.984375 L 0.25 0 Z M 8.171875 -12.546875 L 10.4375 -6.625 L 5.953125 -6.625 Z M 8.171875 -12.546875 "/></g></g></g><g fill="#ffffff" fill-opacity="1"><g transform="translate(190.275673, 210.282573)"><g><path d="M 6.84375 0 L 9.59375 0 L 16.21875 -16.984375 L 12.96875 -16.984375 L 8.296875 -4.453125 L 3.5 -17.234375 L 0.25 -16.796875 Z M 6.84375 0 "/></g></g></g><g fill="#ffffff" fill-opacity="1"><g transform="translate(206.735142, 210.282573)"><g><path d="M 2.125 -16.984375 L 2.125 0 L 5.34375 0 L 5.34375 -16.984375 Z M 2.125 -16.984375 "/></g></g></g><g fill="#ffffff" fill-opacity="1"><g transform="translate(214.203099, 210.282573)"><g><path d="M 1.171875 -1.125 C 1.742188 -0.769531 2.546875 -0.4375 3.578125 -0.125 C 4.617188 0.175781 5.492188 0.328125 6.203125 0.328125 C 7.523438 0.328125 8.664062 0.128906 9.625 -0.265625 C 10.582031 -0.671875 11.304688 -1.222656 11.796875 -1.921875 C 12.296875 -2.617188 12.546875 -3.425781 12.546875 -4.34375 C 12.546875 -5.164062 12.347656 -5.878906 11.953125 -6.484375 C 11.566406 -7.085938 11.082031 -7.601562 10.5 -8.03125 C 9.914062 -8.457031 9.128906 -8.953125 8.140625 -9.515625 L 7.421875 -9.9375 L 6.625 -10.390625 C 5.769531 -10.890625 5.15625 -11.300781 4.78125 -11.625 C 4.40625 -11.957031 4.21875 -12.363281 4.21875 -12.84375 C 4.21875 -13.40625 4.453125 -13.832031 4.921875 -14.125 C 5.398438 -14.414062 6.015625 -14.5625 6.765625 -14.5625 C 7.421875 -14.5625 8.023438 -14.46875 8.578125 -14.28125 C 9.140625 -14.101562 9.757812 -13.847656 10.4375 -13.515625 L 11.515625 -16.109375 C 9.753906 -16.960938 8.15625 -17.390625 6.71875 -17.390625 C 5.5 -17.390625 4.453125 -17.191406 3.578125 -16.796875 C 2.710938 -16.410156 2.046875 -15.867188 1.578125 -15.171875 C 1.109375 -14.484375 0.875 -13.707031 0.875 -12.84375 C 0.875 -12.03125 1.109375 -11.289062 1.578125 -10.625 C 2.054688 -9.96875 2.625 -9.394531 3.28125 -8.90625 C 3.9375 -8.425781 4.828125 -7.859375 5.953125 -7.203125 L 6.703125 -6.75 C 7.546875 -6.28125 8.171875 -5.875 8.578125 -5.53125 C 8.984375 -5.1875 9.1875 -4.804688 9.1875 -4.390625 C 9.1875 -3.796875 8.925781 -3.335938 8.40625 -3.015625 C 7.894531 -2.703125 7.140625 -2.546875 6.140625 -2.546875 C 5.492188 -2.546875 4.78125 -2.664062 4 -2.90625 C 3.21875 -3.144531 2.519531 -3.425781 1.90625 -3.75 Z M 1.171875 -1.125 "/></g></g></g></svg>