<svg xmlns="http://www.w3.org/2000/svg" xmlns:xlink="http://www.w3.org/1999/xlink" width="400" zoomAndPan="magnify" viewBox="0 0 300 299.999988" height="400" preserveAspectRatio="xMidYMid meet" version="1.0"><defs><g/></defs><rect x="-30" width="360" fill="#ffffff" y="-29.999999" height="359.999986" fill-opacity="1"/><rect x="-30" width="360" fill="#ffffff" y="-29.999999" height="359.999986" fill-opacity="1"/><rect x="-30" width="360" fill="#59738d" y="-29.999999" height="359.999986" fill-opacity="1"/><g fill="#faf6f5" fill-opacity="1"><g transform="translate(94.429773, 144.681075)"><g><path d="M 34.121094 -27.824219 C 38.90625 -29.019531 43.449219 -32.765625 43.449219 -40.101562 C 43.449219 -56.203125 24.875 -55.804688 24.875 -55.804688 L 6.296875 -55.804688 L 6.296875 0 L 24.875 0 C 28.621094 0 44.246094 -0.71875 44.246094 -16.023438 C 44.246094 -16.023438 44.644531 -25.671875 34.121094 -27.824219 Z M 15.546875 -32.527344 L 15.546875 -46.558594 L 24.875 -46.558594 C 24.875 -46.558594 34.121094 -46.957031 34.121094 -39.460938 C 34.121094 -32.527344 24.875 -32.527344 24.875 -32.527344 Z M 24.875 -9.246094 L 15.546875 -9.246094 L 15.546875 -23.199219 L 24.875 -23.199219 C 24.875 -23.199219 34.917969 -23.757812 34.917969 -16.261719 C 34.917969 -10.203125 28.78125 -9.246094 24.875 -9.246094 Z M 24.875 -9.246094 "/></g></g></g><g fill="#faf6f5" fill-opacity="1"><g transform="translate(139.309419, 144.681075)"><g><path d="M 25.273438 -15.148438 C 36.671875 -15.148438 46 -24.476562 46 -35.875 C 46 -47.273438 36.671875 -56.601562 25.273438 -56.601562 C 13.871094 -56.601562 4.542969 -47.273438 4.542969 -35.875 C 4.542969 -24.476562 13.871094 -15.148438 25.273438 -15.148438 Z M 25.273438 -47.355469 C 31.648438 -47.355469 36.75 -42.253906 36.75 -35.875 C 36.75 -29.496094 31.648438 -24.394531 25.273438 -24.394531 C 18.894531 -24.394531 13.792969 -29.496094 13.792969 -35.875 C 13.792969 -42.253906 18.894531 -47.355469 25.273438 -47.355469 Z M 43.449219 0 L 43.449219 -9.246094 L 6.617188 -9.246094 L 6.617188 0 Z M 43.449219 0 "/></g></g></g><g fill="#faf6f5" fill-opacity="1"><g transform="translate(93.117273, 208.281069)"><g><path d="M 35.554688 0 L 46.476562 0 L 31.332031 -24.234375 C 36.75 -25.75 43.609375 -29.65625 43.609375 -39.542969 C 43.609375 -55.804688 24.953125 -55.804688 24.953125 -55.804688 L 6.378906 -55.804688 L 6.378906 -46.476562 L 15.226562 -32.527344 L 6.378906 -32.527344 L 6.378906 0 L 15.707031 0 L 15.707031 -23.277344 L 21.046875 -23.277344 Z M 26.148438 -32.605469 L 17.460938 -46.476562 L 24.953125 -46.476562 C 24.953125 -46.476562 34.28125 -46.476562 34.28125 -39.542969 C 34.28125 -34.042969 28.621094 -32.84375 26.148438 -32.605469 Z M 26.148438 -32.605469 "/></g></g></g><g fill="#faf6f5" fill-opacity="1"><g transform="translate(138.714362, 208.281069)"><g><path d="M 15.625 -55.804688 L 6.296875 -55.804688 L 6.296875 0 L 15.625 0 C 29.496094 0 48.230469 -4.066406 48.230469 -27.902344 C 48.230469 -52.695312 29.179688 -55.804688 15.625 -55.804688 Z M 15.625 -9.089844 L 15.625 -46.71875 C 15.625 -46.71875 38.824219 -50.226562 38.824219 -27.902344 C 38.824219 -5.898438 15.625 -9.089844 15.625 -9.089844 Z M 15.625 -9.089844 "/></g></g></g><g fill="#faf6f5" fill-opacity="1"><g transform="translate(197.901815, 136.47078)"><g><path d="M 2.90625 3.90625 L 10.015625 4.984375 L 10.015625 7.171875 L 0 7.171875 L 0 5.6875 L 7.1875 5.6875 L 0 4.59375 L 0 3.109375 L 7.078125 1.9375 L 0 1.9375 L 0 0.5625 L 10.015625 0.5625 L 10.015625 2.75 Z M 2.90625 3.90625 "/></g></g></g><g fill="#faf6f5" fill-opacity="1"><g transform="translate(197.901815, 144.740063)"><g><path d="M 2.296875 2.015625 C 1.941406 2.015625 1.6875 2.085938 1.53125 2.234375 C 1.382812 2.390625 1.3125 2.585938 1.3125 2.828125 C 1.3125 3.078125 1.382812 3.273438 1.53125 3.421875 C 1.6875 3.578125 1.941406 3.65625 2.296875 3.65625 L 7.71875 3.65625 C 8.082031 3.65625 8.335938 3.578125 8.484375 3.421875 C 8.628906 3.273438 8.703125 3.078125 8.703125 2.828125 C 8.703125 2.585938 8.628906 2.390625 8.484375 2.234375 C 8.335938 2.085938 8.082031 2.015625 7.71875 2.015625 Z M 7.609375 0.4375 C 8.421875 0.4375 9.046875 0.640625 9.484375 1.046875 C 9.921875 1.460938 10.140625 2.054688 10.140625 2.828125 C 10.140625 3.609375 9.921875 4.203125 9.484375 4.609375 C 9.046875 5.015625 8.421875 5.21875 7.609375 5.21875 L 2.40625 5.21875 C 1.59375 5.21875 0.96875 5.015625 0.53125 4.609375 C 0.101562 4.203125 -0.109375 3.609375 -0.109375 2.828125 C -0.109375 2.054688 0.101562 1.460938 0.53125 1.046875 C 0.96875 0.640625 1.59375 0.4375 2.40625 0.4375 Z M 7.609375 0.4375 "/></g></g></g><g fill="#faf6f5" fill-opacity="1"><g transform="translate(197.901815, 150.934944)"><g><path d="M 10.015625 0.578125 L 10.015625 3.0625 C 10.015625 3.851562 9.804688 4.441406 9.390625 4.828125 C 8.972656 5.210938 8.359375 5.40625 7.546875 5.40625 L 2.46875 5.40625 C 1.664062 5.40625 1.050781 5.210938 0.625 4.828125 C 0.207031 4.441406 0 3.851562 0 3.0625 L 0 0.578125 Z M 8.59375 2.140625 L 1.4375 2.140625 L 1.4375 3.03125 C 1.4375 3.28125 1.503906 3.472656 1.640625 3.609375 C 1.785156 3.753906 2.039062 3.828125 2.40625 3.828125 L 7.609375 3.828125 C 7.972656 3.828125 8.226562 3.753906 8.375 3.609375 C 8.519531 3.472656 8.59375 3.28125 8.59375 3.03125 Z M 8.59375 2.140625 "/></g></g></g><g fill="#faf6f5" fill-opacity="1"><g transform="translate(197.901815, 157.301497)"><g><path d="M 5.796875 2.140625 L 5.796875 4.3125 L 4.359375 4.3125 L 4.359375 2.140625 L 1.4375 2.140625 L 1.4375 4.859375 L 0 4.859375 L 0 0.578125 L 10.015625 0.578125 L 10.015625 4.859375 L 8.59375 4.859375 L 8.59375 2.140625 Z M 5.796875 2.140625 "/></g></g></g><g fill="#faf6f5" fill-opacity="1"><g transform="translate(197.901815, 163.095798)"><g><path d="M 0 3.859375 C 0.0625 3.835938 0.117188 3.816406 0.171875 3.796875 C 0.234375 3.785156 0.304688 3.769531 0.390625 3.75 C 0.484375 3.738281 0.597656 3.726562 0.734375 3.71875 C 0.867188 3.71875 1.035156 3.71875 1.234375 3.71875 L 2.8125 3.71875 C 3.269531 3.71875 3.59375 3.632812 3.78125 3.46875 C 3.976562 3.3125 4.078125 3.050781 4.078125 2.6875 L 4.078125 2.140625 L 0 2.140625 L 0 0.578125 L 10.015625 0.578125 L 10.015625 2.953125 C 10.015625 3.765625 9.820312 4.351562 9.4375 4.71875 C 9.0625 5.09375 8.488281 5.28125 7.71875 5.28125 L 6.921875 5.28125 C 5.890625 5.28125 5.210938 4.9375 4.890625 4.25 C 4.734375 4.65625 4.46875 4.929688 4.09375 5.078125 C 3.726562 5.222656 3.285156 5.296875 2.765625 5.296875 L 1.21875 5.296875 C 0.96875 5.296875 0.75 5.304688 0.5625 5.328125 C 0.375 5.347656 0.1875 5.394531 0 5.46875 Z M 8.59375 2.140625 L 5.515625 2.140625 L 5.515625 2.765625 C 5.515625 3.054688 5.585938 3.285156 5.734375 3.453125 C 5.890625 3.617188 6.164062 3.703125 6.5625 3.703125 L 7.5625 3.703125 C 7.914062 3.703125 8.175781 3.640625 8.34375 3.515625 C 8.507812 3.390625 8.59375 3.1875 8.59375 2.90625 Z M 8.59375 2.140625 "/></g></g></g><g fill="#faf6f5" fill-opacity="1"><g transform="translate(197.901815, 169.37651)"><g><path d="M 7.25 1.96875 L 0 1.96875 L 0 0.5625 L 10.015625 0.5625 L 10.015625 2.53125 L 4.015625 4.15625 L 10.015625 4.15625 L 10.015625 5.546875 L 0 5.546875 L 0 3.9375 Z M 7.25 1.96875 "/></g></g></g><g fill="#faf6f5" fill-opacity="1"><g transform="translate(197.901815, 176.014883)"><g/></g></g><g fill="#faf6f5" fill-opacity="1"><g transform="translate(197.901815, 178.761955)"><g><path d="M 0 2.140625 L 0 0.578125 L 10.015625 0.578125 L 10.015625 2.140625 L 5.71875 2.140625 L 5.71875 3.9375 L 10.015625 3.9375 L 10.015625 5.53125 L 0 5.53125 L 0 3.9375 L 4.296875 3.9375 L 4.296875 2.140625 Z M 0 2.140625 "/></g></g></g><g fill="#faf6f5" fill-opacity="1"><g transform="translate(197.901815, 185.400329)"><g><path d="M 2.296875 2.015625 C 1.941406 2.015625 1.6875 2.085938 1.53125 2.234375 C 1.382812 2.390625 1.3125 2.585938 1.3125 2.828125 C 1.3125 3.078125 1.382812 3.273438 1.53125 3.421875 C 1.6875 3.578125 1.941406 3.65625 2.296875 3.65625 L 7.71875 3.65625 C 8.082031 3.65625 8.335938 3.578125 8.484375 3.421875 C 8.628906 3.273438 8.703125 3.078125 8.703125 2.828125 C 8.703125 2.585938 8.628906 2.390625 8.484375 2.234375 C 8.335938 2.085938 8.082031 2.015625 7.71875 2.015625 Z M 7.609375 0.4375 C 8.421875 0.4375 9.046875 0.640625 9.484375 1.046875 C 9.921875 1.460938 10.140625 2.054688 10.140625 2.828125 C 10.140625 3.609375 9.921875 4.203125 9.484375 4.609375 C 9.046875 5.015625 8.421875 5.21875 7.609375 5.21875 L 2.40625 5.21875 C 1.59375 5.21875 0.96875 5.015625 0.53125 4.609375 C 0.101562 4.203125 -0.109375 3.609375 -0.109375 2.828125 C -0.109375 2.054688 0.101562 1.460938 0.53125 1.046875 C 0.96875 0.640625 1.59375 0.4375 2.40625 0.4375 Z M 7.609375 0.4375 "/></g></g></g><g fill="#faf6f5" fill-opacity="1"><g transform="translate(197.901815, 191.595212)"><g><path d="M 10.015625 2.078125 L 2.296875 2.078125 C 1.929688 2.078125 1.675781 2.148438 1.53125 2.296875 C 1.382812 2.441406 1.3125 2.640625 1.3125 2.890625 C 1.3125 3.140625 1.382812 3.335938 1.53125 3.484375 C 1.675781 3.628906 1.929688 3.703125 2.296875 3.703125 L 10.015625 3.703125 L 10.015625 5.203125 L 2.390625 5.203125 C 1.578125 5.203125 0.953125 5 0.515625 4.59375 C 0.0859375 4.195312 -0.125 3.613281 -0.125 2.84375 C -0.125 2.070312 0.0859375 1.488281 0.515625 1.09375 C 0.953125 0.695312 1.578125 0.5 2.390625 0.5 L 10.015625 0.5 Z M 10.015625 2.078125 "/></g></g></g><g fill="#faf6f5" fill-opacity="1"><g transform="translate(197.901815, 197.818706)"><g><path d="M 7.609375 0.375 C 8.421875 0.375 9.046875 0.566406 9.484375 0.953125 C 9.921875 1.335938 10.140625 1.914062 10.140625 2.6875 C 10.140625 3.457031 9.921875 4.035156 9.484375 4.421875 C 9.046875 4.816406 8.421875 5.015625 7.609375 5.015625 L 7.234375 5.015625 L 7.234375 3.515625 L 7.71875 3.515625 C 8.082031 3.515625 8.335938 3.445312 8.484375 3.3125 C 8.628906 3.175781 8.703125 2.984375 8.703125 2.734375 C 8.703125 2.484375 8.628906 2.289062 8.484375 2.15625 C 8.335938 2.019531 8.082031 1.953125 7.71875 1.953125 C 7.375 1.953125 7.066406 2.023438 6.796875 2.171875 C 6.535156 2.328125 6.285156 2.519531 6.046875 2.75 C 5.816406 2.976562 5.585938 3.222656 5.359375 3.484375 C 5.128906 3.742188 4.875 3.988281 4.59375 4.21875 C 4.3125 4.445312 3.992188 4.640625 3.640625 4.796875 C 3.296875 4.953125 2.882812 5.03125 2.40625 5.03125 C 1.59375 5.03125 0.96875 4.828125 0.53125 4.421875 C 0.101562 4.023438 -0.109375 3.441406 -0.109375 2.671875 C -0.109375 1.898438 0.101562 1.316406 0.53125 0.921875 C 0.96875 0.523438 1.59375 0.328125 2.40625 0.328125 L 3.09375 0.328125 L 3.09375 1.8125 L 2.296875 1.8125 C 1.941406 1.8125 1.691406 1.882812 1.546875 2.03125 C 1.398438 2.1875 1.328125 2.390625 1.328125 2.640625 C 1.328125 2.878906 1.398438 3.070312 1.546875 3.21875 C 1.691406 3.375 1.941406 3.453125 2.296875 3.453125 C 2.640625 3.453125 2.941406 3.375 3.203125 3.21875 C 3.472656 3.0625 3.722656 2.867188 3.953125 2.640625 C 4.191406 2.410156 4.425781 2.164062 4.65625 1.90625 C 4.894531 1.644531 5.148438 1.398438 5.421875 1.171875 C 5.703125 0.941406 6.019531 0.75 6.375 0.59375 C 6.726562 0.445312 7.140625 0.375 7.609375 0.375 Z M 7.609375 0.375 "/></g></g></g><g fill="#faf6f5" fill-opacity="1"><g transform="translate(197.901815, 203.698849)"><g><path d="M 5.796875 2.140625 L 5.796875 4.3125 L 4.359375 4.3125 L 4.359375 2.140625 L 1.4375 2.140625 L 1.4375 4.859375 L 0 4.859375 L 0 0.578125 L 10.015625 0.578125 L 10.015625 4.859375 L 8.59375 4.859375 L 8.59375 2.140625 Z M 5.796875 2.140625 "/></g></g></g></svg>