<svg xmlns="http://www.w3.org/2000/svg" xmlns:xlink="http://www.w3.org/1999/xlink" width="400" zoomAndPan="magnify" viewBox="0 0 300 299.999988" height="400" preserveAspectRatio="xMidYMid meet" version="1.0"><defs><g/></defs><rect x="-30" width="360" fill="#ffffff" y="-29.999999" height="359.999986" fill-opacity="1"/><rect x="-30" width="360" fill="#ffffff" y="-29.999999" height="359.999986" fill-opacity="1"/><rect x="-30" width="360" fill="#f1efe7" y="-29.999999" height="359.999986" fill-opacity="1"/><g fill="#000000" fill-opacity="1"><g transform="translate(70.417639, 158.994839)"><g><path d="M 13.640625 -15.6875 C 12.273438 -15.6875 11.097656 -15.179688 10.109375 -14.171875 C 9.128906 -13.160156 8.640625 -11.945312 8.640625 -10.53125 C 8.640625 -9.082031 9.128906 -7.851562 10.109375 -6.84375 C 11.097656 -5.832031 12.273438 -5.328125 13.640625 -5.328125 C 14.296875 -5.328125 14.914062 -5.40625 15.5 -5.5625 C 16.09375 -5.726562 16.523438 -5.894531 16.796875 -6.0625 L 17.171875 -6.3125 L 19.625 -1.265625 C 19.4375 -1.128906 19.171875 -0.957031 18.828125 -0.75 C 18.484375 -0.550781 17.703125 -0.273438 16.484375 0.078125 C 15.273438 0.429688 13.972656 0.609375 12.578125 0.609375 C 9.492188 0.609375 6.78125 -0.472656 4.4375 -2.640625 C 2.101562 -4.816406 0.9375 -7.421875 0.9375 -10.453125 C 0.9375 -13.503906 2.101562 -16.128906 4.4375 -18.328125 C 6.78125 -20.523438 9.492188 -21.625 12.578125 -21.625 C 13.972656 -21.625 15.253906 -21.457031 16.421875 -21.125 C 17.597656 -20.800781 18.429688 -20.476562 18.921875 -20.15625 L 19.625 -19.671875 L 17.171875 -14.703125 C 16.265625 -15.359375 15.085938 -15.6875 13.640625 -15.6875 Z M 13.640625 -15.6875 "/></g></g></g><g fill="#000000" fill-opacity="1"><g transform="translate(86.677399, 158.994839)"><g><path d="M 4.4375 -2.5 C 2.101562 -4.570312 0.9375 -7.234375 0.9375 -10.484375 C 0.9375 -13.734375 2.148438 -16.398438 4.578125 -18.484375 C 7.015625 -20.578125 10.023438 -21.625 13.609375 -21.625 C 17.128906 -21.625 20.097656 -20.570312 22.515625 -18.46875 C 24.929688 -16.375 26.140625 -13.710938 26.140625 -10.484375 C 26.140625 -7.265625 24.957031 -4.609375 22.59375 -2.515625 C 20.226562 -0.429688 17.234375 0.609375 13.609375 0.609375 C 9.835938 0.609375 6.78125 -0.425781 4.4375 -2.5 Z M 10.046875 -14.046875 C 9.109375 -13.117188 8.640625 -11.929688 8.640625 -10.484375 C 8.640625 -9.035156 9.085938 -7.851562 9.984375 -6.9375 C 10.890625 -6.03125 12.082031 -5.578125 13.5625 -5.578125 C 14.976562 -5.578125 16.144531 -6.039062 17.0625 -6.96875 C 17.976562 -7.894531 18.4375 -9.066406 18.4375 -10.484375 C 18.4375 -11.929688 17.960938 -13.117188 17.015625 -14.046875 C 16.078125 -14.972656 14.925781 -15.4375 13.5625 -15.4375 C 12.164062 -15.4375 10.992188 -14.972656 10.046875 -14.046875 Z M 10.046875 -14.046875 "/></g></g></g><g fill="#000000" fill-opacity="1"><g transform="translate(109.900256, 158.994839)"><g><path d="M 13.640625 -15.6875 C 12.273438 -15.6875 11.097656 -15.179688 10.109375 -14.171875 C 9.128906 -13.160156 8.640625 -11.945312 8.640625 -10.53125 C 8.640625 -9.082031 9.128906 -7.851562 10.109375 -6.84375 C 11.097656 -5.832031 12.273438 -5.328125 13.640625 -5.328125 C 14.296875 -5.328125 14.914062 -5.40625 15.5 -5.5625 C 16.09375 -5.726562 16.523438 -5.894531 16.796875 -6.0625 L 17.171875 -6.3125 L 19.625 -1.265625 C 19.4375 -1.128906 19.171875 -0.957031 18.828125 -0.75 C 18.484375 -0.550781 17.703125 -0.273438 16.484375 0.078125 C 15.273438 0.429688 13.972656 0.609375 12.578125 0.609375 C 9.492188 0.609375 6.78125 -0.472656 4.4375 -2.640625 C 2.101562 -4.816406 0.9375 -7.421875 0.9375 -10.453125 C 0.9375 -13.503906 2.101562 -16.128906 4.4375 -18.328125 C 6.78125 -20.523438 9.492188 -21.625 12.578125 -21.625 C 13.972656 -21.625 15.253906 -21.457031 16.421875 -21.125 C 17.597656 -20.800781 18.429688 -20.476562 18.921875 -20.15625 L 19.625 -19.671875 L 17.171875 -14.703125 C 16.265625 -15.359375 15.085938 -15.6875 13.640625 -15.6875 Z M 13.640625 -15.6875 "/></g></g></g><g fill="#000000" fill-opacity="1"><g transform="translate(126.160016, 158.994839)"><g><path d="M 4.4375 -2.5 C 2.101562 -4.570312 0.9375 -7.234375 0.9375 -10.484375 C 0.9375 -13.734375 2.148438 -16.398438 4.578125 -18.484375 C 7.015625 -20.578125 10.023438 -21.625 13.609375 -21.625 C 17.128906 -21.625 20.097656 -20.570312 22.515625 -18.46875 C 24.929688 -16.375 26.140625 -13.710938 26.140625 -10.484375 C 26.140625 -7.265625 24.957031 -4.609375 22.59375 -2.515625 C 20.226562 -0.429688 17.234375 0.609375 13.609375 0.609375 C 9.835938 0.609375 6.78125 -0.425781 4.4375 -2.5 Z M 10.046875 -14.046875 C 9.109375 -13.117188 8.640625 -11.929688 8.640625 -10.484375 C 8.640625 -9.035156 9.085938 -7.851562 9.984375 -6.9375 C 10.890625 -6.03125 12.082031 -5.578125 13.5625 -5.578125 C 14.976562 -5.578125 16.144531 -6.039062 17.0625 -6.96875 C 17.976562 -7.894531 18.4375 -9.066406 18.4375 -10.484375 C 18.4375 -11.929688 17.960938 -13.117188 17.015625 -14.046875 C 16.078125 -14.972656 14.925781 -15.4375 13.5625 -15.4375 C 12.164062 -15.4375 10.992188 -14.972656 10.046875 -14.046875 Z M 10.046875 -14.046875 "/></g></g></g><g fill="#000000" fill-opacity="1"><g transform="translate(149.382873, 158.994839)"><g><path d="M 2.453125 0 L 2.453125 -21.015625 L 9.703125 -21.015625 L 9.703125 -18.796875 L 9.796875 -18.796875 C 11.679688 -20.679688 13.6875 -21.625 15.8125 -21.625 C 16.851562 -21.625 17.882812 -21.488281 18.90625 -21.21875 C 19.925781 -20.945312 20.90625 -20.523438 21.84375 -19.953125 C 22.789062 -19.378906 23.554688 -18.566406 24.140625 -17.515625 C 24.734375 -16.460938 25.03125 -15.238281 25.03125 -13.84375 L 25.03125 0 L 17.78125 0 L 17.78125 -11.875 C 17.78125 -12.96875 17.429688 -13.925781 16.734375 -14.75 C 16.035156 -15.570312 15.128906 -15.984375 14.015625 -15.984375 C 12.921875 -15.984375 11.925781 -15.554688 11.03125 -14.703125 C 10.144531 -13.859375 9.703125 -12.914062 9.703125 -11.875 L 9.703125 0 Z M 2.453125 0 "/></g></g></g><g fill="#000000" fill-opacity="1"><g transform="translate(172.605735, 158.994839)"><g><path d="M 9.296875 -21.015625 L 9.296875 -11.015625 C 9.296875 -8.941406 9.609375 -7.46875 10.234375 -6.59375 C 10.867188 -5.71875 11.9375 -5.28125 13.4375 -5.28125 C 14.9375 -5.28125 16 -5.71875 16.625 -6.59375 C 17.257812 -7.46875 17.578125 -8.941406 17.578125 -11.015625 L 17.578125 -21.015625 L 24.828125 -21.015625 L 24.828125 -9.265625 C 24.828125 -5.765625 23.914062 -3.242188 22.09375 -1.703125 C 20.28125 -0.160156 17.394531 0.609375 13.4375 0.609375 C 9.476562 0.609375 6.585938 -0.160156 4.765625 -1.703125 C 2.953125 -3.242188 2.046875 -5.765625 2.046875 -9.265625 L 2.046875 -21.015625 Z M 9.296875 -21.015625 "/></g></g></g><g fill="#000000" fill-opacity="1"><g transform="translate(195.623793, 158.994839)"><g><path d="M 3.6875 -21.015625 L 3.6875 -28.84375 L 10.9375 -28.84375 L 10.9375 -21.015625 L 15.359375 -21.015625 L 15.359375 -15.484375 L 10.9375 -15.484375 L 10.9375 -8.8125 C 10.9375 -6.875 11.484375 -5.90625 12.578125 -5.90625 C 12.847656 -5.90625 13.132812 -5.957031 13.4375 -6.0625 C 13.738281 -6.175781 13.972656 -6.285156 14.140625 -6.390625 L 14.375 -6.5625 L 16.1875 -0.703125 C 14.625 0.171875 12.847656 0.609375 10.859375 0.609375 C 9.492188 0.609375 8.316406 0.375 7.328125 -0.09375 C 6.347656 -0.570312 5.601562 -1.210938 5.09375 -2.015625 C 4.59375 -2.828125 4.234375 -3.675781 4.015625 -4.5625 C 3.796875 -5.457031 3.6875 -6.410156 3.6875 -7.421875 L 3.6875 -15.484375 L 0.65625 -15.484375 L 0.65625 -21.015625 Z M 3.6875 -21.015625 "/></g></g></g><g fill="#000000" fill-opacity="1"><g transform="translate(207.951441, 158.994839)"><g/></g></g><g fill="#000000" fill-opacity="1"><g transform="translate(215.28205, 158.994839)"><g><path d="M 7.125 -8.765625 C 8.4375 -8.765625 9.550781 -8.304688 10.46875 -7.390625 C 11.382812 -6.472656 11.84375 -5.363281 11.84375 -4.0625 C 11.84375 -2.769531 11.382812 -1.664062 10.46875 -0.75 C 9.550781 0.15625 8.4375 0.609375 7.125 0.609375 C 5.84375 0.609375 4.742188 0.15625 3.828125 -0.75 C 2.910156 -1.664062 2.453125 -2.769531 2.453125 -4.0625 C 2.453125 -5.363281 2.910156 -6.472656 3.828125 -7.390625 C 4.742188 -8.304688 5.84375 -8.765625 7.125 -8.765625 Z M 7.125 -8.765625 "/></g></g></g><g fill="#000000" fill-opacity="1"><g transform="translate(109.192884, 170.095517)"><g><path d="M 2.46875 -4.421875 C 2.90625 -4.421875 3.265625 -4.351562 3.546875 -4.21875 C 3.835938 -4.082031 3.984375 -3.90625 3.984375 -3.6875 C 3.984375 -3.59375 3.953125 -3.507812 3.890625 -3.4375 C 3.828125 -3.363281 3.75 -3.328125 3.65625 -3.328125 C 3.59375 -3.328125 3.539062 -3.335938 3.5 -3.359375 C 3.457031 -3.378906 3.398438 -3.414062 3.328125 -3.46875 C 3.296875 -3.5 3.242188 -3.535156 3.171875 -3.578125 C 3.097656 -3.609375 3 -3.632812 2.875 -3.65625 C 2.757812 -3.6875 2.65625 -3.703125 2.5625 -3.703125 C 2.269531 -3.703125 2.015625 -3.632812 1.796875 -3.5 C 1.578125 -3.363281 1.40625 -3.175781 1.28125 -2.9375 C 1.164062 -2.707031 1.109375 -2.453125 1.109375 -2.171875 C 1.109375 -1.878906 1.164062 -1.617188 1.28125 -1.390625 C 1.394531 -1.160156 1.5625 -0.976562 1.78125 -0.84375 C 2 -0.707031 2.242188 -0.640625 2.515625 -0.640625 C 2.796875 -0.640625 3.023438 -0.6875 3.203125 -0.78125 C 3.242188 -0.800781 3.296875 -0.832031 3.359375 -0.875 C 3.421875 -0.925781 3.472656 -0.960938 3.515625 -0.984375 C 3.554688 -1.003906 3.601562 -1.015625 3.65625 -1.015625 C 3.769531 -1.015625 3.859375 -0.976562 3.921875 -0.90625 C 3.984375 -0.84375 4.015625 -0.753906 4.015625 -0.640625 C 4.015625 -0.523438 3.941406 -0.410156 3.796875 -0.296875 C 3.648438 -0.179688 3.453125 -0.0859375 3.203125 -0.015625 C 2.960938 0.046875 2.703125 0.078125 2.421875 0.078125 C 2.003906 0.078125 1.632812 -0.015625 1.3125 -0.203125 C 1 -0.398438 0.753906 -0.671875 0.578125 -1.015625 C 0.410156 -1.359375 0.328125 -1.742188 0.328125 -2.171875 C 0.328125 -2.597656 0.414062 -2.984375 0.59375 -3.328125 C 0.769531 -3.671875 1.019531 -3.9375 1.34375 -4.125 C 1.675781 -4.320312 2.050781 -4.421875 2.46875 -4.421875 Z M 2.46875 -4.421875 "/></g></g></g><g fill="#000000" fill-opacity="1"><g transform="translate(118.804735, 170.095517)"><g><path d="M 4.671875 -2.15625 C 4.671875 -1.726562 4.570312 -1.34375 4.375 -1 C 4.1875 -0.664062 3.925781 -0.398438 3.59375 -0.203125 C 3.269531 -0.015625 2.90625 0.078125 2.5 0.078125 C 2.09375 0.078125 1.722656 -0.015625 1.390625 -0.203125 C 1.066406 -0.398438 0.804688 -0.664062 0.609375 -1 C 0.421875 -1.34375 0.328125 -1.726562 0.328125 -2.15625 C 0.328125 -2.59375 0.421875 -2.984375 0.609375 -3.328125 C 0.804688 -3.671875 1.066406 -3.9375 1.390625 -4.125 C 1.722656 -4.320312 2.09375 -4.421875 2.5 -4.421875 C 2.90625 -4.421875 3.269531 -4.320312 3.59375 -4.125 C 3.925781 -3.9375 4.1875 -3.671875 4.375 -3.328125 C 4.570312 -2.984375 4.671875 -2.59375 4.671875 -2.15625 Z M 3.890625 -2.15625 C 3.890625 -2.457031 3.828125 -2.722656 3.703125 -2.953125 C 3.578125 -3.191406 3.410156 -3.375 3.203125 -3.5 C 2.992188 -3.632812 2.757812 -3.703125 2.5 -3.703125 C 2.238281 -3.703125 2.003906 -3.632812 1.796875 -3.5 C 1.585938 -3.375 1.421875 -3.191406 1.296875 -2.953125 C 1.171875 -2.722656 1.109375 -2.457031 1.109375 -2.15625 C 1.109375 -1.863281 1.171875 -1.601562 1.296875 -1.375 C 1.421875 -1.144531 1.585938 -0.960938 1.796875 -0.828125 C 2.003906 -0.703125 2.238281 -0.640625 2.5 -0.640625 C 2.757812 -0.640625 2.992188 -0.703125 3.203125 -0.828125 C 3.410156 -0.960938 3.578125 -1.144531 3.703125 -1.375 C 3.828125 -1.601562 3.890625 -1.863281 3.890625 -2.15625 Z M 3.890625 -2.15625 "/></g></g></g><g fill="#000000" fill-opacity="1"><g transform="translate(129.174725, 170.095517)"><g><path d="M 0.34375 -0.671875 C 0.289062 -0.753906 0.265625 -0.832031 0.265625 -0.90625 C 0.265625 -1.007812 0.320312 -1.101562 0.4375 -1.1875 C 0.488281 -1.21875 0.550781 -1.234375 0.625 -1.234375 C 0.726562 -1.234375 0.820312 -1.191406 0.90625 -1.109375 C 1.0625 -0.921875 1.234375 -0.78125 1.421875 -0.6875 C 1.617188 -0.59375 1.847656 -0.546875 2.109375 -0.546875 C 2.316406 -0.554688 2.5 -0.601562 2.65625 -0.6875 C 2.820312 -0.78125 2.90625 -0.929688 2.90625 -1.140625 C 2.90625 -1.328125 2.820312 -1.46875 2.65625 -1.5625 C 2.5 -1.664062 2.265625 -1.757812 1.953125 -1.84375 C 1.640625 -1.925781 1.378906 -2.007812 1.171875 -2.09375 C 0.972656 -2.1875 0.800781 -2.316406 0.65625 -2.484375 C 0.519531 -2.660156 0.453125 -2.890625 0.453125 -3.171875 C 0.453125 -3.421875 0.519531 -3.640625 0.65625 -3.828125 C 0.800781 -4.015625 0.988281 -4.160156 1.21875 -4.265625 C 1.457031 -4.367188 1.710938 -4.421875 1.984375 -4.421875 C 2.253906 -4.421875 2.519531 -4.367188 2.78125 -4.265625 C 3.039062 -4.171875 3.253906 -4.019531 3.421875 -3.8125 C 3.484375 -3.738281 3.515625 -3.660156 3.515625 -3.578125 C 3.515625 -3.492188 3.46875 -3.410156 3.375 -3.328125 C 3.320312 -3.273438 3.253906 -3.25 3.171875 -3.25 C 3.078125 -3.25 3 -3.28125 2.9375 -3.34375 C 2.820312 -3.476562 2.679688 -3.582031 2.515625 -3.65625 C 2.347656 -3.726562 2.160156 -3.765625 1.953125 -3.765625 C 1.742188 -3.765625 1.566406 -3.71875 1.421875 -3.625 C 1.273438 -3.539062 1.203125 -3.398438 1.203125 -3.203125 C 1.210938 -3.003906 1.296875 -2.859375 1.453125 -2.765625 C 1.617188 -2.671875 1.867188 -2.582031 2.203125 -2.5 C 2.492188 -2.425781 2.734375 -2.34375 2.921875 -2.25 C 3.117188 -2.164062 3.28125 -2.035156 3.40625 -1.859375 C 3.539062 -1.679688 3.609375 -1.457031 3.609375 -1.1875 C 3.609375 -0.925781 3.535156 -0.695312 3.390625 -0.5 C 3.242188 -0.3125 3.050781 -0.164062 2.8125 -0.0625 C 2.570312 0.03125 2.316406 0.078125 2.046875 0.078125 C 1.703125 0.078125 1.378906 0.0195312 1.078125 -0.09375 C 0.785156 -0.21875 0.539062 -0.410156 0.34375 -0.671875 Z M 0.34375 -0.671875 "/></g></g></g><g fill="#000000" fill-opacity="1"><g transform="translate(138.481677, 170.095517)"><g><path d="M 5.546875 -4.390625 C 6.503906 -4.390625 6.984375 -3.789062 6.984375 -2.59375 L 6.984375 -0.390625 C 6.984375 -0.273438 6.945312 -0.179688 6.875 -0.109375 C 6.800781 -0.0351562 6.707031 0 6.59375 0 C 6.476562 0 6.382812 -0.0351562 6.3125 -0.109375 C 6.238281 -0.191406 6.203125 -0.285156 6.203125 -0.390625 L 6.203125 -2.59375 C 6.203125 -3.3125 5.898438 -3.671875 5.296875 -3.671875 C 5.078125 -3.671875 4.878906 -3.617188 4.703125 -3.515625 C 4.535156 -3.421875 4.40625 -3.289062 4.3125 -3.125 C 4.21875 -2.96875 4.171875 -2.789062 4.171875 -2.59375 L 4.171875 -0.390625 C 4.171875 -0.285156 4.128906 -0.191406 4.046875 -0.109375 C 3.972656 -0.0351562 3.878906 0 3.765625 0 C 3.648438 0 3.554688 -0.0351562 3.484375 -0.109375 C 3.410156 -0.179688 3.375 -0.273438 3.375 -0.390625 L 3.375 -2.59375 C 3.375 -2.914062 3.304688 -3.175781 3.171875 -3.375 C 3.035156 -3.570312 2.804688 -3.671875 2.484375 -3.671875 C 2.160156 -3.671875 1.894531 -3.566406 1.6875 -3.359375 C 1.476562 -3.148438 1.375 -2.894531 1.375 -2.59375 L 1.375 -0.390625 C 1.375 -0.285156 1.332031 -0.191406 1.25 -0.109375 C 1.175781 -0.0351562 1.082031 0 0.96875 0 C 0.851562 0 0.757812 -0.0351562 0.6875 -0.109375 C 0.613281 -0.179688 0.578125 -0.273438 0.578125 -0.390625 L 0.578125 -3.921875 C 0.578125 -4.035156 0.613281 -4.128906 0.6875 -4.203125 C 0.769531 -4.285156 0.863281 -4.328125 0.96875 -4.328125 C 1.082031 -4.328125 1.175781 -4.285156 1.25 -4.203125 C 1.332031 -4.128906 1.375 -4.035156 1.375 -3.921875 L 1.375 -3.640625 C 1.507812 -3.847656 1.695312 -4.023438 1.9375 -4.171875 C 2.175781 -4.316406 2.4375 -4.390625 2.71875 -4.390625 C 3.40625 -4.390625 3.847656 -4.085938 4.046875 -3.484375 C 4.171875 -3.722656 4.375 -3.929688 4.65625 -4.109375 C 4.9375 -4.296875 5.234375 -4.390625 5.546875 -4.390625 Z M 5.546875 -4.390625 "/></g></g></g><g fill="#000000" fill-opacity="1"><g transform="translate(151.422733, 170.095517)"><g><path d="M 4.375 -2.328125 C 4.375 -2.222656 4.332031 -2.132812 4.25 -2.0625 C 4.175781 -2 4.085938 -1.96875 3.984375 -1.96875 L 1.078125 -1.96875 C 1.117188 -1.570312 1.269531 -1.25 1.53125 -1 C 1.800781 -0.757812 2.128906 -0.640625 2.515625 -0.640625 C 2.773438 -0.640625 2.988281 -0.675781 3.15625 -0.75 C 3.320312 -0.832031 3.46875 -0.9375 3.59375 -1.0625 C 3.675781 -1.101562 3.757812 -1.125 3.84375 -1.125 C 3.925781 -1.125 4 -1.09375 4.0625 -1.03125 C 4.132812 -0.96875 4.171875 -0.890625 4.171875 -0.796875 C 4.171875 -0.679688 4.113281 -0.578125 4 -0.484375 C 3.84375 -0.328125 3.628906 -0.191406 3.359375 -0.078125 C 3.097656 0.0234375 2.832031 0.078125 2.5625 0.078125 C 2.113281 0.078125 1.71875 -0.015625 1.375 -0.203125 C 1.039062 -0.390625 0.78125 -0.648438 0.59375 -0.984375 C 0.414062 -1.316406 0.328125 -1.695312 0.328125 -2.125 C 0.328125 -2.582031 0.421875 -2.984375 0.609375 -3.328125 C 0.796875 -3.679688 1.046875 -3.953125 1.359375 -4.140625 C 1.671875 -4.328125 2.003906 -4.421875 2.359375 -4.421875 C 2.710938 -4.421875 3.039062 -4.328125 3.34375 -4.140625 C 3.65625 -3.960938 3.90625 -3.710938 4.09375 -3.390625 C 4.28125 -3.078125 4.375 -2.722656 4.375 -2.328125 Z M 2.359375 -3.703125 C 2.046875 -3.703125 1.773438 -3.613281 1.546875 -3.4375 C 1.328125 -3.257812 1.179688 -2.988281 1.109375 -2.625 L 3.546875 -2.625 L 3.546875 -2.703125 C 3.515625 -2.992188 3.382812 -3.234375 3.15625 -3.421875 C 2.925781 -3.609375 2.660156 -3.703125 2.359375 -3.703125 Z M 2.359375 -3.703125 "/></g></g></g><g fill="#000000" fill-opacity="1"><g transform="translate(161.496056, 170.095517)"><g><path d="M 1.75 -3.5625 L 1.75 -1.09375 C 1.75 -0.820312 1.875 -0.6875 2.125 -0.6875 C 2.164062 -0.6875 2.21875 -0.695312 2.28125 -0.71875 C 2.351562 -0.738281 2.40625 -0.75 2.4375 -0.75 C 2.507812 -0.75 2.570312 -0.71875 2.625 -0.65625 C 2.675781 -0.59375 2.703125 -0.515625 2.703125 -0.421875 C 2.703125 -0.304688 2.632812 -0.207031 2.5 -0.125 C 2.363281 -0.0390625 2.210938 0 2.046875 0 C 1.867188 0 1.703125 -0.015625 1.546875 -0.046875 C 1.398438 -0.0859375 1.265625 -0.1875 1.140625 -0.34375 C 1.023438 -0.5 0.96875 -0.738281 0.96875 -1.0625 L 0.96875 -3.5625 L 0.5 -3.5625 C 0.394531 -3.5625 0.304688 -3.59375 0.234375 -3.65625 C 0.160156 -3.726562 0.125 -3.816406 0.125 -3.921875 C 0.125 -4.023438 0.160156 -4.109375 0.234375 -4.171875 C 0.304688 -4.242188 0.394531 -4.28125 0.5 -4.28125 L 0.96875 -4.28125 L 0.96875 -4.96875 C 0.96875 -5.070312 1.003906 -5.160156 1.078125 -5.234375 C 1.160156 -5.316406 1.257812 -5.359375 1.375 -5.359375 C 1.476562 -5.359375 1.566406 -5.316406 1.640625 -5.234375 C 1.710938 -5.160156 1.75 -5.070312 1.75 -4.96875 L 1.75 -4.28125 L 2.4375 -4.28125 C 2.539062 -4.28125 2.628906 -4.242188 2.703125 -4.171875 C 2.773438 -4.097656 2.8125 -4.007812 2.8125 -3.90625 C 2.8125 -3.800781 2.773438 -3.71875 2.703125 -3.65625 C 2.628906 -3.59375 2.539062 -3.5625 2.4375 -3.5625 Z M 1.75 -3.5625 "/></g></g></g><g fill="#000000" fill-opacity="1"><g transform="translate(170.003671, 170.095517)"><g><path d="M 1.328125 -0.390625 C 1.328125 -0.285156 1.289062 -0.191406 1.21875 -0.109375 C 1.144531 -0.0351562 1.050781 0 0.9375 0 C 0.820312 0 0.726562 -0.0351562 0.65625 -0.109375 C 0.582031 -0.191406 0.546875 -0.285156 0.546875 -0.390625 L 0.546875 -3.96875 C 0.546875 -4.082031 0.582031 -4.175781 0.65625 -4.25 C 0.726562 -4.320312 0.820312 -4.359375 0.9375 -4.359375 C 1.050781 -4.359375 1.144531 -4.320312 1.21875 -4.25 C 1.289062 -4.175781 1.328125 -4.082031 1.328125 -3.96875 Z M 0.9375 -4.90625 C 0.78125 -4.90625 0.664062 -4.929688 0.59375 -4.984375 C 0.53125 -5.046875 0.5 -5.140625 0.5 -5.265625 L 0.5 -5.40625 C 0.5 -5.539062 0.535156 -5.632812 0.609375 -5.6875 C 0.679688 -5.738281 0.796875 -5.765625 0.953125 -5.765625 C 1.097656 -5.765625 1.207031 -5.734375 1.28125 -5.671875 C 1.351562 -5.617188 1.390625 -5.53125 1.390625 -5.40625 L 1.390625 -5.265625 C 1.390625 -5.140625 1.351562 -5.046875 1.28125 -4.984375 C 1.207031 -4.929688 1.09375 -4.90625 0.9375 -4.90625 Z M 0.9375 -4.90625 "/></g></g></g><g fill="#000000" fill-opacity="1"><g transform="translate(177.250467, 170.095517)"><g><path d="M 2.46875 -4.421875 C 2.90625 -4.421875 3.265625 -4.351562 3.546875 -4.21875 C 3.835938 -4.082031 3.984375 -3.90625 3.984375 -3.6875 C 3.984375 -3.59375 3.953125 -3.507812 3.890625 -3.4375 C 3.828125 -3.363281 3.75 -3.328125 3.65625 -3.328125 C 3.59375 -3.328125 3.539062 -3.335938 3.5 -3.359375 C 3.457031 -3.378906 3.398438 -3.414062 3.328125 -3.46875 C 3.296875 -3.5 3.242188 -3.535156 3.171875 -3.578125 C 3.097656 -3.609375 3 -3.632812 2.875 -3.65625 C 2.757812 -3.6875 2.65625 -3.703125 2.5625 -3.703125 C 2.269531 -3.703125 2.015625 -3.632812 1.796875 -3.5 C 1.578125 -3.363281 1.40625 -3.175781 1.28125 -2.9375 C 1.164062 -2.707031 1.109375 -2.453125 1.109375 -2.171875 C 1.109375 -1.878906 1.164062 -1.617188 1.28125 -1.390625 C 1.394531 -1.160156 1.5625 -0.976562 1.78125 -0.84375 C 2 -0.707031 2.242188 -0.640625 2.515625 -0.640625 C 2.796875 -0.640625 3.023438 -0.6875 3.203125 -0.78125 C 3.242188 -0.800781 3.296875 -0.832031 3.359375 -0.875 C 3.421875 -0.925781 3.472656 -0.960938 3.515625 -0.984375 C 3.554688 -1.003906 3.601562 -1.015625 3.65625 -1.015625 C 3.769531 -1.015625 3.859375 -0.976562 3.921875 -0.90625 C 3.984375 -0.84375 4.015625 -0.753906 4.015625 -0.640625 C 4.015625 -0.523438 3.941406 -0.410156 3.796875 -0.296875 C 3.648438 -0.179688 3.453125 -0.0859375 3.203125 -0.015625 C 2.960938 0.046875 2.703125 0.078125 2.421875 0.078125 C 2.003906 0.078125 1.632812 -0.015625 1.3125 -0.203125 C 1 -0.398438 0.753906 -0.671875 0.578125 -1.015625 C 0.410156 -1.359375 0.328125 -1.742188 0.328125 -2.171875 C 0.328125 -2.597656 0.414062 -2.984375 0.59375 -3.328125 C 0.769531 -3.671875 1.019531 -3.9375 1.34375 -4.125 C 1.675781 -4.320312 2.050781 -4.421875 2.46875 -4.421875 Z M 2.46875 -4.421875 "/></g></g></g><g fill="#000000" fill-opacity="1"><g transform="translate(186.862318, 170.095517)"><g><path d="M 0.34375 -0.671875 C 0.289062 -0.753906 0.265625 -0.832031 0.265625 -0.90625 C 0.265625 -1.007812 0.320312 -1.101562 0.4375 -1.1875 C 0.488281 -1.21875 0.550781 -1.234375 0.625 -1.234375 C 0.726562 -1.234375 0.820312 -1.191406 0.90625 -1.109375 C 1.0625 -0.921875 1.234375 -0.78125 1.421875 -0.6875 C 1.617188 -0.59375 1.847656 -0.546875 2.109375 -0.546875 C 2.316406 -0.554688 2.5 -0.601562 2.65625 -0.6875 C 2.820312 -0.78125 2.90625 -0.929688 2.90625 -1.140625 C 2.90625 -1.328125 2.820312 -1.46875 2.65625 -1.5625 C 2.5 -1.664062 2.265625 -1.757812 1.953125 -1.84375 C 1.640625 -1.925781 1.378906 -2.007812 1.171875 -2.09375 C 0.972656 -2.1875 0.800781 -2.316406 0.65625 -2.484375 C 0.519531 -2.660156 0.453125 -2.890625 0.453125 -3.171875 C 0.453125 -3.421875 0.519531 -3.640625 0.65625 -3.828125 C 0.800781 -4.015625 0.988281 -4.160156 1.21875 -4.265625 C 1.457031 -4.367188 1.710938 -4.421875 1.984375 -4.421875 C 2.253906 -4.421875 2.519531 -4.367188 2.78125 -4.265625 C 3.039062 -4.171875 3.253906 -4.019531 3.421875 -3.8125 C 3.484375 -3.738281 3.515625 -3.660156 3.515625 -3.578125 C 3.515625 -3.492188 3.46875 -3.410156 3.375 -3.328125 C 3.320312 -3.273438 3.253906 -3.25 3.171875 -3.25 C 3.078125 -3.25 3 -3.28125 2.9375 -3.34375 C 2.820312 -3.476562 2.679688 -3.582031 2.515625 -3.65625 C 2.347656 -3.726562 2.160156 -3.765625 1.953125 -3.765625 C 1.742188 -3.765625 1.566406 -3.71875 1.421875 -3.625 C 1.273438 -3.539062 1.203125 -3.398438 1.203125 -3.203125 C 1.210938 -3.003906 1.296875 -2.859375 1.453125 -2.765625 C 1.617188 -2.671875 1.867188 -2.582031 2.203125 -2.5 C 2.492188 -2.425781 2.734375 -2.34375 2.921875 -2.25 C 3.117188 -2.164062 3.28125 -2.035156 3.40625 -1.859375 C 3.539062 -1.679688 3.609375 -1.457031 3.609375 -1.1875 C 3.609375 -0.925781 3.535156 -0.695312 3.390625 -0.5 C 3.242188 -0.3125 3.050781 -0.164062 2.8125 -0.0625 C 2.570312 0.03125 2.316406 0.078125 2.046875 0.078125 C 1.703125 0.078125 1.378906 0.0195312 1.078125 -0.09375 C 0.785156 -0.21875 0.539062 -0.410156 0.34375 -0.671875 Z M 0.34375 -0.671875 "/></g></g></g><g fill="#000000" fill-opacity="1"><g transform="translate(139.210644, 260.051727)"><g><path d="M 0.34375 -0.671875 C 0.289062 -0.753906 0.265625 -0.832031 0.265625 -0.90625 C 0.265625 -1.007812 0.320312 -1.101562 0.4375 -1.1875 C 0.488281 -1.21875 0.550781 -1.234375 0.625 -1.234375 C 0.726562 -1.234375 0.820312 -1.191406 0.90625 -1.109375 C 1.0625 -0.921875 1.234375 -0.78125 1.421875 -0.6875 C 1.617188 -0.59375 1.847656 -0.546875 2.109375 -0.546875 C 2.316406 -0.554688 2.5 -0.601562 2.65625 -0.6875 C 2.820312 -0.78125 2.90625 -0.929688 2.90625 -1.140625 C 2.90625 -1.328125 2.820312 -1.46875 2.65625 -1.5625 C 2.5 -1.664062 2.265625 -1.757812 1.953125 -1.84375 C 1.640625 -1.925781 1.378906 -2.007812 1.171875 -2.09375 C 0.972656 -2.1875 0.800781 -2.316406 0.65625 -2.484375 C 0.519531 -2.660156 0.453125 -2.890625 0.453125 -3.171875 C 0.453125 -3.421875 0.519531 -3.640625 0.65625 -3.828125 C 0.800781 -4.015625 0.988281 -4.160156 1.21875 -4.265625 C 1.457031 -4.367188 1.710938 -4.421875 1.984375 -4.421875 C 2.253906 -4.421875 2.519531 -4.367188 2.78125 -4.265625 C 3.039062 -4.171875 3.253906 -4.019531 3.421875 -3.8125 C 3.484375 -3.738281 3.515625 -3.660156 3.515625 -3.578125 C 3.515625 -3.492188 3.46875 -3.410156 3.375 -3.328125 C 3.320312 -3.273438 3.253906 -3.25 3.171875 -3.25 C 3.078125 -3.25 3 -3.28125 2.9375 -3.34375 C 2.820312 -3.476562 2.679688 -3.582031 2.515625 -3.65625 C 2.347656 -3.726562 2.160156 -3.765625 1.953125 -3.765625 C 1.742188 -3.765625 1.566406 -3.71875 1.421875 -3.625 C 1.273438 -3.539062 1.203125 -3.398438 1.203125 -3.203125 C 1.210938 -3.003906 1.296875 -2.859375 1.453125 -2.765625 C 1.617188 -2.671875 1.867188 -2.582031 2.203125 -2.5 C 2.492188 -2.425781 2.734375 -2.34375 2.921875 -2.25 C 3.117188 -2.164062 3.28125 -2.035156 3.40625 -1.859375 C 3.539062 -1.679688 3.609375 -1.457031 3.609375 -1.1875 C 3.609375 -0.925781 3.535156 -0.695312 3.390625 -0.5 C 3.242188 -0.3125 3.050781 -0.164062 2.8125 -0.0625 C 2.570312 0.03125 2.316406 0.078125 2.046875 0.078125 C 1.703125 0.078125 1.378906 0.0195312 1.078125 -0.09375 C 0.785156 -0.21875 0.539062 -0.410156 0.34375 -0.671875 Z M 0.34375 -0.671875 "/></g></g></g><g fill="#000000" fill-opacity="1"><g transform="translate(143.636155, 260.051727)"><g><path d="M 1.328125 -0.390625 C 1.328125 -0.285156 1.289062 -0.191406 1.21875 -0.109375 C 1.144531 -0.0351562 1.050781 0 0.9375 0 C 0.820312 0 0.726562 -0.0351562 0.65625 -0.109375 C 0.582031 -0.191406 0.546875 -0.285156 0.546875 -0.390625 L 0.546875 -3.96875 C 0.546875 -4.082031 0.582031 -4.175781 0.65625 -4.25 C 0.726562 -4.320312 0.820312 -4.359375 0.9375 -4.359375 C 1.050781 -4.359375 1.144531 -4.320312 1.21875 -4.25 C 1.289062 -4.175781 1.328125 -4.082031 1.328125 -3.96875 Z M 0.9375 -4.90625 C 0.78125 -4.90625 0.664062 -4.929688 0.59375 -4.984375 C 0.53125 -5.046875 0.5 -5.140625 0.5 -5.265625 L 0.5 -5.40625 C 0.5 -5.539062 0.535156 -5.632812 0.609375 -5.6875 C 0.679688 -5.738281 0.796875 -5.765625 0.953125 -5.765625 C 1.097656 -5.765625 1.207031 -5.734375 1.28125 -5.671875 C 1.351562 -5.617188 1.390625 -5.53125 1.390625 -5.40625 L 1.390625 -5.265625 C 1.390625 -5.140625 1.351562 -5.046875 1.28125 -4.984375 C 1.207031 -4.929688 1.09375 -4.90625 0.9375 -4.90625 Z M 0.9375 -4.90625 "/></g></g></g><g fill="#000000" fill-opacity="1"><g transform="translate(146.00151, 260.051727)"><g><path d="M 2.78125 -4.421875 C 3.78125 -4.421875 4.28125 -3.828125 4.28125 -2.640625 L 4.28125 -0.390625 C 4.28125 -0.285156 4.238281 -0.191406 4.15625 -0.109375 C 4.082031 -0.0351562 3.988281 0 3.875 0 C 3.769531 0 3.675781 -0.0351562 3.59375 -0.109375 C 3.519531 -0.191406 3.484375 -0.285156 3.484375 -0.390625 L 3.484375 -2.625 C 3.484375 -2.957031 3.410156 -3.21875 3.265625 -3.40625 C 3.117188 -3.601562 2.878906 -3.703125 2.546875 -3.703125 C 2.328125 -3.703125 2.125 -3.648438 1.9375 -3.546875 C 1.757812 -3.453125 1.617188 -3.320312 1.515625 -3.15625 C 1.421875 -3 1.375 -2.820312 1.375 -2.625 L 1.375 -0.390625 C 1.375 -0.285156 1.332031 -0.191406 1.25 -0.109375 C 1.175781 -0.0351562 1.082031 0 0.96875 0 C 0.851562 0 0.757812 -0.0351562 0.6875 -0.109375 C 0.613281 -0.179688 0.578125 -0.273438 0.578125 -0.390625 L 0.578125 -3.921875 C 0.578125 -4.035156 0.613281 -4.128906 0.6875 -4.203125 C 0.769531 -4.285156 0.863281 -4.328125 0.96875 -4.328125 C 1.082031 -4.328125 1.175781 -4.285156 1.25 -4.203125 C 1.332031 -4.128906 1.375 -4.035156 1.375 -3.921875 L 1.375 -3.640625 C 1.507812 -3.859375 1.703125 -4.039062 1.953125 -4.1875 C 2.210938 -4.34375 2.488281 -4.421875 2.78125 -4.421875 Z M 2.78125 -4.421875 "/></g></g></g><g fill="#000000" fill-opacity="1"><g transform="translate(151.349965, 260.051727)"><g><path d="M 2.46875 -4.421875 C 2.90625 -4.421875 3.265625 -4.351562 3.546875 -4.21875 C 3.835938 -4.082031 3.984375 -3.90625 3.984375 -3.6875 C 3.984375 -3.59375 3.953125 -3.507812 3.890625 -3.4375 C 3.828125 -3.363281 3.75 -3.328125 3.65625 -3.328125 C 3.59375 -3.328125 3.539062 -3.335938 3.5 -3.359375 C 3.457031 -3.378906 3.398438 -3.414062 3.328125 -3.46875 C 3.296875 -3.5 3.242188 -3.535156 3.171875 -3.578125 C 3.097656 -3.609375 3 -3.632812 2.875 -3.65625 C 2.757812 -3.6875 2.65625 -3.703125 2.5625 -3.703125 C 2.269531 -3.703125 2.015625 -3.632812 1.796875 -3.5 C 1.578125 -3.363281 1.40625 -3.175781 1.28125 -2.9375 C 1.164062 -2.707031 1.109375 -2.453125 1.109375 -2.171875 C 1.109375 -1.878906 1.164062 -1.617188 1.28125 -1.390625 C 1.394531 -1.160156 1.5625 -0.976562 1.78125 -0.84375 C 2 -0.707031 2.242188 -0.640625 2.515625 -0.640625 C 2.796875 -0.640625 3.023438 -0.6875 3.203125 -0.78125 C 3.242188 -0.800781 3.296875 -0.832031 3.359375 -0.875 C 3.421875 -0.925781 3.472656 -0.960938 3.515625 -0.984375 C 3.554688 -1.003906 3.601562 -1.015625 3.65625 -1.015625 C 3.769531 -1.015625 3.859375 -0.976562 3.921875 -0.90625 C 3.984375 -0.84375 4.015625 -0.753906 4.015625 -0.640625 C 4.015625 -0.523438 3.941406 -0.410156 3.796875 -0.296875 C 3.648438 -0.179688 3.453125 -0.0859375 3.203125 -0.015625 C 2.960938 0.046875 2.703125 0.078125 2.421875 0.078125 C 2.003906 0.078125 1.632812 -0.015625 1.3125 -0.203125 C 1 -0.398438 0.753906 -0.671875 0.578125 -1.015625 C 0.410156 -1.359375 0.328125 -1.742188 0.328125 -2.171875 C 0.328125 -2.597656 0.414062 -2.984375 0.59375 -3.328125 C 0.769531 -3.671875 1.019531 -3.9375 1.34375 -4.125 C 1.675781 -4.320312 2.050781 -4.421875 2.46875 -4.421875 Z M 2.46875 -4.421875 "/></g></g></g><g fill="#000000" fill-opacity="1"><g transform="translate(156.080374, 260.051727)"><g><path d="M 4.375 -2.328125 C 4.375 -2.222656 4.332031 -2.132812 4.25 -2.0625 C 4.175781 -2 4.085938 -1.96875 3.984375 -1.96875 L 1.078125 -1.96875 C 1.117188 -1.570312 1.269531 -1.25 1.53125 -1 C 1.800781 -0.757812 2.128906 -0.640625 2.515625 -0.640625 C 2.773438 -0.640625 2.988281 -0.675781 3.15625 -0.75 C 3.320312 -0.832031 3.46875 -0.9375 3.59375 -1.0625 C 3.675781 -1.101562 3.757812 -1.125 3.84375 -1.125 C 3.925781 -1.125 4 -1.09375 4.0625 -1.03125 C 4.132812 -0.96875 4.171875 -0.890625 4.171875 -0.796875 C 4.171875 -0.679688 4.113281 -0.578125 4 -0.484375 C 3.84375 -0.328125 3.628906 -0.191406 3.359375 -0.078125 C 3.097656 0.0234375 2.832031 0.078125 2.5625 0.078125 C 2.113281 0.078125 1.71875 -0.015625 1.375 -0.203125 C 1.039062 -0.390625 0.78125 -0.648438 0.59375 -0.984375 C 0.414062 -1.316406 0.328125 -1.695312 0.328125 -2.125 C 0.328125 -2.582031 0.421875 -2.984375 0.609375 -3.328125 C 0.796875 -3.679688 1.046875 -3.953125 1.359375 -4.140625 C 1.671875 -4.328125 2.003906 -4.421875 2.359375 -4.421875 C 2.710938 -4.421875 3.039062 -4.328125 3.34375 -4.140625 C 3.65625 -3.960938 3.90625 -3.710938 4.09375 -3.390625 C 4.28125 -3.078125 4.375 -2.722656 4.375 -2.328125 Z M 2.359375 -3.703125 C 2.046875 -3.703125 1.773438 -3.613281 1.546875 -3.4375 C 1.328125 -3.257812 1.179688 -2.988281 1.109375 -2.625 L 3.546875 -2.625 L 3.546875 -2.703125 C 3.515625 -2.992188 3.382812 -3.234375 3.15625 -3.421875 C 2.925781 -3.609375 2.660156 -3.703125 2.359375 -3.703125 Z M 2.359375 -3.703125 "/></g></g></g><g fill="#000000" fill-opacity="1"><g transform="translate(140.091894, 267.851726)"><g><path d="M 3.859375 -0.71875 C 3.960938 -0.71875 4.050781 -0.679688 4.125 -0.609375 C 4.195312 -0.546875 4.234375 -0.460938 4.234375 -0.359375 C 4.234375 -0.253906 4.195312 -0.164062 4.125 -0.09375 C 4.050781 -0.03125 3.960938 0 3.859375 0 L 0.9375 0 C 0.820312 0 0.726562 -0.03125 0.65625 -0.09375 C 0.582031 -0.164062 0.546875 -0.257812 0.546875 -0.375 C 0.546875 -0.476562 0.585938 -0.570312 0.671875 -0.65625 L 2.515625 -2.65625 C 3.023438 -3.195312 3.28125 -3.675781 3.28125 -4.09375 C 3.28125 -4.394531 3.179688 -4.640625 2.984375 -4.828125 C 2.785156 -5.023438 2.535156 -5.125 2.234375 -5.125 C 2.035156 -5.125 1.84375 -5.066406 1.65625 -4.953125 C 1.46875 -4.835938 1.316406 -4.675781 1.203125 -4.46875 C 1.109375 -4.351562 1 -4.296875 0.875 -4.296875 C 0.789062 -4.296875 0.707031 -4.328125 0.625 -4.390625 C 0.539062 -4.460938 0.5 -4.546875 0.5 -4.640625 C 0.5 -4.703125 0.519531 -4.765625 0.5625 -4.828125 C 0.601562 -4.898438 0.660156 -4.976562 0.734375 -5.0625 C 0.910156 -5.300781 1.140625 -5.492188 1.421875 -5.640625 C 1.703125 -5.785156 1.988281 -5.859375 2.28125 -5.859375 C 2.644531 -5.859375 2.960938 -5.78125 3.234375 -5.625 C 3.503906 -5.476562 3.710938 -5.273438 3.859375 -5.015625 C 4.003906 -4.765625 4.078125 -4.472656 4.078125 -4.140625 C 4.078125 -3.503906 3.734375 -2.820312 3.046875 -2.09375 L 1.8125 -0.71875 Z M 3.859375 -0.71875 "/></g></g></g><g fill="#000000" fill-opacity="1"><g transform="translate(145.110722, 267.851726)"><g><path d="M 2.5 0.078125 C 2.050781 0.078125 1.664062 -0.046875 1.34375 -0.296875 C 1.019531 -0.546875 0.773438 -0.894531 0.609375 -1.34375 C 0.453125 -1.789062 0.375 -2.304688 0.375 -2.890625 C 0.375 -3.472656 0.453125 -3.984375 0.609375 -4.421875 C 0.773438 -4.867188 1.019531 -5.21875 1.34375 -5.46875 C 1.664062 -5.726562 2.050781 -5.859375 2.5 -5.859375 C 2.945312 -5.859375 3.332031 -5.726562 3.65625 -5.46875 C 3.976562 -5.21875 4.21875 -4.867188 4.375 -4.421875 C 4.539062 -3.984375 4.625 -3.472656 4.625 -2.890625 C 4.625 -2.304688 4.539062 -1.789062 4.375 -1.34375 C 4.21875 -0.894531 3.976562 -0.546875 3.65625 -0.296875 C 3.332031 -0.046875 2.945312 0.078125 2.5 0.078125 Z M 2.5 -0.703125 C 2.90625 -0.703125 3.21875 -0.890625 3.4375 -1.265625 C 3.65625 -1.648438 3.765625 -2.191406 3.765625 -2.890625 C 3.765625 -3.578125 3.65625 -4.109375 3.4375 -4.484375 C 3.21875 -4.867188 2.90625 -5.0625 2.5 -5.0625 C 2.09375 -5.0625 1.78125 -4.867188 1.5625 -4.484375 C 1.34375 -4.109375 1.234375 -3.578125 1.234375 -2.890625 C 1.234375 -2.191406 1.34375 -1.648438 1.5625 -1.265625 C 1.78125 -0.890625 2.09375 -0.703125 2.5 -0.703125 Z M 2.5 -0.703125 "/></g></g></g><g fill="#000000" fill-opacity="1"><g transform="translate(150.59927, 267.851726)"><g><path d="M 3.859375 -0.71875 C 3.960938 -0.71875 4.050781 -0.679688 4.125 -0.609375 C 4.195312 -0.546875 4.234375 -0.460938 4.234375 -0.359375 C 4.234375 -0.253906 4.195312 -0.164062 4.125 -0.09375 C 4.050781 -0.03125 3.960938 0 3.859375 0 L 0.9375 0 C 0.820312 0 0.726562 -0.03125 0.65625 -0.09375 C 0.582031 -0.164062 0.546875 -0.257812 0.546875 -0.375 C 0.546875 -0.476562 0.585938 -0.570312 0.671875 -0.65625 L 2.515625 -2.65625 C 3.023438 -3.195312 3.28125 -3.675781 3.28125 -4.09375 C 3.28125 -4.394531 3.179688 -4.640625 2.984375 -4.828125 C 2.785156 -5.023438 2.535156 -5.125 2.234375 -5.125 C 2.035156 -5.125 1.84375 -5.066406 1.65625 -4.953125 C 1.46875 -4.835938 1.316406 -4.675781 1.203125 -4.46875 C 1.109375 -4.351562 1 -4.296875 0.875 -4.296875 C 0.789062 -4.296875 0.707031 -4.328125 0.625 -4.390625 C 0.539062 -4.460938 0.5 -4.546875 0.5 -4.640625 C 0.5 -4.703125 0.519531 -4.765625 0.5625 -4.828125 C 0.601562 -4.898438 0.660156 -4.976562 0.734375 -5.0625 C 0.910156 -5.300781 1.140625 -5.492188 1.421875 -5.640625 C 1.703125 -5.785156 1.988281 -5.859375 2.28125 -5.859375 C 2.644531 -5.859375 2.960938 -5.78125 3.234375 -5.625 C 3.503906 -5.476562 3.710938 -5.273438 3.859375 -5.015625 C 4.003906 -4.765625 4.078125 -4.472656 4.078125 -4.140625 C 4.078125 -3.503906 3.734375 -2.820312 3.046875 -2.09375 L 1.8125 -0.71875 Z M 3.859375 -0.71875 "/></g></g></g><g fill="#000000" fill-opacity="1"><g transform="translate(155.618098, 267.851726)"><g><path d="M 2.265625 -3.65625 C 2.578125 -3.65625 2.859375 -3.578125 3.109375 -3.421875 C 3.359375 -3.265625 3.554688 -3.050781 3.703125 -2.78125 C 3.847656 -2.507812 3.921875 -2.207031 3.921875 -1.875 C 3.921875 -1.476562 3.828125 -1.128906 3.640625 -0.828125 C 3.460938 -0.535156 3.210938 -0.3125 2.890625 -0.15625 C 2.578125 0 2.210938 0.078125 1.796875 0.078125 C 1.578125 0.078125 1.363281 0.0507812 1.15625 0 C 0.945312 -0.0625 0.769531 -0.148438 0.625 -0.265625 C 0.476562 -0.347656 0.40625 -0.460938 0.40625 -0.609375 C 0.40625 -0.710938 0.441406 -0.804688 0.515625 -0.890625 C 0.585938 -0.984375 0.675781 -1.03125 0.78125 -1.03125 C 0.882812 -1.03125 0.984375 -0.992188 1.078125 -0.921875 C 1.304688 -0.710938 1.59375 -0.609375 1.9375 -0.609375 C 2.144531 -0.609375 2.34375 -0.65625 2.53125 -0.75 C 2.71875 -0.851562 2.863281 -0.992188 2.96875 -1.171875 C 3.082031 -1.359375 3.140625 -1.578125 3.140625 -1.828125 C 3.140625 -2.179688 3.023438 -2.453125 2.796875 -2.640625 C 2.578125 -2.835938 2.316406 -2.9375 2.015625 -2.9375 C 1.921875 -2.9375 1.796875 -2.914062 1.640625 -2.875 C 1.515625 -2.84375 1.421875 -2.828125 1.359375 -2.828125 C 1.265625 -2.828125 1.1875 -2.859375 1.125 -2.921875 C 1.0625 -2.992188 1.03125 -3.082031 1.03125 -3.1875 C 1.03125 -3.25 1.039062 -3.300781 1.0625 -3.34375 C 1.082031 -3.394531 1.117188 -3.445312 1.171875 -3.5 L 2.578125 -5.046875 L 0.671875 -5.046875 C 0.566406 -5.046875 0.476562 -5.082031 0.40625 -5.15625 C 0.332031 -5.226562 0.296875 -5.316406 0.296875 -5.421875 C 0.296875 -5.523438 0.332031 -5.609375 0.40625 -5.671875 C 0.476562 -5.742188 0.566406 -5.78125 0.671875 -5.78125 L 3.296875 -5.78125 C 3.421875 -5.78125 3.519531 -5.738281 3.59375 -5.65625 C 3.664062 -5.582031 3.703125 -5.488281 3.703125 -5.375 C 3.703125 -5.28125 3.648438 -5.179688 3.546875 -5.078125 Z M 2.265625 -3.65625 "/></g></g></g></svg>