<svg xmlns="http://www.w3.org/2000/svg" xmlns:xlink="http://www.w3.org/1999/xlink" width="400" zoomAndPan="magnify" viewBox="0 0 300 299.999988" height="400" preserveAspectRatio="xMidYMid meet" version="1.0"><defs><g/></defs><rect x="-30" width="360" fill="#ffffff" y="-29.999999" height="359.999986" fill-opacity="1"/><rect x="-30" width="360" fill="#ffffff" y="-29.999999" height="359.999986" fill-opacity="1"/><rect x="-30" width="360" fill="#fdfdfb" y="-29.999999" height="359.999986" fill-opacity="1"/><path fill="#4e1a3d" d="M 210 131.054688 L 207.796875 131.054688 L 207.796875 92.203125 L 92.203125 92.203125 L 92.203125 131.054688 L 90 131.054688 L 90 90 L 210 90 L 210 131.054688 " fill-opacity="1" fill-rule="nonzero"/><path fill="#4e1a3d" d="M 210 210 L 90 210 L 90 165.5 L 92.203125 165.5 L 92.203125 207.796875 L 207.796875 207.796875 L 207.796875 165.5 L 210 165.5 L 210 210 " fill-opacity="1" fill-rule="nonzero"/><g fill="#4e1a3d" fill-opacity="1"><g transform="translate(69.848053, 156.599987)"><g><path d="M 13.0625 -6.703125 C 13.0625 -5.335938 12.789062 -4.144531 12.25 -3.125 C 11.71875 -2.113281 10.960938 -1.335938 9.984375 -0.796875 C 9.003906 -0.265625 7.882812 0 6.625 0 L 1.28125 0 L 1.28125 -13.21875 L 6.0625 -13.21875 C 8.289062 -13.21875 10.015625 -12.65625 11.234375 -11.53125 C 12.453125 -10.40625 13.0625 -8.796875 13.0625 -6.703125 Z M 10.28125 -6.703125 C 10.28125 -8.117188 9.910156 -9.203125 9.171875 -9.953125 C 8.429688 -10.703125 7.378906 -11.078125 6.015625 -11.078125 L 4.046875 -11.078125 L 4.046875 -2.140625 L 6.390625 -2.140625 C 7.578125 -2.140625 8.519531 -2.546875 9.21875 -3.359375 C 9.925781 -4.179688 10.28125 -5.296875 10.28125 -6.703125 Z M 10.28125 -6.703125 "/></g></g></g><g fill="#4e1a3d" fill-opacity="1"><g transform="translate(87.553677, 156.599987)"><g><path d="M 3.3125 -8.421875 L 1.265625 -8.421875 L 1.015625 -13.21875 L 3.578125 -13.21875 Z M 3.3125 -8.421875 "/></g></g></g><g fill="#4e1a3d" fill-opacity="1"><g transform="translate(95.959301, 156.599987)"><g><path d="M 1.28125 0 L 1.28125 -13.21875 L 4.046875 -13.21875 L 4.046875 0 Z M 1.28125 0 "/></g></g></g><g fill="#4e1a3d" fill-opacity="1"><g transform="translate(105.133674, 156.599987)"><g><path d="M 9.328125 0 L 3.578125 -10.171875 C 3.679688 -9.179688 3.734375 -8.390625 3.734375 -7.796875 L 3.734375 0 L 1.28125 0 L 1.28125 -13.21875 L 4.4375 -13.21875 L 10.28125 -2.953125 C 10.175781 -3.898438 10.125 -4.757812 10.125 -5.53125 L 10.125 -13.21875 L 12.578125 -13.21875 L 12.578125 0 Z M 9.328125 0 "/></g></g></g><g fill="#4e1a3d" fill-opacity="1"><g transform="translate(122.839299, 156.599987)"><g><path d="M 7.25 -11.078125 L 7.25 0 L 4.484375 0 L 4.484375 -11.078125 L 0.21875 -11.078125 L 0.21875 -13.21875 L 11.53125 -13.21875 L 11.53125 -11.078125 Z M 7.25 -11.078125 "/></g></g></g><g fill="#4e1a3d" fill-opacity="1"><g transform="translate(138.407423, 156.599987)"><g><path d="M 1.28125 0 L 1.28125 -13.21875 L 11.671875 -13.21875 L 11.671875 -11.078125 L 4.046875 -11.078125 L 4.046875 -7.75 L 11.109375 -7.75 L 11.109375 -5.609375 L 4.046875 -5.609375 L 4.046875 -2.140625 L 12.0625 -2.140625 L 12.0625 0 Z M 4.84375 -14.34375 L 4.84375 -14.640625 L 7.203125 -17.015625 L 9.625 -17.015625 L 9.625 -16.609375 L 6.4375 -14.34375 Z M 4.84375 -14.34375 "/></g></g></g><g fill="#4e1a3d" fill-opacity="1"><g transform="translate(155.053668, 156.599987)"><g><path d="M 10.359375 0 L 7.296875 -5.015625 L 4.046875 -5.015625 L 4.046875 0 L 1.28125 0 L 1.28125 -13.21875 L 7.890625 -13.21875 C 9.460938 -13.21875 10.675781 -12.875 11.53125 -12.1875 C 12.382812 -11.507812 12.8125 -10.535156 12.8125 -9.265625 C 12.8125 -8.347656 12.550781 -7.550781 12.03125 -6.875 C 11.507812 -6.207031 10.800781 -5.765625 9.90625 -5.546875 L 13.46875 0 Z M 10.03125 -9.15625 C 10.03125 -10.425781 9.21875 -11.0625 7.59375 -11.0625 L 4.046875 -11.0625 L 4.046875 -7.15625 L 7.671875 -7.15625 C 8.441406 -7.15625 9.023438 -7.332031 9.421875 -7.6875 C 9.828125 -8.039062 10.03125 -8.53125 10.03125 -9.15625 Z M 10.03125 -9.15625 "/></g></g></g><g fill="#4e1a3d" fill-opacity="1"><g transform="translate(172.759288, 156.599987)"><g><path d="M 1.28125 0 L 1.28125 -13.21875 L 4.046875 -13.21875 L 4.046875 0 Z M 1.28125 0 "/></g></g></g><g fill="#4e1a3d" fill-opacity="1"><g transform="translate(181.933659, 156.599987)"><g><path d="M 1.28125 0 L 1.28125 -13.21875 L 11.671875 -13.21875 L 11.671875 -11.078125 L 4.046875 -11.078125 L 4.046875 -7.75 L 11.109375 -7.75 L 11.109375 -5.609375 L 4.046875 -5.609375 L 4.046875 -2.140625 L 12.0625 -2.140625 L 12.0625 0 Z M 1.28125 0 "/></g></g></g><g fill="#4e1a3d" fill-opacity="1"><g transform="translate(198.579904, 156.599987)"><g><path d="M 6.78125 0.1875 C 4.957031 0.1875 3.5625 -0.253906 2.59375 -1.140625 C 1.632812 -2.023438 1.15625 -3.296875 1.15625 -4.953125 L 1.15625 -13.21875 L 3.921875 -13.21875 L 3.921875 -5.171875 C 3.921875 -4.117188 4.164062 -3.320312 4.65625 -2.78125 C 5.15625 -2.25 5.890625 -1.984375 6.859375 -1.984375 C 7.835938 -1.984375 8.59375 -2.265625 9.125 -2.828125 C 9.664062 -3.390625 9.9375 -4.203125 9.9375 -5.265625 L 9.9375 -13.21875 L 12.703125 -13.21875 L 12.703125 -5.09375 C 12.703125 -3.414062 12.179688 -2.113281 11.140625 -1.1875 C 10.109375 -0.269531 8.65625 0.1875 6.78125 0.1875 Z M 6.78125 0.1875 "/></g></g></g><g fill="#4e1a3d" fill-opacity="1"><g transform="translate(216.285524, 156.599987)"><g><path d="M 10.359375 0 L 7.296875 -5.015625 L 4.046875 -5.015625 L 4.046875 0 L 1.28125 0 L 1.28125 -13.21875 L 7.890625 -13.21875 C 9.460938 -13.21875 10.675781 -12.875 11.53125 -12.1875 C 12.382812 -11.507812 12.8125 -10.535156 12.8125 -9.265625 C 12.8125 -8.347656 12.550781 -7.550781 12.03125 -6.875 C 11.507812 -6.207031 10.800781 -5.765625 9.90625 -5.546875 L 13.46875 0 Z M 10.03125 -9.15625 C 10.03125 -10.425781 9.21875 -11.0625 7.59375 -11.0625 L 4.046875 -11.0625 L 4.046875 -7.15625 L 7.671875 -7.15625 C 8.441406 -7.15625 9.023438 -7.332031 9.421875 -7.6875 C 9.828125 -8.039062 10.03125 -8.53125 10.03125 -9.15625 Z M 10.03125 -9.15625 "/></g></g></g><g fill="#4e1a3d" fill-opacity="1"><g transform="translate(105.328122, 173.831763)"><g><path d="M 6.53125 -3.34375 C 6.53125 -2.664062 6.394531 -2.070312 6.125 -1.5625 C 5.851562 -1.0625 5.472656 -0.675781 4.984375 -0.40625 C 4.503906 -0.132812 3.945312 0 3.3125 0 L 0.640625 0 L 0.640625 -6.59375 L 3.03125 -6.59375 C 4.144531 -6.59375 5.003906 -6.3125 5.609375 -5.75 C 6.222656 -5.195312 6.53125 -4.394531 6.53125 -3.34375 Z M 5.140625 -3.34375 C 5.140625 -4.050781 4.953125 -4.59375 4.578125 -4.96875 C 4.210938 -5.34375 3.6875 -5.53125 3 -5.53125 L 2.03125 -5.53125 L 2.03125 -1.0625 L 3.1875 -1.0625 C 3.78125 -1.0625 4.253906 -1.265625 4.609375 -1.671875 C 4.960938 -2.085938 5.140625 -2.644531 5.140625 -3.34375 Z M 5.140625 -3.34375 "/></g></g></g><g fill="#4e1a3d" fill-opacity="1"><g transform="translate(114.660934, 173.831763)"><g><path d="M 0.640625 0 L 0.640625 -6.59375 L 5.828125 -6.59375 L 5.828125 -5.53125 L 2.03125 -5.53125 L 2.03125 -3.875 L 5.546875 -3.875 L 5.546875 -2.8125 L 2.03125 -2.8125 L 2.03125 -1.0625 L 6.03125 -1.0625 L 6.03125 0 Z M 2.421875 -7.171875 L 2.421875 -7.3125 L 3.609375 -8.5 L 4.8125 -8.5 L 4.8125 -8.296875 L 3.21875 -7.171875 Z M 2.421875 -7.171875 "/></g></g></g><g fill="#4e1a3d" fill-opacity="1"><g transform="translate(123.464058, 173.831763)"><g><path d="M 3.71875 -1 C 4.550781 -1 5.132812 -1.414062 5.46875 -2.25 L 6.671875 -1.796875 C 6.410156 -1.160156 6.03125 -0.6875 5.53125 -0.375 C 5.03125 -0.0625 4.425781 0.09375 3.71875 0.09375 C 2.65625 0.09375 1.832031 -0.203125 1.25 -0.796875 C 0.675781 -1.398438 0.390625 -2.242188 0.390625 -3.328125 C 0.390625 -4.410156 0.671875 -5.242188 1.234375 -5.828125 C 1.796875 -6.410156 2.601562 -6.703125 3.65625 -6.703125 C 4.4375 -6.703125 5.066406 -6.546875 5.546875 -6.234375 C 6.035156 -5.921875 6.378906 -5.460938 6.578125 -4.859375 L 5.359375 -4.53125 C 5.253906 -4.863281 5.050781 -5.125 4.75 -5.3125 C 4.457031 -5.507812 4.101562 -5.609375 3.6875 -5.609375 C 3.0625 -5.609375 2.585938 -5.414062 2.265625 -5.03125 C 1.941406 -4.644531 1.78125 -4.078125 1.78125 -3.328125 C 1.78125 -2.566406 1.945312 -1.988281 2.28125 -1.59375 C 2.613281 -1.195312 3.09375 -1 3.71875 -1 Z M 3.71875 -1 "/></g></g></g><g fill="#4e1a3d" fill-opacity="1"><g transform="translate(132.79687, 173.831763)"><g><path d="M 7.0625 -3.328125 C 7.0625 -2.640625 6.925781 -2.035156 6.65625 -1.515625 C 6.382812 -0.992188 5.992188 -0.59375 5.484375 -0.3125 C 4.984375 -0.0390625 4.394531 0.09375 3.71875 0.09375 C 2.675781 0.09375 1.859375 -0.207031 1.265625 -0.8125 C 0.679688 -1.425781 0.390625 -2.265625 0.390625 -3.328125 C 0.390625 -4.390625 0.679688 -5.21875 1.265625 -5.8125 C 1.859375 -6.40625 2.675781 -6.703125 3.71875 -6.703125 C 4.769531 -6.703125 5.585938 -6.398438 6.171875 -5.796875 C 6.765625 -5.203125 7.0625 -4.378906 7.0625 -3.328125 Z M 5.65625 -3.328125 C 5.65625 -4.046875 5.484375 -4.601562 5.140625 -5 C 4.804688 -5.40625 4.332031 -5.609375 3.71875 -5.609375 C 3.101562 -5.609375 2.625 -5.40625 2.28125 -5 C 1.945312 -4.601562 1.78125 -4.046875 1.78125 -3.328125 C 1.78125 -2.609375 1.953125 -2.039062 2.296875 -1.625 C 2.640625 -1.207031 3.113281 -1 3.71875 -1 C 4.332031 -1 4.804688 -1.203125 5.140625 -1.609375 C 5.484375 -2.015625 5.65625 -2.585938 5.65625 -3.328125 Z M 5.65625 -3.328125 "/></g></g></g><g fill="#4e1a3d" fill-opacity="1"><g transform="translate(142.664057, 173.831763)"><g><path d="M 5.171875 0 L 3.640625 -2.5 L 2.03125 -2.5 L 2.03125 0 L 0.640625 0 L 0.640625 -6.59375 L 3.9375 -6.59375 C 4.726562 -6.59375 5.335938 -6.421875 5.765625 -6.078125 C 6.191406 -5.742188 6.40625 -5.265625 6.40625 -4.640625 C 6.40625 -4.171875 6.269531 -3.769531 6 -3.4375 C 5.738281 -3.101562 5.390625 -2.878906 4.953125 -2.765625 L 6.734375 0 Z M 5.015625 -4.578125 C 5.015625 -5.210938 4.609375 -5.53125 3.796875 -5.53125 L 2.03125 -5.53125 L 2.03125 -3.578125 L 3.828125 -3.578125 C 4.210938 -3.578125 4.503906 -3.664062 4.703125 -3.84375 C 4.910156 -4.019531 5.015625 -4.265625 5.015625 -4.578125 Z M 5.015625 -4.578125 "/></g></g></g><g fill="#4e1a3d" fill-opacity="1"><g transform="translate(151.996869, 173.831763)"><g><path d="M 5.3125 0 L 4.71875 -1.6875 L 2.203125 -1.6875 L 1.625 0 L 0.234375 0 L 2.640625 -6.59375 L 4.28125 -6.59375 L 6.671875 0 Z M 3.46875 -5.578125 L 3.4375 -5.484375 C 3.40625 -5.367188 3.363281 -5.238281 3.3125 -5.09375 C 3.269531 -4.945312 3.003906 -4.15625 2.515625 -2.71875 L 4.40625 -2.71875 L 3.765625 -4.625 L 3.5625 -5.265625 Z M 3.46875 -5.578125 "/></g></g></g><g fill="#4e1a3d" fill-opacity="1"><g transform="translate(161.32968, 173.831763)"><g><path d="M 3.625 -5.53125 L 3.625 0 L 2.234375 0 L 2.234375 -5.53125 L 0.109375 -5.53125 L 0.109375 -6.59375 L 5.75 -6.59375 L 5.75 -5.53125 Z M 3.625 -5.53125 "/></g></g></g><g fill="#4e1a3d" fill-opacity="1"><g transform="translate(169.593742, 173.831763)"><g><path d="M 0.640625 0 L 0.640625 -6.59375 L 5.828125 -6.59375 L 5.828125 -5.53125 L 2.03125 -5.53125 L 2.03125 -3.875 L 5.546875 -3.875 L 5.546875 -2.8125 L 2.03125 -2.8125 L 2.03125 -1.0625 L 6.03125 -1.0625 L 6.03125 0 Z M 0.640625 0 "/></g></g></g><g fill="#4e1a3d" fill-opacity="1"><g transform="translate(178.396866, 173.831763)"><g><path d="M 3.390625 0.09375 C 2.484375 0.09375 1.785156 -0.125 1.296875 -0.5625 C 0.816406 -1.007812 0.578125 -1.644531 0.578125 -2.46875 L 0.578125 -6.59375 L 1.953125 -6.59375 L 1.953125 -2.578125 C 1.953125 -2.054688 2.078125 -1.660156 2.328125 -1.390625 C 2.578125 -1.117188 2.941406 -0.984375 3.421875 -0.984375 C 3.921875 -0.984375 4.300781 -1.125 4.5625 -1.40625 C 4.820312 -1.695312 4.953125 -2.101562 4.953125 -2.625 L 4.953125 -6.59375 L 6.34375 -6.59375 L 6.34375 -2.546875 C 6.34375 -1.703125 6.082031 -1.050781 5.5625 -0.59375 C 5.050781 -0.132812 4.328125 0.09375 3.390625 0.09375 Z M 3.390625 0.09375 "/></g></g></g><g fill="#4e1a3d" fill-opacity="1"><g transform="translate(187.729678, 173.831763)"><g><path d="M 5.171875 0 L 3.640625 -2.5 L 2.03125 -2.5 L 2.03125 0 L 0.640625 0 L 0.640625 -6.59375 L 3.9375 -6.59375 C 4.726562 -6.59375 5.335938 -6.421875 5.765625 -6.078125 C 6.191406 -5.742188 6.40625 -5.265625 6.40625 -4.640625 C 6.40625 -4.171875 6.269531 -3.769531 6 -3.4375 C 5.738281 -3.101562 5.390625 -2.878906 4.953125 -2.765625 L 6.734375 0 Z M 5.015625 -4.578125 C 5.015625 -5.210938 4.609375 -5.53125 3.796875 -5.53125 L 2.03125 -5.53125 L 2.03125 -3.578125 L 3.828125 -3.578125 C 4.210938 -3.578125 4.503906 -3.664062 4.703125 -3.84375 C 4.910156 -4.019531 5.015625 -4.265625 5.015625 -4.578125 Z M 5.015625 -4.578125 "/></g></g></g></svg>