<svg xmlns="http://www.w3.org/2000/svg" xmlns:xlink="http://www.w3.org/1999/xlink" width="400" zoomAndPan="magnify" viewBox="0 0 300 299.999988" height="400" preserveAspectRatio="xMidYMid meet" version="1.0"><defs><g/><clipPath id="0cc271a554"><path d="M 175.519531 68.902344 L 192.410156 68.902344 L 192.410156 85.796875 L 175.519531 85.796875 Z M 175.519531 68.902344 " clip-rule="nonzero"/></clipPath><clipPath id="f33e24cebf"><path d="M 183.964844 68.902344 C 179.300781 68.902344 175.519531 72.683594 175.519531 77.351562 C 175.519531 82.015625 179.300781 85.796875 183.964844 85.796875 C 188.628906 85.796875 192.410156 82.015625 192.410156 77.351562 C 192.410156 72.683594 188.628906 68.902344 183.964844 68.902344 " clip-rule="nonzero"/></clipPath><clipPath id="8a01411b80"><path d="M 123.015625 82.664062 L 183.964844 82.664062 L 183.964844 143.617188 L 123.015625 143.617188 Z M 123.015625 82.664062 " clip-rule="nonzero"/></clipPath><clipPath id="ba21f4fee1"><path d="M 153.492188 82.664062 C 136.660156 82.664062 123.015625 96.308594 123.015625 113.140625 C 123.015625 129.972656 136.660156 143.617188 153.492188 143.617188 C 170.320312 143.617188 183.964844 129.972656 183.964844 113.140625 C 183.964844 96.308594 170.320312 82.664062 153.492188 82.664062 " clip-rule="nonzero"/></clipPath><clipPath id="bdfca8c7cd"><path d="M 134.914062 94.5625 L 172.070312 94.5625 L 172.070312 131.71875 L 134.914062 131.71875 Z M 134.914062 94.5625 " clip-rule="nonzero"/></clipPath><clipPath id="c851530605"><path d="M 153.492188 94.5625 C 143.230469 94.5625 134.914062 102.878906 134.914062 113.140625 C 134.914062 123.402344 143.230469 131.71875 153.492188 131.71875 C 163.75 131.71875 172.070312 123.402344 172.070312 113.140625 C 172.070312 102.878906 163.75 94.5625 153.492188 94.5625 " clip-rule="nonzero"/></clipPath><clipPath id="68e3124374"><path d="M 132.976562 155.136719 L 190.777344 155.136719 L 190.777344 193.671875 L 132.976562 193.671875 Z M 132.976562 155.136719 " clip-rule="nonzero"/></clipPath><clipPath id="8a9dc5bfd9"><path d="M 123.015625 155.222656 L 146.136719 155.222656 L 146.136719 166.785156 L 123.015625 166.785156 Z M 123.015625 155.222656 " clip-rule="nonzero"/></clipPath></defs><rect x="-30" width="360" fill="#ffffff" y="-29.999999" height="359.999986" fill-opacity="1"/><rect x="-30" width="360" fill="#ffffff" y="-29.999999" height="359.999986" fill-opacity="1"/><rect x="-30" width="360" fill="#edeae9" y="-29.999999" height="359.999986" fill-opacity="1"/><g clip-path="url(#0cc271a554)"><g clip-path="url(#f33e24cebf)"><path fill="#000000" d="M 175.519531 68.902344 L 192.410156 68.902344 L 192.410156 85.796875 L 175.519531 85.796875 Z M 175.519531 68.902344 " fill-opacity="1" fill-rule="nonzero"/></g></g><g clip-path="url(#8a01411b80)"><g clip-path="url(#ba21f4fee1)"><path fill="#000000" d="M 123.015625 82.664062 L 183.964844 82.664062 L 183.964844 143.617188 L 123.015625 143.617188 Z M 123.015625 82.664062 " fill-opacity="1" fill-rule="nonzero"/></g></g><g clip-path="url(#bdfca8c7cd)"><g clip-path="url(#c851530605)"><path fill="#edeae9" d="M 134.914062 94.5625 L 172.070312 94.5625 L 172.070312 131.71875 L 134.914062 131.71875 Z M 134.914062 94.5625 " fill-opacity="1" fill-rule="nonzero"/></g></g><g clip-path="url(#68e3124374)"><path fill="#000000" d="M 132.996094 156.421875 L 132.996094 165.414062 C 132.996094 166.125 133.570312 166.699219 134.277344 166.699219 L 172.519531 166.699219 C 176.683594 166.699219 180.320312 169.890625 180.484375 174.058594 C 180.65625 178.472656 177.160156 182.113281 172.789062 182.113281 C 172.082031 182.113281 171.503906 182.6875 171.503906 183.398438 L 171.503906 192.386719 C 171.503906 193.105469 172.097656 193.675781 172.816406 193.671875 C 182.710938 193.660156 190.761719 185.019531 190.761719 174.40625 C 190.761719 163.78125 182.699219 155.136719 172.789062 155.136719 L 134.277344 155.136719 C 133.570312 155.136719 132.996094 155.714844 132.996094 156.421875 Z M 132.996094 156.421875 " fill-opacity="1" fill-rule="nonzero"/></g><g clip-path="url(#8a9dc5bfd9)"><path fill="#000000" d="M 146.128906 155.222656 C 146.128906 161.609375 140.953125 166.785156 134.566406 166.785156 C 128.179688 166.785156 123.027344 161.609375 123.027344 155.222656 Z M 146.128906 155.222656 " fill-opacity="1" fill-rule="nonzero"/></g><g fill="#000000" fill-opacity="1"><g transform="translate(126.708834, 192.528118)"><g><path d="M 11.09375 -10.625 C 11.09375 -9.9375 10.914062 -9.40625 10.5625 -9.03125 C 10.21875 -8.664062 9.703125 -8.390625 9.015625 -8.203125 C 9.347656 -7.953125 9.601562 -7.660156 9.78125 -7.328125 C 9.96875 -6.992188 10.0625 -6.640625 10.0625 -6.265625 C 10.0625 -5.316406 9.703125 -4.597656 8.984375 -4.109375 C 8.273438 -3.628906 7.382812 -3.390625 6.3125 -3.390625 L 5.015625 -3.390625 C 4.304688 -3.390625 3.953125 -3.226562 3.953125 -2.90625 C 3.953125 -2.738281 4.03125 -2.609375 4.1875 -2.515625 C 4.34375 -2.421875 4.617188 -2.375 5.015625 -2.375 L 8.0625 -2.375 C 9.0625 -2.375 9.816406 -2.113281 10.328125 -1.59375 C 10.835938 -1.070312 11.09375 -0.378906 11.09375 0.484375 C 11.09375 1.128906 10.921875 1.679688 10.578125 2.140625 C 10.234375 2.609375 9.773438 2.960938 9.203125 3.203125 C 8.628906 3.441406 8.003906 3.5625 7.328125 3.5625 L 2.34375 3.5625 C 1.9375 3.5625 1.554688 3.460938 1.203125 3.265625 C 0.859375 3.078125 0.582031 2.816406 0.375 2.484375 C 0.175781 2.148438 0.078125 1.78125 0.078125 1.375 C 0.078125 0.9375 0.210938 0.535156 0.484375 0.171875 C 0.765625 -0.179688 1.109375 -0.445312 1.515625 -0.625 C 1.242188 -0.820312 1.023438 -1.054688 0.859375 -1.328125 C 0.703125 -1.597656 0.625 -1.890625 0.625 -2.203125 C 0.625 -2.640625 0.785156 -3.035156 1.109375 -3.390625 C 1.441406 -3.753906 1.851562 -4 2.34375 -4.125 C 1.894531 -4.40625 1.539062 -4.726562 1.28125 -5.09375 C 1.03125 -5.457031 0.90625 -5.84375 0.90625 -6.25 C 0.90625 -7.289062 1.320312 -8.035156 2.15625 -8.484375 C 3 -8.929688 4.117188 -9.15625 5.515625 -9.15625 C 6.117188 -9.15625 6.609375 -9.117188 6.984375 -9.046875 C 7.535156 -9.398438 7.894531 -9.71875 8.0625 -10 C 8.226562 -10.289062 8.3125 -10.5 8.3125 -10.625 Z M 5.46875 -7.390625 C 5.101562 -7.390625 4.800781 -7.289062 4.5625 -7.09375 C 4.320312 -6.90625 4.203125 -6.628906 4.203125 -6.265625 C 4.203125 -5.898438 4.3125 -5.625 4.53125 -5.4375 C 4.75 -5.25 5.0625 -5.15625 5.46875 -5.15625 C 5.882812 -5.15625 6.207031 -5.25 6.4375 -5.4375 C 6.664062 -5.625 6.78125 -5.898438 6.78125 -6.265625 C 6.78125 -6.640625 6.664062 -6.921875 6.4375 -7.109375 C 6.207031 -7.296875 5.882812 -7.390625 5.46875 -7.390625 Z M 4.171875 0 C 3.910156 0 3.695312 0.0664062 3.53125 0.203125 C 3.363281 0.347656 3.28125 0.550781 3.28125 0.8125 C 3.28125 1.070312 3.363281 1.28125 3.53125 1.4375 C 3.707031 1.59375 3.921875 1.671875 4.171875 1.671875 L 6.8125 1.671875 C 7.0625 1.671875 7.273438 1.59375 7.453125 1.4375 C 7.628906 1.289062 7.71875 1.085938 7.71875 0.828125 C 7.71875 0.566406 7.628906 0.363281 7.453125 0.21875 C 7.285156 0.0703125 7.070312 0 6.8125 0 Z M 4.171875 0 "/></g></g></g><g fill="#000000" fill-opacity="1"><g transform="translate(138.013962, 192.528118)"><g><path d="M 5.640625 -9.15625 C 7.210938 -9.15625 8.445312 -8.753906 9.34375 -7.953125 C 10.25 -7.160156 10.703125 -6 10.703125 -4.46875 C 10.703125 -2.945312 10.25 -1.785156 9.34375 -0.984375 C 8.445312 -0.191406 7.210938 0.203125 5.640625 0.203125 C 4.066406 0.203125 2.832031 -0.191406 1.9375 -0.984375 C 1.050781 -1.773438 0.609375 -2.9375 0.609375 -4.46875 C 0.609375 -6.007812 1.050781 -7.175781 1.9375 -7.96875 C 2.832031 -8.757812 4.066406 -9.15625 5.640625 -9.15625 Z M 5.640625 -6.859375 C 4.535156 -6.859375 3.984375 -6.222656 3.984375 -4.953125 L 3.984375 -3.984375 C 3.984375 -2.710938 4.535156 -2.078125 5.640625 -2.078125 C 6.765625 -2.078125 7.328125 -2.710938 7.328125 -3.984375 L 7.328125 -4.953125 C 7.328125 -6.222656 6.765625 -6.859375 5.640625 -6.859375 Z M 5.640625 -6.859375 "/></g></g></g><g fill="#000000" fill-opacity="1"><g transform="translate(149.31909, 192.528118)"><g><path d="M 1.140625 -10 L 1.140625 -12.296875 L 4.515625 -12.296875 L 4.515625 -10 Z M 4.515625 0.484375 C 4.515625 1.578125 4.265625 2.363281 3.765625 2.84375 C 3.273438 3.320312 2.488281 3.5625 1.40625 3.5625 C 1.113281 3.5625 0.75 3.53125 0.3125 3.46875 C -0.113281 3.414062 -0.445312 3.34375 -0.6875 3.25 L -0.6875 1.234375 L 0.1875 1.234375 C 0.820312 1.234375 1.140625 0.875 1.140625 0.15625 L 1.140625 -8.953125 L 4.515625 -8.953125 Z M 4.515625 0.484375 "/></g></g></g><g fill="#000000" fill-opacity="1"><g transform="translate(154.963176, 192.528118)"><g><path d="M 5.640625 -9.15625 C 7.210938 -9.15625 8.445312 -8.753906 9.34375 -7.953125 C 10.25 -7.160156 10.703125 -6 10.703125 -4.46875 C 10.703125 -2.945312 10.25 -1.785156 9.34375 -0.984375 C 8.445312 -0.191406 7.210938 0.203125 5.640625 0.203125 C 4.066406 0.203125 2.832031 -0.191406 1.9375 -0.984375 C 1.050781 -1.773438 0.609375 -2.9375 0.609375 -4.46875 C 0.609375 -6.007812 1.050781 -7.175781 1.9375 -7.96875 C 2.832031 -8.757812 4.066406 -9.15625 5.640625 -9.15625 Z M 5.640625 -6.859375 C 4.535156 -6.859375 3.984375 -6.222656 3.984375 -4.953125 L 3.984375 -3.984375 C 3.984375 -2.710938 4.535156 -2.078125 5.640625 -2.078125 C 6.765625 -2.078125 7.328125 -2.710938 7.328125 -3.984375 L 7.328125 -4.953125 C 7.328125 -6.222656 6.765625 -6.859375 5.640625 -6.859375 Z M 5.640625 -6.859375 "/></g></g></g></svg>