<svg xmlns="http://www.w3.org/2000/svg" xmlns:xlink="http://www.w3.org/1999/xlink" width="400" zoomAndPan="magnify" viewBox="0 0 300 299.999988" height="400" preserveAspectRatio="xMidYMid meet" version="1.0"><defs><g/><clipPath id="a9dcd31a6c"><path d="M 85 152 L 111 152 L 111 170.234375 L 85 170.234375 Z M 85 152 " clip-rule="nonzero"/></clipPath><clipPath id="f947b89e02"><path d="M 189 152 L 215 152 L 215 170.234375 L 189 170.234375 Z M 189 152 " clip-rule="nonzero"/></clipPath><clipPath id="fcb0a681cf"><path d="M 86 89.234375 L 214 89.234375 L 214 142 L 86 142 Z M 86 89.234375 " clip-rule="nonzero"/></clipPath><clipPath id="cf963710a8"><path d="M 84.238281 123 L 215.488281 123 L 215.488281 168 L 84.238281 168 Z M 84.238281 123 " clip-rule="nonzero"/></clipPath></defs><rect x="-30" width="360" fill="#ffffff" y="-29.999999" height="359.999986" fill-opacity="1"/><rect x="-30" width="360" fill="#ffffff" y="-29.999999" height="359.999986" fill-opacity="1"/><rect x="-30" width="360" fill="#0a131e" y="-29.999999" height="359.999986" fill-opacity="1"/><path fill="#59e1ff" d="M 94.28125 138.273438 C 99.511719 140.257812 107.460938 141.550781 109.972656 141.699219 C 112.480469 141.847656 113.03125 141.25 113.03125 141.25 C 104.9375 139.710938 89.632812 134.101562 89.632812 134.101562 C 89.632812 134.101562 89.042969 136.289062 94.28125 138.273438 Z M 94.28125 138.273438 " fill-opacity="1" fill-rule="nonzero"/><path fill="#59e1ff" d="M 210.089844 134.105469 C 210.089844 134.105469 194.785156 139.714844 186.6875 141.253906 C 186.6875 141.253906 187.234375 141.847656 189.75 141.699219 C 192.269531 141.554688 200.210938 140.261719 205.441406 138.277344 C 210.671875 136.292969 210.089844 134.105469 210.089844 134.105469 Z M 210.089844 134.105469 " fill-opacity="1" fill-rule="nonzero"/><g clip-path="url(#a9dcd31a6c)"><path fill="#fafafa" d="M 85.441406 152.121094 L 85.789062 166.292969 C 85.792969 166.816406 85.890625 167.316406 86.089844 167.800781 C 86.289062 168.28125 86.574219 168.707031 86.941406 169.078125 C 87.308594 169.449219 87.730469 169.734375 88.210938 169.933594 C 88.691406 170.132812 89.191406 170.234375 89.710938 170.234375 L 105.824219 170.234375 C 106.105469 170.234375 106.378906 170.207031 106.652344 170.152344 C 106.925781 170.097656 107.191406 170.015625 107.449219 169.910156 C 107.707031 169.800781 107.953125 169.671875 108.183594 169.515625 C 108.414062 169.359375 108.628906 169.183594 108.828125 168.984375 C 109.023438 168.785156 109.199219 168.570312 109.355469 168.335938 C 109.511719 168.105469 109.640625 167.859375 109.746094 167.601562 C 109.855469 167.339844 109.933594 167.074219 109.988281 166.800781 C 110.042969 166.523438 110.070312 166.246094 110.070312 165.964844 C 110.070312 165.964844 99.015625 164.484375 92.152344 161.554688 C 86.710938 159.230469 85.441406 152.121094 85.441406 152.121094 Z M 85.441406 152.121094 " fill-opacity="1" fill-rule="nonzero"/></g><g clip-path="url(#f947b89e02)"><path fill="#fafafa" d="M 207.574219 161.554688 C 200.710938 164.484375 189.65625 165.972656 189.65625 165.972656 C 189.65625 166.253906 189.683594 166.53125 189.738281 166.804688 C 189.792969 167.078125 189.875 167.34375 189.980469 167.601562 C 190.085938 167.863281 190.21875 168.109375 190.371094 168.339844 C 190.527344 168.574219 190.703125 168.789062 190.902344 168.984375 C 191.097656 169.183594 191.3125 169.359375 191.542969 169.515625 C 191.773438 169.671875 192.019531 169.804688 192.277344 169.910156 C 192.53125 170.019531 192.796875 170.097656 193.070312 170.152344 C 193.34375 170.207031 193.621094 170.234375 193.898438 170.234375 L 210.015625 170.234375 C 210.539062 170.234375 211.039062 170.136719 211.519531 169.933594 C 212 169.734375 212.425781 169.449219 212.792969 169.078125 C 213.164062 168.710938 213.445312 168.28125 213.644531 167.796875 C 213.84375 167.316406 213.945312 166.8125 213.945312 166.289062 L 214.289062 152.117188 C 214.289062 152.117188 213.011719 159.230469 207.574219 161.554688 Z M 207.574219 161.554688 " fill-opacity="1" fill-rule="nonzero"/></g><path fill="#fafafa" d="M 149.863281 159.515625 C 135.707031 159.746094 123.503906 155.644531 123.503906 155.644531 C 133.789062 161.207031 149.863281 161.171875 149.863281 161.171875 C 149.863281 161.171875 165.929688 161.207031 176.222656 155.644531 C 176.222656 155.648438 164.417969 159.664062 149.863281 159.515625 Z M 149.863281 159.515625 " fill-opacity="1" fill-rule="nonzero"/><path fill="#fafafa" d="M 171.484375 151.828125 C 164.179688 154.4375 149.863281 154.527344 149.863281 154.527344 C 149.863281 154.527344 135.542969 154.4375 128.242188 151.820312 C 121.542969 149.417969 116.296875 144.03125 116.296875 144.03125 C 116.296875 144.03125 121.527344 150.582031 127.75 153.167969 C 133.972656 155.75 149.863281 156.042969 149.863281 156.042969 C 149.863281 156.042969 165.757812 155.746094 171.976562 153.167969 C 178.199219 150.585938 183.429688 144.03125 183.429688 144.03125 C 183.429688 144.03125 178.183594 149.417969 171.484375 151.828125 Z M 171.484375 151.828125 " fill-opacity="1" fill-rule="nonzero"/><path fill="#fafafa" d="M 149.863281 151.460938 C 149.863281 151.460938 165.757812 151.160156 171.976562 148.582031 C 175.644531 147.058594 178.96875 144.15625 181.082031 142.03125 C 180.804688 142.089844 180.4375 142.160156 180.289062 142.195312 C 178.121094 143.890625 175.003906 145.980469 171.484375 147.242188 C 164.183594 149.855469 149.863281 149.941406 149.863281 149.941406 C 149.863281 149.941406 135.546875 149.855469 128.242188 147.234375 C 124.722656 145.976562 121.601562 143.890625 119.4375 142.195312 C 119.171875 142.148438 118.910156 142.09375 118.644531 142.03125 C 120.757812 144.160156 124.078125 147.058594 127.746094 148.582031 C 133.972656 151.164062 149.863281 151.460938 149.863281 151.460938 Z M 149.863281 151.460938 " fill-opacity="1" fill-rule="nonzero"/><g clip-path="url(#fcb0a681cf)"><path fill="#fafafa" d="M 93.289062 128.59375 C 98.917969 131.398438 120.789062 141.304688 149.863281 141.253906 C 178.941406 141.300781 200.808594 131.398438 206.4375 128.59375 C 211.640625 126 213.839844 123.378906 212.804688 120.402344 C 211.765625 117.425781 204.066406 113.253906 204.066406 113.253906 C 204.066406 113.253906 203.175781 112.359375 196.070312 112.066406 C 196.070312 112.066406 195.871094 111.726562 195.523438 111.152344 C 196.273438 111.273438 197.003906 111.453125 197.722656 111.691406 C 202.683594 113.253906 208.683594 110.722656 208.164062 108.117188 C 207.648438 105.511719 201.648438 104.46875 198.910156 104.992188 C 196.171875 105.511719 196.09375 108.789062 196.09375 108.789062 L 194.074219 108.789062 C 191.503906 104.664062 186.949219 97.726562 183.53125 94.496094 C 178.496094 89.726562 173.65625 89.527344 149.863281 89.234375 C 126.070312 89.535156 121.230469 89.734375 116.195312 94.496094 C 112.777344 97.730469 108.226562 104.664062 105.652344 108.792969 L 103.632812 108.792969 C 103.632812 108.792969 103.558594 105.515625 100.816406 104.996094 C 98.078125 104.472656 92.082031 105.519531 91.5625 108.121094 C 91.042969 110.722656 97.042969 113.257812 102.007812 111.695312 C 102.722656 111.457031 103.457031 111.273438 104.203125 111.15625 C 103.855469 111.730469 103.660156 112.070312 103.660156 112.070312 C 96.554688 112.359375 95.664062 113.253906 95.660156 113.253906 C 95.660156 113.253906 87.964844 117.425781 86.921875 120.402344 C 85.875 123.382812 88.085938 126 93.289062 128.59375 Z M 117.230469 118.164062 C 117.449219 120.546875 118.632812 127.25 118.632812 127.25 L 114.710938 114.886719 L 119.746094 114.886719 C 119.746094 114.886719 117.003906 115.785156 117.230469 118.164062 Z M 149.863281 139.90625 C 149.863281 139.90625 134.757812 138.949219 123.207031 135.035156 C 123.207031 135.035156 140.828125 137.074219 149.863281 136.625 C 158.894531 137.074219 176.519531 135.035156 176.519531 135.035156 C 164.96875 138.957031 149.863281 139.90625 149.863281 139.90625 Z M 182.222656 127.246094 C 182.222656 127.246094 183.40625 120.546875 183.628906 118.164062 C 183.851562 115.78125 181.109375 114.886719 181.109375 114.886719 L 186.148438 114.886719 Z M 119.945312 94.433594 C 124.164062 91.804688 130.027344 91.175781 149.863281 91.175781 C 167.980469 91.175781 176.085938 91.746094 179.703125 94.375 C 184.757812 97.355469 189.679688 106.511719 194.054688 113.460938 L 149.863281 114.449219 L 105.828125 113.460938 C 110.199219 106.511719 114.886719 97.421875 119.945312 94.433594 Z M 119.945312 94.433594 " fill-opacity="1" fill-rule="nonzero"/></g><g clip-path="url(#cf963710a8)"><path fill="#fafafa" d="M 213.714844 123.539062 C 213.320312 127.585938 207.84375 129.828125 193.625 135.039062 C 174.558594 142.035156 149.859375 142.292969 149.859375 142.292969 C 149.859375 142.292969 125.167969 142.035156 106.097656 135.039062 C 91.882812 129.828125 86.410156 127.585938 86.011719 123.539062 C 86.011719 123.539062 84.257812 125.800781 84.503906 134.304688 C 84.773438 143.636719 84.800781 155.449219 91.613281 159.816406 C 96.679688 163.070312 113.773438 165.769531 122.433594 165.789062 C 122.4375 165.789062 122.441406 165.792969 122.445312 165.792969 C 151.488281 169.332031 177.382812 165.792969 177.382812 165.792969 C 186.070312 165.75 203.0625 163.054688 208.117188 159.816406 C 214.941406 155.449219 214.957031 143.632812 215.226562 134.300781 C 215.46875 125.800781 213.714844 123.539062 213.714844 123.539062 Z M 213.070312 134.203125 C 211.8125 135.492188 212.261719 135.988281 210.484375 144.925781 C 208.703125 153.863281 190.738281 155.347656 190.738281 155.347656 C 194.292969 147.507812 201.296875 140.855469 201.296875 140.855469 C 187.648438 146.472656 176.648438 156.828125 173.25 162.058594 C 169.148438 162.765625 161.914062 163.640625 151.1875 163.640625 C 137.570312 163.640625 129.136719 161.765625 125.535156 160.738281 C 121.332031 155.234375 111.003906 146.035156 98.429688 140.855469 C 98.429688 140.855469 105.4375 147.507812 108.992188 155.347656 C 108.992188 155.347656 91.023438 153.859375 89.246094 144.925781 C 87.46875 135.992188 87.917969 135.492188 86.65625 134.203125 C 86.308594 132.878906 86.144531 131.527344 86.171875 130.15625 C 86.171875 130.15625 102.773438 142.839844 149.863281 143.683594 C 196.949219 142.839844 213.554688 130.15625 213.554688 130.15625 C 213.582031 131.527344 213.421875 132.875 213.070312 134.203125 Z M 213.070312 134.203125 " fill-opacity="1" fill-rule="nonzero"/></g><g fill="#fafafa" fill-opacity="1"><g transform="translate(62.671876, 200.797455)"><g><path d="M 16.53125 0 L 23.320312 0 L 23.320312 -23.519531 L 16.53125 -23.519531 L 16.53125 -15.085938 L 9.273438 -15.085938 L 9.273438 -23.519531 L 2.488281 -23.519531 L 2.488281 0 L 9.273438 0 L 9.273438 -8.835938 L 16.53125 -8.835938 Z M 16.53125 0 "/></g></g></g><g fill="#fafafa" fill-opacity="1"><g transform="translate(88.476671, 200.797455)"><g><path d="M 0.167969 0 L 7.359375 0 L 8.636719 -3.328125 L 16.664062 -3.328125 L 17.941406 0 L 25.167969 0 L 16.027344 -23.519531 L 9.308594 -23.519531 Z M 10.046875 -8.300781 L 12.667969 -15.589844 L 15.289062 -8.300781 Z M 10.046875 -8.300781 "/></g></g></g><g fill="#fafafa" fill-opacity="1"><g transform="translate(113.811069, 200.797455)"><g><path d="M 2.488281 0 L 9.207031 0 L 9.207031 -11.996094 L 18.144531 0 L 23.65625 0 L 23.65625 -23.519531 L 16.96875 -23.519531 L 16.96875 -11.59375 L 8.03125 -23.519531 L 2.488281 -23.519531 Z M 2.488281 0 "/></g></g></g><g fill="#fafafa" fill-opacity="1"><g transform="translate(139.985462, 200.797455)"><g><path d="M 13.945312 0.503906 C 21.4375 0.503906 26.746094 -4.570312 26.746094 -11.761719 C 26.746094 -18.949219 21.4375 -24.023438 13.945312 -24.023438 C 6.453125 -24.023438 1.140625 -18.949219 1.140625 -11.761719 C 1.140625 -4.570312 6.453125 0.503906 13.945312 0.503906 Z M 8.03125 -11.761719 C 8.03125 -15.289062 10.484375 -17.742188 13.945312 -17.742188 C 17.4375 -17.742188 19.859375 -15.289062 19.859375 -11.761719 C 19.859375 -8.230469 17.4375 -5.777344 13.945312 -5.777344 C 10.484375 -5.777344 8.03125 -8.230469 8.03125 -11.761719 Z M 8.03125 -11.761719 "/></g></g></g><g fill="#fafafa" fill-opacity="1"><g transform="translate(167.907057, 200.797455)"><g><path d="M 9.003906 0 L 15.726562 0 L 24.5625 -23.519531 L 17.335938 -23.519531 L 14.582031 -15.757812 L 12.398438 -9.644531 L 10.214844 -15.757812 L 7.460938 -23.519531 L 0.167969 -23.519531 Z M 9.003906 0 "/></g></g></g><g fill="#fafafa" fill-opacity="1"><g transform="translate(192.636657, 200.797455)"><g><path d="M 2.488281 0 L 18.984375 0 L 18.984375 -5.542969 L 9.207031 -5.542969 L 9.207031 -9.171875 L 17.707031 -9.171875 L 17.707031 -14.617188 L 9.207031 -14.617188 L 9.207031 -18.042969 L 18.613281 -18.042969 L 18.613281 -23.519531 L 2.488281 -23.519531 Z M 2.488281 0 "/></g></g></g><g fill="#fafafa" fill-opacity="1"><g transform="translate(213.132658, 200.797455)"><g><path d="M 2.488281 0 L 9.273438 0 L 9.273438 -6.6875 L 11.828125 -6.6875 L 15.1875 0 L 22.882812 0 L 18.546875 -7.929688 C 21.035156 -9.308594 22.445312 -11.792969 22.445312 -15.085938 C 22.445312 -20.292969 18.917969 -23.519531 13.203125 -23.519531 L 2.488281 -23.519531 Z M 9.140625 -12.097656 L 9.140625 -17.976562 L 12.296875 -17.976562 C 14.449219 -17.976562 15.625 -16.933594 15.625 -15.054688 C 15.625 -13.171875 14.449219 -12.097656 12.296875 -12.097656 Z M 9.140625 -12.097656 "/></g></g></g><g fill="#59e1ff" fill-opacity="1"><g transform="translate(92.110029, 216.369386)"><g><path d="M 0.171875 0 L 1.328125 -6.984375 L 4.078125 -6.984375 C 4.867188 -6.984375 5.445312 -6.773438 5.8125 -6.359375 C 6.1875 -5.941406 6.316406 -5.390625 6.203125 -4.703125 C 6.128906 -4.222656 5.957031 -3.8125 5.6875 -3.46875 C 5.414062 -3.132812 5.066406 -2.882812 4.640625 -2.71875 L 5.671875 0 L 4.046875 0 L 3.125 -2.46875 L 2.0625 -2.46875 L 1.640625 0 Z M 2.25 -3.65625 L 3.25 -3.65625 C 4.09375 -3.65625 4.570312 -4.003906 4.6875 -4.703125 C 4.800781 -5.410156 4.441406 -5.765625 3.609375 -5.765625 L 2.609375 -5.765625 Z M 2.25 -3.65625 "/></g></g></g><g fill="#59e1ff" fill-opacity="1"><g transform="translate(104.519335, 216.369386)"><g><path d="M 0.171875 0 L 1.328125 -6.984375 L 6.03125 -6.984375 L 5.828125 -5.765625 L 2.59375 -5.765625 L 2.328125 -4.09375 L 5.3125 -4.09375 L 5.109375 -2.875 L 2.125 -2.875 L 1.84375 -1.21875 L 5.09375 -1.21875 L 4.890625 0 Z M 0.171875 0 "/></g></g></g><g fill="#59e1ff" fill-opacity="1"><g transform="translate(116.451834, 216.369386)"><g><path d="M 7.171875 -6.984375 L 6 0 L 4.734375 0 L 2.4375 -4.390625 L 2.375 -4.390625 L 1.640625 0 L 0.171875 0 L 1.328125 -6.984375 L 2.625 -6.984375 L 4.90625 -2.59375 L 4.96875 -2.59375 L 5.703125 -6.984375 Z M 7.171875 -6.984375 "/></g></g></g><g fill="#59e1ff" fill-opacity="1"><g transform="translate(129.559322, 216.369386)"><g><path d="M 0.859375 -5.765625 L 1.0625 -6.984375 L 6.796875 -6.984375 L 6.59375 -5.765625 L 4.453125 -5.765625 L 3.5 0 L 2.046875 0 L 3 -5.765625 Z M 0.859375 -5.765625 "/></g></g></g><g fill="#59e1ff" fill-opacity="1"><g transform="translate(142.026526, 216.369386)"><g><path d="M 1.375 0 L -0.203125 0 L 3.359375 -6.984375 L 5.265625 -6.984375 L 6.5 0 L 4.921875 0 L 4.671875 -1.59375 L 2.15625 -1.59375 Z M 2.71875 -2.75 L 4.5 -2.75 L 4.078125 -5.375 L 4.015625 -5.375 Z M 2.71875 -2.75 "/></g></g></g><g fill="#59e1ff" fill-opacity="1"><g transform="translate(155.256618, 216.369386)"><g><path d="M 0.171875 0 L 1.328125 -6.984375 L 2.796875 -6.984375 L 1.84375 -1.21875 L 4.84375 -1.21875 L 4.640625 0 Z M 0.171875 0 "/></g></g></g><g fill="#59e1ff" fill-opacity="1"><g transform="translate(166.756584, 216.369386)"><g/></g></g><g fill="#59e1ff" fill-opacity="1"><g transform="translate(175.038105, 216.369386)"><g><path d="M 7.078125 -4.53125 L 5.59375 -4.53125 C 5.601562 -4.914062 5.5 -5.21875 5.28125 -5.4375 C 5.0625 -5.65625 4.757812 -5.765625 4.375 -5.765625 C 3.8125 -5.765625 3.320312 -5.554688 2.90625 -5.140625 C 2.5 -4.734375 2.234375 -4.15625 2.109375 -3.40625 C 1.992188 -2.675781 2.0625 -2.125 2.3125 -1.75 C 2.5625 -1.382812 2.9375 -1.203125 3.4375 -1.203125 C 3.863281 -1.203125 4.238281 -1.304688 4.5625 -1.515625 C 4.882812 -1.722656 5.109375 -2.015625 5.234375 -2.390625 L 6.71875 -2.390625 C 6.59375 -1.960938 6.378906 -1.554688 6.078125 -1.171875 C 5.773438 -0.796875 5.390625 -0.488281 4.921875 -0.25 C 4.460938 -0.0195312 3.941406 0.09375 3.359375 0.09375 C 2.734375 0.09375 2.191406 -0.0507812 1.734375 -0.34375 C 1.273438 -0.632812 0.945312 -1.050781 0.75 -1.59375 C 0.550781 -2.144531 0.515625 -2.804688 0.640625 -3.578125 C 0.765625 -4.328125 1.007812 -4.960938 1.375 -5.484375 C 1.738281 -6.003906 2.179688 -6.398438 2.703125 -6.671875 C 3.222656 -6.941406 3.785156 -7.078125 4.390625 -7.078125 C 4.941406 -7.078125 5.421875 -6.972656 5.828125 -6.765625 C 6.242188 -6.566406 6.5625 -6.28125 6.78125 -5.90625 C 7 -5.53125 7.097656 -5.070312 7.078125 -4.53125 Z M 7.078125 -4.53125 "/></g></g></g><g fill="#59e1ff" fill-opacity="1"><g transform="translate(188.309066, 216.369386)"><g><path d="M 1.375 0 L -0.203125 0 L 3.359375 -6.984375 L 5.265625 -6.984375 L 6.5 0 L 4.921875 0 L 4.671875 -1.59375 L 2.15625 -1.59375 Z M 2.71875 -2.75 L 4.5 -2.75 L 4.078125 -5.375 L 4.015625 -5.375 Z M 2.71875 -2.75 "/></g></g></g><g fill="#59e1ff" fill-opacity="1"><g transform="translate(201.539159, 216.369386)"><g><path d="M 0.171875 0 L 1.328125 -6.984375 L 4.078125 -6.984375 C 4.867188 -6.984375 5.445312 -6.773438 5.8125 -6.359375 C 6.1875 -5.941406 6.316406 -5.390625 6.203125 -4.703125 C 6.128906 -4.222656 5.957031 -3.8125 5.6875 -3.46875 C 5.414062 -3.132812 5.066406 -2.882812 4.640625 -2.71875 L 5.671875 0 L 4.046875 0 L 3.125 -2.46875 L 2.0625 -2.46875 L 1.640625 0 Z M 2.25 -3.65625 L 3.25 -3.65625 C 4.09375 -3.65625 4.570312 -4.003906 4.6875 -4.703125 C 4.800781 -5.410156 4.441406 -5.765625 3.609375 -5.765625 L 2.609375 -5.765625 Z M 2.25 -3.65625 "/></g></g></g></svg>