<svg xmlns="http://www.w3.org/2000/svg" xmlns:xlink="http://www.w3.org/1999/xlink" width="400" zoomAndPan="magnify" viewBox="0 0 300 299.999988" height="400" preserveAspectRatio="xMidYMid meet" version="1.0"><defs><g/><clipPath id="62a1208f53"><path d="M 43.660156 107.625 L 129 107.625 L 129 147 L 43.660156 147 Z M 43.660156 107.625 " clip-rule="nonzero"/></clipPath><clipPath id="ae369ef30c"><path d="M 58 121 L 97 121 L 97 192.375 L 58 192.375 Z M 58 121 " clip-rule="nonzero"/></clipPath><clipPath id="a7231aa616"><path d="M 68 125 L 163.660156 125 L 163.660156 192.375 L 68 192.375 Z M 68 125 " clip-rule="nonzero"/></clipPath></defs><rect x="-30" width="360" fill="#ffffff" y="-29.999999" height="359.999986" fill-opacity="1"/><rect x="-30" width="360" fill="#ffffff" y="-29.999999" height="359.999986" fill-opacity="1"/><rect x="-30" width="360" fill="#ffffff" y="-29.999999" height="359.999986" fill-opacity="1"/><g clip-path="url(#62a1208f53)"><path fill="#c3921c" d="M 93.3125 107.628906 L 43.664062 136.238281 L 43.664062 146.59375 L 93.3125 117.984375 L 128.015625 138.019531 L 128.015625 127.664062 L 93.3125 107.628906 " fill-opacity="1" fill-rule="nonzero"/></g><g clip-path="url(#ae369ef30c)"><path fill="#2e2f38" d="M 93.3125 121.183594 L 58.613281 141.21875 L 58.613281 192.382812 L 64.324219 192.382812 L 64.324219 141.21875 L 96.167969 122.832031 L 93.3125 121.183594 " fill-opacity="1" fill-rule="nonzero"/></g><g clip-path="url(#a7231aa616)"><path fill="#2e2f38" d="M 88.644531 157.46875 C 88.644531 154.296875 91.222656 151.71875 94.394531 151.71875 C 97.566406 151.71875 100.144531 154.296875 100.144531 157.46875 L 100.144531 188.816406 L 88.644531 188.171875 Z M 104.105469 189.039062 L 104.105469 157.46875 C 104.105469 152.105469 99.757812 147.757812 94.394531 147.757812 C 89.03125 147.757812 84.6875 152.105469 84.6875 157.46875 L 84.6875 187.949219 L 73.207031 187.304688 L 73.207031 143.445312 L 101.515625 127.101562 L 98.976562 125.636719 L 68.128906 143.445312 L 68.128906 192.382812 L 163.664062 192.382812 L 104.105469 189.039062 " fill-opacity="1" fill-rule="nonzero"/></g><g fill="#000000" fill-opacity="1"><g transform="translate(106.613245, 163.696057)"><g><path d="M 10.765625 0 L 10.765625 -5.21875 L 5.90625 -5.21875 L 5.90625 0 L 1.484375 0 L 1.484375 -13.765625 L 5.90625 -13.765625 L 5.90625 -8.734375 L 10.765625 -8.734375 L 10.765625 -13.765625 L 15.1875 -13.765625 L 15.1875 0 Z M 10.765625 0 "/></g></g></g><g fill="#000000" fill-opacity="1"><g transform="translate(123.270605, 163.696057)"><g><path d="M 8.3125 -14 C 10.6875 -14 12.519531 -13.390625 13.8125 -12.171875 C 15.113281 -10.960938 15.765625 -9.195312 15.765625 -6.875 C 15.765625 -4.5625 15.113281 -2.796875 13.8125 -1.578125 C 12.519531 -0.367188 10.6875 0.234375 8.3125 0.234375 C 5.945312 0.234375 4.117188 -0.363281 2.828125 -1.5625 C 1.546875 -2.769531 0.90625 -4.539062 0.90625 -6.875 C 0.90625 -9.207031 1.546875 -10.976562 2.828125 -12.1875 C 4.117188 -13.394531 5.945312 -14 8.3125 -14 Z M 8.3125 -10.703125 C 7.375 -10.703125 6.65625 -10.414062 6.15625 -9.84375 C 5.664062 -9.269531 5.421875 -8.492188 5.421875 -7.515625 L 5.421875 -6.234375 C 5.421875 -5.265625 5.664062 -4.492188 6.15625 -3.921875 C 6.65625 -3.347656 7.375 -3.0625 8.3125 -3.0625 C 9.257812 -3.0625 9.984375 -3.347656 10.484375 -3.921875 C 10.984375 -4.492188 11.234375 -5.265625 11.234375 -6.234375 L 11.234375 -7.515625 C 11.234375 -8.492188 10.984375 -9.269531 10.484375 -9.84375 C 9.984375 -10.414062 9.257812 -10.703125 8.3125 -10.703125 Z M 8.3125 -10.703125 "/></g></g></g><g fill="#000000" fill-opacity="1"><g transform="translate(139.927964, 163.696057)"><g><path d="M 13.296875 0 L 13.296875 -4.953125 C 13.296875 -5.566406 13.316406 -6.195312 13.359375 -6.84375 C 13.410156 -7.488281 13.460938 -8.03125 13.515625 -8.46875 C 13.566406 -8.914062 13.601562 -9.195312 13.625 -9.3125 L 13.546875 -9.3125 L 11 0 L 7.546875 0 L 4.984375 -9.296875 L 4.90625 -9.296875 C 4.914062 -9.179688 4.945312 -8.90625 5 -8.46875 C 5.0625 -8.03125 5.117188 -7.488281 5.171875 -6.84375 C 5.234375 -6.195312 5.265625 -5.566406 5.265625 -4.953125 L 5.265625 0 L 1.203125 0 L 1.203125 -13.765625 L 7.4375 -13.765625 L 9.515625 -5.8125 L 9.59375 -5.8125 L 11.65625 -13.765625 L 17.6875 -13.765625 L 17.6875 0 Z M 13.296875 0 "/></g></g></g><g fill="#000000" fill-opacity="1"><g transform="translate(158.804974, 163.696057)"><g><path d="M 1.484375 -13.765625 L 13.375 -13.765625 L 13.375 -10.453125 L 5.90625 -10.453125 L 5.90625 -8.5625 L 12.296875 -8.5625 L 12.296875 -5.40625 L 5.90625 -5.40625 L 5.90625 -3.296875 L 13.515625 -3.296875 L 13.515625 0 L 1.484375 0 Z M 1.484375 -13.765625 "/></g></g></g><g fill="#000000" fill-opacity="1"><g transform="translate(173.242683, 163.696057)"><g/></g></g><g fill="#000000" fill-opacity="1"><g transform="translate(179.901624, 163.696057)"><g><path d="M 10.640625 -13.765625 C 11.335938 -13.765625 11.972656 -13.617188 12.546875 -13.328125 C 13.128906 -13.046875 13.585938 -12.644531 13.921875 -12.125 C 14.265625 -11.601562 14.4375 -11.019531 14.4375 -10.375 C 14.4375 -8.6875 13.671875 -7.625 12.140625 -7.1875 L 12.140625 -7.09375 C 13.890625 -6.695312 14.765625 -5.550781 14.765625 -3.65625 C 14.765625 -2.9375 14.585938 -2.300781 14.234375 -1.75 C 13.878906 -1.195312 13.394531 -0.765625 12.78125 -0.453125 C 12.164062 -0.148438 11.492188 0 10.765625 0 L 1.484375 0 L 1.484375 -13.765625 Z M 5.90625 -8.40625 L 8.9375 -8.40625 C 9.226562 -8.40625 9.46875 -8.503906 9.65625 -8.703125 C 9.851562 -8.910156 9.953125 -9.171875 9.953125 -9.484375 L 9.953125 -9.6875 C 9.953125 -9.976562 9.851562 -10.222656 9.65625 -10.421875 C 9.457031 -10.628906 9.21875 -10.734375 8.9375 -10.734375 L 5.90625 -10.734375 Z M 5.90625 -3.203125 L 9.265625 -3.203125 C 9.554688 -3.203125 9.796875 -3.300781 9.984375 -3.5 C 10.179688 -3.707031 10.28125 -3.96875 10.28125 -4.28125 L 10.28125 -4.484375 C 10.28125 -4.785156 10.179688 -5.039062 9.984375 -5.25 C 9.796875 -5.457031 9.554688 -5.5625 9.265625 -5.5625 L 5.90625 -5.5625 Z M 5.90625 -3.203125 "/></g></g></g><g fill="#000000" fill-opacity="1"><g transform="translate(195.459161, 163.696057)"><g><path d="M 15.1875 -5.546875 C 15.1875 -3.660156 14.59375 -2.222656 13.40625 -1.234375 C 12.21875 -0.253906 10.53125 0.234375 8.34375 0.234375 C 6.15625 0.234375 4.460938 -0.253906 3.265625 -1.234375 C 2.078125 -2.222656 1.484375 -3.660156 1.484375 -5.546875 L 1.484375 -13.765625 L 5.90625 -13.765625 L 5.90625 -5.59375 C 5.90625 -4.820312 6.109375 -4.207031 6.515625 -3.75 C 6.929688 -3.289062 7.53125 -3.0625 8.3125 -3.0625 C 9.101562 -3.0625 9.707031 -3.289062 10.125 -3.75 C 10.550781 -4.21875 10.765625 -4.832031 10.765625 -5.59375 L 10.765625 -13.765625 L 15.1875 -13.765625 Z M 15.1875 -5.546875 "/></g></g></g><g fill="#000000" fill-opacity="1"><g transform="translate(212.116521, 163.696057)"><g><path d="M 1.6875 0 L 1.6875 -13.765625 L 6.09375 -13.765625 L 6.09375 0 Z M 1.6875 0 "/></g></g></g><g fill="#000000" fill-opacity="1"><g transform="translate(219.895289, 163.696057)"><g><path d="M 1.484375 -13.765625 L 5.90625 -13.765625 L 5.90625 -3.515625 L 12.953125 -3.515625 L 12.953125 0 L 1.484375 0 Z M 1.484375 -13.765625 "/></g></g></g><g fill="#000000" fill-opacity="1"><g transform="translate(233.233176, 163.696057)"><g><path d="M 7.4375 -13.765625 C 12.25 -13.765625 14.65625 -11.46875 14.65625 -6.875 C 14.65625 -2.289062 12.25 0 7.4375 0 L 1.484375 0 L 1.484375 -13.765625 Z M 5.90625 -3.296875 L 7.359375 -3.296875 C 9.210938 -3.296875 10.140625 -4.289062 10.140625 -6.28125 L 10.140625 -7.484375 C 10.140625 -9.460938 9.210938 -10.453125 7.359375 -10.453125 L 5.90625 -10.453125 Z M 5.90625 -3.296875 "/></g></g></g><g fill="#000000" fill-opacity="1"><g transform="translate(112.394835, 184.092611)"><g><path d="M 6.4375 -11.25 C 7.21875 -11.25 7.984375 -11.097656 8.734375 -10.796875 C 9.492188 -10.492188 10.144531 -10.066406 10.6875 -9.515625 L 9.578125 -8.140625 C 9.171875 -8.578125 8.691406 -8.921875 8.140625 -9.171875 C 7.585938 -9.429688 7.03125 -9.5625 6.46875 -9.5625 C 5.34375 -9.5625 4.394531 -9.179688 3.625 -8.421875 C 2.851562 -7.660156 2.46875 -6.726562 2.46875 -5.625 C 2.46875 -4.519531 2.851562 -3.585938 3.625 -2.828125 C 4.394531 -2.066406 5.34375 -1.6875 6.46875 -1.6875 C 7.625 -1.6875 8.660156 -2.128906 9.578125 -3.015625 L 10.703125 -1.765625 C 10.128906 -1.191406 9.457031 -0.738281 8.6875 -0.40625 C 7.914062 -0.0820312 7.144531 0.078125 6.375 0.078125 C 4.726562 0.078125 3.34375 -0.46875 2.21875 -1.5625 C 1.101562 -2.65625 0.546875 -4.003906 0.546875 -5.609375 C 0.546875 -7.203125 1.113281 -8.539062 2.25 -9.625 C 3.382812 -10.707031 4.78125 -11.25 6.4375 -11.25 Z M 6.4375 -11.25 "/></g></g></g><g fill="#000000" fill-opacity="1"><g transform="translate(123.542433, 184.092611)"><g><path d="M 2.25 -9.625 C 3.394531 -10.707031 4.800781 -11.25 6.46875 -11.25 C 8.144531 -11.25 9.554688 -10.707031 10.703125 -9.625 C 11.847656 -8.539062 12.421875 -7.195312 12.421875 -5.59375 C 12.421875 -4 11.847656 -2.65625 10.703125 -1.5625 C 9.554688 -0.46875 8.144531 0.078125 6.46875 0.078125 C 4.800781 0.078125 3.394531 -0.46875 2.25 -1.5625 C 1.113281 -2.65625 0.546875 -4 0.546875 -5.59375 C 0.546875 -7.195312 1.113281 -8.539062 2.25 -9.625 Z M 6.5 -9.546875 C 5.382812 -9.546875 4.429688 -9.164062 3.640625 -8.40625 C 2.859375 -7.644531 2.46875 -6.707031 2.46875 -5.59375 C 2.46875 -4.488281 2.863281 -3.546875 3.65625 -2.765625 C 4.445312 -1.992188 5.390625 -1.609375 6.484375 -1.609375 C 7.585938 -1.609375 8.53125 -1.992188 9.3125 -2.765625 C 10.09375 -3.546875 10.484375 -4.488281 10.484375 -5.59375 C 10.484375 -6.707031 10.09375 -7.644531 9.3125 -8.40625 C 8.53125 -9.164062 7.59375 -9.546875 6.5 -9.546875 Z M 6.5 -9.546875 "/></g></g></g><g fill="#000000" fill-opacity="1"><g transform="translate(136.497317, 184.092611)"><g><path d="M 11.1875 0 L 9.328125 0 L 3.359375 -8.03125 L 3.359375 0 L 1.46875 0 L 1.46875 -11.203125 L 3.328125 -11.203125 L 9.328125 -3.15625 L 9.328125 -11.203125 L 11.1875 -11.203125 Z M 11.1875 0 "/></g></g></g><g fill="#000000" fill-opacity="1"><g transform="translate(149.164323, 184.092611)"><g><path d="M 5.15625 -11.28125 C 6.601562 -11.28125 7.910156 -10.894531 9.078125 -10.125 L 8.28125 -8.46875 C 7.144531 -9.15625 6.054688 -9.5 5.015625 -9.5 C 4.441406 -9.5 3.992188 -9.394531 3.671875 -9.1875 C 3.347656 -8.988281 3.1875 -8.703125 3.1875 -8.328125 C 3.1875 -7.960938 3.332031 -7.644531 3.625 -7.375 C 3.925781 -7.113281 4.300781 -6.921875 4.75 -6.796875 C 5.195312 -6.679688 5.679688 -6.53125 6.203125 -6.34375 C 6.722656 -6.15625 7.207031 -5.957031 7.65625 -5.75 C 8.113281 -5.539062 8.488281 -5.210938 8.78125 -4.765625 C 9.070312 -4.328125 9.21875 -3.796875 9.21875 -3.171875 C 9.21875 -2.191406 8.820312 -1.40625 8.03125 -0.8125 C 7.25 -0.226562 6.234375 0.0625 4.984375 0.0625 C 4.140625 0.0625 3.316406 -0.09375 2.515625 -0.40625 C 1.710938 -0.726562 1.015625 -1.164062 0.421875 -1.71875 L 1.234375 -3.34375 C 1.796875 -2.820312 2.414062 -2.421875 3.09375 -2.140625 C 3.769531 -1.859375 4.414062 -1.71875 5.03125 -1.71875 C 5.6875 -1.71875 6.195312 -1.835938 6.5625 -2.078125 C 6.9375 -2.316406 7.125 -2.648438 7.125 -3.078125 C 7.125 -3.453125 6.972656 -3.769531 6.671875 -4.03125 C 6.367188 -4.300781 5.992188 -4.492188 5.546875 -4.609375 C 5.097656 -4.734375 4.613281 -4.882812 4.09375 -5.0625 C 3.570312 -5.238281 3.085938 -5.425781 2.640625 -5.625 C 2.191406 -5.820312 1.816406 -6.140625 1.515625 -6.578125 C 1.222656 -7.015625 1.078125 -7.539062 1.078125 -8.15625 C 1.078125 -9.101562 1.445312 -9.859375 2.1875 -10.421875 C 2.9375 -10.992188 3.925781 -11.28125 5.15625 -11.28125 Z M 5.15625 -11.28125 "/></g></g></g><g fill="#000000" fill-opacity="1"><g transform="translate(159.112397, 184.092611)"><g><path d="M 9.125 -9.5 L 5.5625 -9.5 L 5.5625 0 L 3.6875 0 L 3.6875 -9.5 L 0.140625 -9.5 L 0.140625 -11.203125 L 9.125 -11.203125 Z M 9.125 -9.5 "/></g></g></g><g fill="#000000" fill-opacity="1"><g transform="translate(168.372745, 184.092611)"><g><path d="M 8.578125 0 L 6.53125 -3.390625 C 6.425781 -3.378906 6.253906 -3.375 6.015625 -3.375 L 3.359375 -3.375 L 3.359375 0 L 1.46875 0 L 1.46875 -11.203125 L 6.015625 -11.203125 C 7.441406 -11.203125 8.550781 -10.867188 9.34375 -10.203125 C 10.132812 -9.535156 10.53125 -8.59375 10.53125 -7.375 C 10.53125 -6.476562 10.328125 -5.71875 9.921875 -5.09375 C 9.523438 -4.476562 8.953125 -4.03125 8.203125 -3.75 L 10.71875 0 Z M 3.359375 -5.078125 L 6.015625 -5.078125 C 7.828125 -5.078125 8.734375 -5.828125 8.734375 -7.328125 C 8.734375 -8.773438 7.828125 -9.5 6.015625 -9.5 L 3.359375 -9.5 Z M 3.359375 -5.078125 "/></g></g></g><g fill="#000000" fill-opacity="1"><g transform="translate(179.936184, 184.092611)"><g><path d="M 10.984375 -11.203125 L 10.984375 -4.640625 C 10.984375 -3.179688 10.550781 -2.03125 9.6875 -1.1875 C 8.832031 -0.34375 7.644531 0.078125 6.125 0.078125 C 4.613281 0.078125 3.421875 -0.34375 2.546875 -1.1875 C 1.679688 -2.03125 1.25 -3.179688 1.25 -4.640625 L 1.25 -11.203125 L 3.140625 -11.203125 L 3.140625 -4.640625 C 3.140625 -3.703125 3.40625 -2.960938 3.9375 -2.421875 C 4.476562 -1.878906 5.210938 -1.609375 6.140625 -1.609375 C 7.054688 -1.609375 7.78125 -1.875 8.3125 -2.40625 C 8.84375 -2.945312 9.109375 -3.691406 9.109375 -4.640625 L 9.109375 -11.203125 Z M 10.984375 -11.203125 "/></g></g></g><g fill="#000000" fill-opacity="1"><g transform="translate(192.15536, 184.092611)"><g><path d="M 6.4375 -11.25 C 7.21875 -11.25 7.984375 -11.097656 8.734375 -10.796875 C 9.492188 -10.492188 10.144531 -10.066406 10.6875 -9.515625 L 9.578125 -8.140625 C 9.171875 -8.578125 8.691406 -8.921875 8.140625 -9.171875 C 7.585938 -9.429688 7.03125 -9.5625 6.46875 -9.5625 C 5.34375 -9.5625 4.394531 -9.179688 3.625 -8.421875 C 2.851562 -7.660156 2.46875 -6.726562 2.46875 -5.625 C 2.46875 -4.519531 2.851562 -3.585938 3.625 -2.828125 C 4.394531 -2.066406 5.34375 -1.6875 6.46875 -1.6875 C 7.625 -1.6875 8.660156 -2.128906 9.578125 -3.015625 L 10.703125 -1.765625 C 10.128906 -1.191406 9.457031 -0.738281 8.6875 -0.40625 C 7.914062 -0.0820312 7.144531 0.078125 6.375 0.078125 C 4.726562 0.078125 3.34375 -0.46875 2.21875 -1.5625 C 1.101562 -2.65625 0.546875 -4.003906 0.546875 -5.609375 C 0.546875 -7.203125 1.113281 -8.539062 2.25 -9.625 C 3.382812 -10.707031 4.78125 -11.25 6.4375 -11.25 Z M 6.4375 -11.25 "/></g></g></g><g fill="#000000" fill-opacity="1"><g transform="translate(203.302957, 184.092611)"><g><path d="M 9.125 -9.5 L 5.5625 -9.5 L 5.5625 0 L 3.6875 0 L 3.6875 -9.5 L 0.140625 -9.5 L 0.140625 -11.203125 L 9.125 -11.203125 Z M 9.125 -9.5 "/></g></g></g><g fill="#000000" fill-opacity="1"><g transform="translate(212.563305, 184.092611)"><g><path d="M 3.359375 0 L 1.46875 0 L 1.46875 -11.203125 L 3.359375 -11.203125 Z M 3.359375 0 "/></g></g></g><g fill="#000000" fill-opacity="1"><g transform="translate(217.393398, 184.092611)"><g><path d="M 2.25 -9.625 C 3.394531 -10.707031 4.800781 -11.25 6.46875 -11.25 C 8.144531 -11.25 9.554688 -10.707031 10.703125 -9.625 C 11.847656 -8.539062 12.421875 -7.195312 12.421875 -5.59375 C 12.421875 -4 11.847656 -2.65625 10.703125 -1.5625 C 9.554688 -0.46875 8.144531 0.078125 6.46875 0.078125 C 4.800781 0.078125 3.394531 -0.46875 2.25 -1.5625 C 1.113281 -2.65625 0.546875 -4 0.546875 -5.59375 C 0.546875 -7.195312 1.113281 -8.539062 2.25 -9.625 Z M 6.5 -9.546875 C 5.382812 -9.546875 4.429688 -9.164062 3.640625 -8.40625 C 2.859375 -7.644531 2.46875 -6.707031 2.46875 -5.59375 C 2.46875 -4.488281 2.863281 -3.546875 3.65625 -2.765625 C 4.445312 -1.992188 5.390625 -1.609375 6.484375 -1.609375 C 7.585938 -1.609375 8.53125 -1.992188 9.3125 -2.765625 C 10.09375 -3.546875 10.484375 -4.488281 10.484375 -5.59375 C 10.484375 -6.707031 10.09375 -7.644531 9.3125 -8.40625 C 8.53125 -9.164062 7.59375 -9.546875 6.5 -9.546875 Z M 6.5 -9.546875 "/></g></g></g><g fill="#000000" fill-opacity="1"><g transform="translate(230.348282, 184.092611)"><g><path d="M 11.1875 0 L 9.328125 0 L 3.359375 -8.03125 L 3.359375 0 L 1.46875 0 L 1.46875 -11.203125 L 3.328125 -11.203125 L 9.328125 -3.15625 L 9.328125 -11.203125 L 11.1875 -11.203125 Z M 11.1875 0 "/></g></g></g></svg>