<svg xmlns="http://www.w3.org/2000/svg" xmlns:xlink="http://www.w3.org/1999/xlink" width="400" zoomAndPan="magnify" viewBox="0 0 300 299.999988" height="400" preserveAspectRatio="xMidYMid meet" version="1.0"><defs><g/><clipPath id="321e7df2f5"><path d="M 100 84 L 215 84 L 215 175 L 100 175 Z M 100 84 " clip-rule="nonzero"/></clipPath><clipPath id="f463c9d372"><path d="M 102.570312 78.238281 L 222.042969 89.464844 L 213.484375 180.566406 L 94.007812 169.339844 Z M 102.570312 78.238281 " clip-rule="nonzero"/></clipPath><clipPath id="efaed2cc5f"><path d="M 102.570312 78.238281 L 222.042969 89.464844 L 213.484375 180.566406 L 94.007812 169.339844 Z M 102.570312 78.238281 " clip-rule="nonzero"/></clipPath><clipPath id="7dc00efef7"><path d="M 81 144 L 108 144 L 108 169 L 81 169 Z M 81 144 " clip-rule="nonzero"/></clipPath><clipPath id="a79c2beae7"><path d="M 82.628906 142.992188 L 108.070312 144.707031 L 106.355469 170.148438 L 80.914062 168.433594 Z M 82.628906 142.992188 " clip-rule="nonzero"/></clipPath><clipPath id="fa5da648e0"><path d="M 82.628906 142.992188 L 108.070312 144.707031 L 106.355469 170.148438 L 80.914062 168.433594 Z M 82.628906 142.992188 " clip-rule="nonzero"/></clipPath><clipPath id="f1e868025b"><path d="M 82.628906 142.992188 L 108.070312 144.707031 L 106.355469 170.148438 L 80.914062 168.433594 Z M 82.628906 142.992188 " clip-rule="nonzero"/></clipPath><clipPath id="e36616ef15"><path d="M 97 157 L 104 157 L 104 160 L 97 160 Z M 97 157 " clip-rule="nonzero"/></clipPath><clipPath id="0eb4eca159"><path d="M 82.628906 142.992188 L 108.070312 144.707031 L 106.355469 170.148438 L 80.914062 168.433594 Z M 82.628906 142.992188 " clip-rule="nonzero"/></clipPath><clipPath id="ffd5805147"><path d="M 82.628906 142.992188 L 108.070312 144.707031 L 106.355469 170.148438 L 80.914062 168.433594 Z M 82.628906 142.992188 " clip-rule="nonzero"/></clipPath><clipPath id="9d6eb83820"><path d="M 82.628906 142.992188 L 108.070312 144.707031 L 106.355469 170.148438 L 80.914062 168.433594 Z M 82.628906 142.992188 " clip-rule="nonzero"/></clipPath><clipPath id="4c6878e680"><path d="M 85 154 L 88 154 L 88 160 L 85 160 Z M 85 154 " clip-rule="nonzero"/></clipPath><clipPath id="301530051e"><path d="M 82.628906 142.992188 L 108.070312 144.707031 L 106.355469 170.148438 L 80.914062 168.433594 Z M 82.628906 142.992188 " clip-rule="nonzero"/></clipPath><clipPath id="06102b6860"><path d="M 82.628906 142.992188 L 108.070312 144.707031 L 106.355469 170.148438 L 80.914062 168.433594 Z M 82.628906 142.992188 " clip-rule="nonzero"/></clipPath><clipPath id="80066b1bea"><path d="M 82.628906 142.992188 L 108.070312 144.707031 L 106.355469 170.148438 L 80.914062 168.433594 Z M 82.628906 142.992188 " clip-rule="nonzero"/></clipPath></defs><rect x="-30" width="360" fill="#ffffff" y="-29.999999" height="359.999986" fill-opacity="1"/><rect x="-30" width="360" fill="#ffffff" y="-29.999999" height="359.999986" fill-opacity="1"/><rect x="-30" width="360" fill="#ffffff" y="-29.999999" height="359.999986" fill-opacity="1"/><g clip-path="url(#321e7df2f5)"><g clip-path="url(#f463c9d372)"><g clip-path="url(#efaed2cc5f)"><path fill="#000000" d="M 167.160156 144.011719 C 167.210938 144.160156 167.289062 144.289062 167.375 144.417969 C 167.347656 144.371094 167.328125 144.324219 167.3125 144.265625 C 167.039062 143.523438 167.425781 142.710938 168.167969 142.449219 C 168.914062 142.175781 169.730469 142.5625 169.992188 143.304688 C 170.265625 144.046875 169.878906 144.863281 169.136719 145.125 C 169.136719 145.125 169.136719 145.125 169.125 145.121094 C 169.214844 145.109375 169.304688 145.085938 169.386719 145.046875 C 170.292969 144.722656 170.953125 143.472656 170.628906 142.570312 C 170.300781 141.667969 169.292969 141.195312 168.398438 141.53125 C 167.492188 141.855469 166.824219 143.105469 167.160156 144.011719 Z M 158.820312 169.554688 L 158.84375 169.535156 L 157.984375 166.664062 L 157.558594 164.269531 L 160.625 166.757812 L 165.027344 170.679688 L 165.042969 170.660156 L 156.191406 162.289062 Z M 165.886719 148.230469 L 157.507812 157.035156 L 164.796875 154.410156 L 163.054688 154.917969 L 159.582031 155.707031 L 163.261719 151.171875 Z M 173.84375 145.820312 C 173.8125 145.785156 173.773438 145.746094 173.742188 145.710938 C 173.742188 145.710938 173.785156 145.746094 173.84375 145.820312 Z M 159.039062 162.28125 L 164.699219 163.804688 L 164.699219 163.792969 L 157.140625 160.921875 L 165.164062 170.527344 L 165.191406 170.496094 L 162.300781 166.824219 Z M 142.8125 169.488281 L 150.910156 160.976562 L 144 163.460938 L 149.34375 161.996094 L 145.710938 166.214844 Z M 142.640625 169.933594 L 142.648438 169.957031 L 147.34375 166.292969 L 151.445312 163.089844 L 150.367188 166.398438 L 149.382812 169.464844 L 149.402344 169.476562 L 152.28125 161.941406 Z M 149.585938 148.453125 L 149.5625 148.460938 L 149.757812 149.097656 L 150.992188 153.863281 L 149.316406 152.601562 L 148.796875 152.144531 L 144.308594 148.15625 L 143.378906 147.328125 L 143.367188 147.339844 L 152.214844 155.710938 Z M 144.589844 154.476562 L 143.71875 154.195312 L 143.71875 154.203125 L 151.289062 157.089844 L 143.265625 147.472656 L 143.253906 147.484375 L 143.945312 148.351562 L 147.429688 152.789062 L 148.476562 154.121094 L 149.691406 155.949219 L 147.589844 155.429688 Z M 149.535156 169.511719 L 149.554688 169.523438 L 151.394531 166.429688 L 152.960938 163.796875 L 153.117188 166.492188 L 153.601562 174.882812 L 153.613281 174.886719 L 153.28125 162.402344 Z M 153.789062 174.902344 L 154.808594 166.550781 L 155.289062 163.992188 L 156.992188 166.625 L 158.691406 169.632812 L 158.714844 169.625 L 154.953125 162.148438 Z M 161.164062 101.960938 C 161.164062 101.972656 161.164062 101.972656 161.164062 101.972656 C 161.152344 101.96875 161.164062 101.972656 161.164062 101.960938 Z M 159.105469 97.957031 C 159.078125 97.878906 159.050781 97.796875 159.015625 97.730469 C 158.855469 97.40625 158.601562 97.183594 158.304688 97.152344 C 157.996094 97.125 157.703125 97.296875 157.5 97.585938 C 157.449219 97.648438 157.410156 97.722656 157.371094 97.792969 C 157.355469 97.835938 157.328125 97.867188 157.3125 97.910156 C 157.242188 98.070312 157.203125 98.253906 157.1875 98.449219 C 157.167969 98.648438 157.183594 98.828125 157.210938 98.996094 C 157.226562 99.085938 157.25 99.164062 157.277344 99.242188 C 157.417969 99.632812 157.703125 99.902344 158.042969 99.933594 C 158.078125 99.9375 158.097656 99.9375 158.121094 99.929688 C 157.710938 99.835938 157.425781 99.300781 157.484375 98.699219 C 157.542969 98.054688 157.96875 97.5625 158.417969 97.605469 C 158.84375 97.648438 159.152344 98.140625 159.140625 98.734375 C 159.144531 98.703125 159.148438 98.65625 159.152344 98.625 C 159.171875 98.429688 159.152344 98.25 159.125 98.082031 C 159.128906 98.039062 159.113281 97.992188 159.105469 97.957031 Z M 161.179688 101.917969 C 161.179688 101.929688 161.164062 101.949219 161.164062 101.960938 C 161.164062 101.949219 161.175781 101.9375 161.179688 101.917969 Z M 148.339844 105.503906 C 148.339844 105.503906 144.796875 110.179688 144.09375 115.304688 C 144.09375 115.304688 145.75 110.667969 146.675781 111.417969 C 147.601562 112.167969 148.28125 113.167969 148.28125 113.167969 C 148.28125 113.167969 147.859375 108.226562 148.339844 105.503906 Z M 167.898438 107.152344 L 165.214844 110.941406 L 177.878906 112.660156 L 179.929688 108.988281 Z M 139.5 139.105469 C 138.542969 139.015625 137.691406 139.71875 137.601562 140.671875 C 137.511719 141.621094 138.402344 142.753906 139.359375 142.84375 C 139.511719 142.859375 139.667969 142.851562 139.816406 142.820312 C 139.761719 142.816406 139.703125 142.820312 139.648438 142.816406 C 138.871094 142.742188 138.292969 142.046875 138.367188 141.273438 C 138.441406 140.484375 139.136719 139.917969 139.914062 139.992188 C 140.695312 140.066406 141.269531 140.761719 141.199219 141.539062 C 141.199219 141.539062 141.199219 141.539062 141.199219 141.546875 C 141.214844 141.460938 141.234375 141.375 141.246094 141.277344 C 141.355469 140.316406 140.464844 139.195312 139.5 139.105469 Z M 176.53125 122.402344 C 174.539062 123.792969 175.207031 128.128906 174.996094 130.261719 C 177.695312 121.574219 182.554688 135.257812 182.554688 135.257812 C 182.640625 128.109375 178.5 123.96875 176.53125 122.402344 Z M 113.738281 116.722656 C 111.796875 115.359375 111.878906 110.707031 111.011719 113.554688 C 110.101562 116.546875 110.730469 121.15625 110.730469 121.15625 L 113.261719 122.496094 C 112.863281 119.082031 116.445312 117.75 116.71875 117.65625 C 116.589844 117.710938 115.546875 117.988281 113.738281 116.722656 Z M 192.140625 160.875 C 191.75 153.75 187.417969 146.464844 186.402344 145.246094 C 186.171875 144.859375 186.296875 143.058594 186.375 141.753906 C 186.507812 139.734375 186.679688 137.234375 186.339844 134.707031 C 185.148438 125.929688 180.324219 121.390625 177.175781 119.328125 L 179.058594 115.773438 L 180.621094 116.019531 L 184.898438 108.097656 L 183.003906 105.734375 L 183.9375 104.398438 L 183.152344 89.179688 L 182.570312 88.890625 C 174.988281 85.097656 163.476562 84.414062 162.992188 84.378906 L 162.355469 84.34375 L 151.03125 101.714844 C 150.496094 101.753906 150.027344 101.917969 149.714844 102.042969 C 149.59375 102.03125 149.449219 102.039062 149.277344 102.101562 L 146.699219 101.859375 C 145.765625 101.519531 144.6875 101.207031 143.476562 100.917969 C 139.921875 100.085938 136.449219 99.792969 136.304688 99.777344 L 136.207031 99.769531 L 136.117188 99.773438 C 123.535156 100.875 114.695312 98.542969 114.605469 98.523438 L 114.464844 98.488281 L 114.324219 98.484375 C 109.25 98.484375 104.410156 100.964844 102 104.789062 C 99.738281 108.386719 99.710938 112.910156 101.9375 117.511719 C 103.226562 120.171875 106.089844 121.503906 108.039062 122.117188 L 108.230469 122.996094 L 109.160156 123.46875 L 113.558594 125.714844 C 113.875 126.925781 114.417969 128.929688 114.921875 130.160156 C 116.039062 132.882812 118.285156 134.804688 121.09375 135.441406 C 121.472656 135.535156 121.832031 135.589844 122.171875 135.621094 C 122.964844 135.695312 123.636719 135.613281 124.183594 135.433594 C 124.601562 135.605469 125.085938 135.742188 125.625 135.789062 C 125.757812 135.804688 125.898438 135.816406 126.042969 135.820312 C 126.21875 135.824219 126.386719 135.816406 126.542969 135.800781 C 126.285156 137.71875 126.164062 139.835938 126.148438 142.011719 C 125.65625 142.054688 125.355469 142.058594 125.335938 142.054688 L 124.78125 142.070312 L 124.683594 142.613281 C 123.417969 150.210938 125.425781 157.476562 125.804688 158.746094 C 115.789062 159.828125 107.035156 161.542969 100.195312 163.738281 C 105.542969 162.671875 111.5625 161.78125 118.082031 161.113281 C 126.851562 160.203125 136.546875 159.691406 146.796875 159.640625 L 149.234375 160.078125 L 144.007812 163.273438 L 151.058594 159.753906 L 138.386719 158.59375 L 136.707031 158.4375 L 138.320312 158.390625 L 150.796875 158.070312 L 143.648438 154.34375 L 143.648438 154.351562 L 144.226562 154.695312 L 146.964844 156.320312 L 148.871094 157.460938 C 148.03125 157.46875 147.199219 157.480469 146.355469 157.488281 C 142.972656 157.546875 139.660156 157.675781 136.441406 157.859375 C 137.261719 156.921875 138.335938 155.488281 138.636719 154.203125 C 138.84375 153.273438 136.175781 155.957031 134.265625 155.921875 C 132.339844 155.886719 136.257812 152.058594 133.304688 152.816406 C 130.855469 153.449219 131.0625 153.125 131.964844 150.5625 C 132.871094 147.996094 133.460938 141.714844 132.601562 142.960938 C 132.550781 143.03125 132.511719 143.117188 132.429688 143.164062 C 130.714844 144.183594 127.359375 144.566406 127.359375 144.566406 C 126.703125 150.839844 128.042969 156.851562 128.394531 158.273438 L 127.65625 158.238281 C 127.1875 156.527344 125.609375 150.109375 126.574219 143.496094 C 128.164062 143.402344 132.339844 142.835938 135.035156 140.429688 C 135.136719 141.929688 135.269531 143.464844 135.453125 145.058594 L 135.492188 145.449219 L 140.1875 147.339844 L 142.273438 146.351562 L 142.214844 146.28125 L 142.285156 146.355469 L 144.277344 145.414062 L 144.222656 144.945312 C 144.21875 144.878906 144.027344 143.273438 143.875 140.640625 C 144.90625 141.917969 146.324219 142.980469 148.25 143.328125 C 148.773438 143.417969 149.308594 143.503906 149.855469 143.566406 L 150.179688 145.328125 L 150.328125 146.191406 L 150.792969 148.789062 L 151.203125 151.042969 L 150.0625 149.027344 L 149.710938 148.410156 L 149.6875 148.417969 L 153.449219 155.890625 L 154.617188 143.117188 L 154.664062 142.617188 C 154.53125 142.613281 154.386719 142.613281 154.253906 142.597656 C 153.285156 142.066406 152.644531 141.375 152.015625 140.742188 C 152.003906 140.730469 151.996094 140.730469 151.984375 140.71875 L 151.785156 139.285156 L 151.300781 135.640625 L 151.160156 134.636719 C 151.515625 134.503906 151.835938 134.300781 152.09375 134.027344 C 154.515625 135.105469 156.75 136.792969 157.335938 139.410156 L 156 142.652344 C 155.601562 142.648438 155.195312 142.632812 154.785156 142.625 L 154.792969 143.136719 L 155.121094 155.652344 L 158.804688 148.625 L 159.15625 147.960938 C 158.519531 148.488281 157.867188 149.054688 157.363281 149.613281 C 156.769531 150.277344 157.246094 150.15625 158.175781 149.691406 L 157.003906 151.644531 L 155.597656 153.554688 L 155.160156 149.132812 L 155.0625 147.332031 L 154.871094 143.9375 C 156.78125 143.996094 158.625 143.96875 160.144531 143.914062 C 159.246094 144.304688 157.980469 144.816406 156.675781 145.234375 C 154.277344 146 159.980469 145.796875 161.449219 145.605469 C 162.492188 145.46875 160.917969 146.527344 159.265625 147.871094 L 158.984375 148.597656 L 156.109375 156.097656 L 165.621094 148.214844 L 164.402344 149.160156 L 157.449219 154.203125 L 158.175781 151.101562 L 158.722656 149.410156 C 160.375 148.527344 162.8125 147.003906 163.683594 146.464844 L 163.648438 146.574219 L 167.5 148.734375 L 171.5 147.894531 L 171.621094 147.542969 C 172.140625 146.023438 172.585938 144.488281 172.941406 142.941406 C 173.070312 143.21875 173.222656 143.488281 173.394531 143.757812 C 174.246094 145.050781 175.523438 145.964844 177.179688 146.488281 C 177.132812 146.867188 177.074219 147.371094 177 147.9375 C 176.058594 150.277344 174.480469 153.90625 174.320312 158.539062 C 174.089844 158.515625 173.859375 158.496094 173.628906 158.472656 C 173.359375 152.851562 176.507812 147.539062 175.792969 147.339844 C 175.136719 147.15625 174.152344 146.179688 173.828125 145.851562 C 175.71875 148.003906 168.605469 151.941406 170.300781 151.714844 C 171.757812 151.519531 172.320312 150.609375 173.363281 150.34375 C 175.144531 149.882812 169.226562 155.574219 167.757812 156.386719 C 166.285156 157.199219 169.390625 157.257812 170.886719 157.839844 C 171.152344 157.941406 171.164062 158.085938 171.015625 158.25 C 169.464844 158.125 167.890625 158.023438 166.304688 157.929688 C 164.046875 157.792969 161.753906 157.6875 159.421875 157.613281 L 164.828125 154.554688 L 157.332031 158.300781 L 170.125 159.46875 L 171.683594 159.613281 L 170.128906 159.65625 L 157.59375 159.980469 L 164.742188 163.710938 L 164.757812 163.679688 L 159.761719 160.394531 L 164.128906 159.996094 C 175.046875 160.492188 185.304688 161.511719 194.453125 162.902344 C 202.066406 164.058594 208.90625 165.496094 214.746094 167.136719 C 208.890625 164.632812 201.160156 162.507812 192.140625 160.875 Z M 166.976562 86.90625 C 170.863281 87.128906 174.753906 88.277344 177.082031 89.082031 C 177.578125 89.238281 178.070312 89.40625 178.554688 89.574219 C 178.996094 94.273438 177.453125 97.519531 174.457031 97.566406 C 170.941406 97.613281 167.394531 92.113281 166.285156 86.84375 C 166.691406 86.878906 166.964844 86.894531 166.976562 86.90625 Z M 143.839844 103.28125 C 144.953125 103.570312 145.972656 103.910156 146.816406 104.277344 C 145.03125 106.183594 142.304688 109.980469 140.394531 116.84375 C 139.746094 116.460938 139.097656 116.058594 138.503906 115.660156 C 138.769531 114.691406 139.042969 113.792969 139.308594 112.964844 C 141.015625 107.75 142.980469 104.546875 143.839844 103.28125 Z M 142.464844 102.941406 C 141.46875 104.480469 139.679688 107.613281 138.082031 112.453125 C 137.914062 112.96875 137.742188 113.515625 137.574219 114.085938 C 137.507812 114.320312 137.433594 114.554688 137.363281 114.804688 C 137.324219 114.765625 137.28125 114.742188 137.25 114.703125 C 137.210938 114.679688 137.179688 114.644531 137.136719 114.617188 C 137.109375 114.59375 137.066406 114.566406 137.035156 114.542969 C 137.792969 111.90625 139.75 105.675781 142.207031 102.882812 C 142.292969 102.902344 142.378906 102.921875 142.464844 102.941406 Z M 108.316406 111.953125 C 106.515625 109.332031 108.773438 102.746094 106.714844 104.503906 C 101.25 109.148438 103.164062 115.652344 107.007812 118.453125 C 107.203125 118.605469 107.40625 118.699219 107.597656 118.773438 C 107.613281 119.085938 107.640625 119.375 107.660156 119.652344 C 106.253906 119.078125 104.671875 118.113281 103.917969 116.5625 C 102.007812 112.609375 101.988281 108.941406 103.863281 105.96875 C 105.855469 102.800781 109.890625 100.742188 114.183594 100.691406 C 114.550781 100.78125 115.546875 101.03125 117.058594 101.292969 C 118.96875 101.703125 123.691406 102.988281 125.429688 106.03125 C 125.507812 106.160156 125.582031 106.300781 125.648438 106.4375 C 125.648438 106.4375 125.625 104.4375 124.050781 102.558594 C 123.921875 102.402344 123.769531 102.242188 123.621094 102.085938 C 125.589844 102.226562 127.804688 102.3125 130.257812 102.28125 L 129.996094 102.34375 C 135.972656 102.042969 136.152344 108.132812 135.957031 110.808594 C 135.898438 111.554688 135.808594 112.03125 135.808594 112.03125 C 136.589844 110.214844 136.964844 108.5625 137.113281 107.117188 C 137.347656 104.84375 136.992188 103.089844 136.671875 102.03125 C 137.207031 102.082031 137.757812 102.144531 138.3125 102.21875 C 139.300781 102.566406 140.382812 103.429688 139.496094 105.652344 C 138.484375 108.207031 137.65625 111.441406 137.171875 113.558594 C 137.09375 113.90625 137.019531 114.21875 136.960938 114.5 C 136.507812 114.128906 136.039062 113.816406 135.542969 113.5625 C 135.53125 113.21875 135.449219 113.132812 135.320312 113.453125 C 134.980469 113.289062 134.628906 113.15625 134.261719 113.042969 C 134.585938 111.738281 134.710938 110.414062 134.257812 109.554688 C 134.257812 109.554688 134.273438 110.574219 133.988281 111.847656 C 133.910156 112.183594 133.8125 112.539062 133.691406 112.890625 C 133.582031 112.871094 133.460938 112.835938 133.355469 112.816406 C 133.332031 112.8125 133.300781 112.808594 133.277344 112.808594 C 133.199219 112.800781 133.132812 112.792969 133.058594 112.777344 C 132.9375 112.765625 132.828125 112.742188 132.707031 112.734375 C 132.640625 112.726562 132.566406 112.71875 132.5 112.710938 C 132.320312 111.914062 132.070312 111.027344 131.695312 110.066406 C 131.03125 108.3125 130.890625 108.167969 130.878906 108.882812 C 130.867188 109.589844 130.988281 111.113281 130.867188 112.757812 C 130.632812 112.792969 130.40625 112.824219 130.191406 112.859375 L 130.0625 112.714844 L 128.472656 110.886719 L 124.34375 106.160156 L 123.453125 105.140625 L 122.90625 104.503906 L 122.148438 104.410156 C 120.59375 102.808594 119.054688 102.5625 118.328125 102.539062 C 118.050781 102.535156 117.894531 102.5625 117.894531 102.5625 C 118.878906 102.898438 119.707031 103.519531 120.402344 104.246094 C 116.160156 104.023438 112.863281 105.191406 110.617188 107.730469 C 110.410156 107.964844 110.21875 108.203125 110.042969 108.449219 C 109.253906 109.535156 108.699219 110.730469 108.316406 111.953125 Z M 128.425781 141.683594 C 128.421875 139.253906 128.511719 136.902344 128.761719 134.828125 C 128.878906 134.726562 128.992188 134.617188 129.101562 134.503906 C 129.296875 134.535156 129.492188 134.566406 129.710938 134.597656 C 129.402344 136.820312 129.109375 139.726562 129.320312 141.480469 C 129.011719 141.5625 128.707031 141.621094 128.425781 141.683594 Z M 132.636719 137.894531 C 131.445312 137.242188 131.242188 135.988281 131.480469 134.621094 C 132.046875 134.515625 132.566406 134.289062 133.007812 133.957031 C 133.550781 134.292969 134.175781 134.597656 134.867188 134.792969 C 134.867188 135.953125 134.898438 137.160156 134.960938 138.390625 C 134.449219 138.15625 133.394531 138.308594 132.636719 137.894531 Z M 133.605469 131.707031 C 132.980469 131.148438 132.042969 129.363281 130.640625 126.359375 C 130.640625 126.359375 132.5625 130.800781 131.847656 132.027344 C 131.585938 132.332031 131.164062 132.582031 130.503906 132.519531 C 130.109375 132.480469 129.8125 132.453125 129.503906 132.347656 C 128.621094 132.054688 126.726562 129.703125 126.054688 128.027344 C 127.039062 130.769531 128.027344 132.273438 127.492188 132.984375 C 127.46875 133.015625 127.457031 133.039062 127.441406 133.070312 C 127.125 133.382812 126.691406 133.628906 126.09375 133.617188 C 126.003906 133.617188 125.917969 133.609375 125.828125 133.601562 C 125.511719 133.574219 125.253906 133.503906 125.039062 133.417969 C 124.785156 133.273438 124.519531 133.039062 124.21875 132.734375 C 124.199219 132.699219 124.1875 132.675781 124.1875 132.675781 C 124.1875 132.675781 124.1875 132.6875 124.1875 132.695312 C 123.480469 131.96875 122.578125 130.835938 121.316406 129.304688 C 121.316406 129.304688 123.675781 132.382812 123.3125 133.300781 C 123.148438 133.714844 121.855469 133.605469 121.5625 133.53125 C 119.878906 133.152344 118.691406 132.125 117.890625 130.992188 C 117.105469 129.558594 116.625 128.210938 116.355469 126.960938 C 115.203125 121.519531 118.191406 118.023438 118.191406 118.023438 C 116.835938 118.539062 116.074219 118.972656 115.65625 119.300781 C 115.65625 119.289062 115.667969 119.277344 115.671875 119.269531 C 115.671875 119.269531 113.644531 120.6875 113.8125 123.375 L 110.1875 121.523438 C 110.1875 121.523438 110.1875 121.511719 110.179688 121.488281 C 110.179688 121.488281 110.179688 121.488281 110.179688 121.476562 C 110.125 121.230469 109.894531 120.027344 109.816406 118.398438 C 109.800781 118.199219 109.796875 117.988281 109.796875 117.777344 C 109.796875 117.667969 109.792969 117.566406 109.792969 117.457031 C 109.792969 117.457031 109.792969 117.457031 109.792969 117.445312 C 109.792969 117.335938 109.792969 117.226562 109.792969 117.113281 L 109.792969 117.105469 C 109.792969 116.992188 109.792969 116.882812 109.800781 116.773438 C 109.800781 116.773438 109.804688 116.761719 109.804688 116.761719 C 109.800781 116.652344 109.8125 116.542969 109.8125 116.433594 C 109.8125 116.433594 109.8125 116.421875 109.8125 116.421875 C 109.8125 116.3125 109.824219 116.199219 109.835938 116.082031 C 109.835938 116.082031 109.835938 116.070312 109.835938 116.070312 C 109.84375 115.960938 109.855469 115.839844 109.855469 115.730469 C 109.855469 115.71875 109.855469 115.71875 109.859375 115.707031 C 109.867188 115.597656 109.878906 115.476562 109.890625 115.367188 C 109.890625 115.359375 109.890625 115.359375 109.890625 115.347656 C 109.902344 115.238281 109.914062 115.117188 109.933594 115.007812 C 109.9375 114.996094 109.9375 114.996094 109.9375 114.988281 C 109.945312 114.878906 109.96875 114.757812 109.992188 114.648438 C 109.992188 114.636719 109.992188 114.628906 109.992188 114.628906 C 110.015625 114.519531 110.023438 114.398438 110.046875 114.289062 C 110.046875 114.277344 110.046875 114.269531 110.050781 114.257812 C 110.070312 114.148438 110.09375 114.03125 110.113281 113.921875 C 110.117188 113.910156 110.117188 113.898438 110.117188 113.886719 C 110.140625 113.78125 110.160156 113.660156 110.191406 113.554688 C 110.195312 113.542969 110.195312 113.53125 110.195312 113.519531 C 110.21875 113.410156 110.25 113.304688 110.28125 113.1875 C 110.285156 113.175781 110.285156 113.164062 110.296875 113.15625 C 110.328125 113.046875 110.351562 112.9375 110.394531 112.832031 C 110.394531 112.820312 110.40625 112.8125 110.410156 112.789062 C 110.441406 112.683594 110.472656 112.574219 110.515625 112.46875 C 110.519531 112.457031 110.53125 112.4375 110.53125 112.425781 C 110.5625 112.320312 110.605469 112.210938 110.640625 112.105469 C 110.640625 112.09375 110.652344 112.074219 110.65625 112.0625 C 110.699219 111.957031 110.730469 111.847656 110.773438 111.753906 C 110.773438 111.742188 110.785156 111.722656 110.789062 111.710938 C 110.832031 111.605469 110.871094 111.507812 110.914062 111.402344 C 110.929688 111.390625 110.929688 111.371094 110.941406 111.351562 C 110.984375 111.253906 111.039062 111.148438 111.082031 111.054688 C 111.09375 111.042969 111.09375 111.023438 111.109375 111 C 111.160156 110.90625 111.214844 110.8125 111.269531 110.707031 C 111.28125 110.6875 111.285156 110.675781 111.296875 110.652344 C 111.347656 110.558594 111.402344 110.464844 111.46875 110.371094 C 111.480469 110.351562 111.492188 110.339844 111.492188 110.320312 C 111.546875 110.226562 111.609375 110.132812 111.675781 110.050781 C 111.6875 110.027344 111.699219 110.019531 111.710938 109.996094 C 111.777344 109.90625 111.839844 109.820312 111.902344 109.738281 C 111.914062 109.71875 111.929688 109.707031 111.941406 109.6875 C 112.003906 109.605469 112.066406 109.523438 112.140625 109.429688 C 112.15625 109.410156 112.167969 109.398438 112.179688 109.378906 C 112.253906 109.296875 112.316406 109.214844 112.390625 109.132812 C 112.40625 109.113281 112.425781 109.105469 112.441406 109.082031 C 112.515625 109.003906 112.585938 108.933594 112.660156 108.851562 C 112.6875 108.832031 112.699219 108.808594 112.710938 108.800781 C 112.785156 108.730469 112.867188 108.648438 112.941406 108.578125 C 112.964844 108.558594 112.976562 108.550781 113.003906 108.53125 C 113.085938 108.460938 113.171875 108.390625 113.253906 108.320312 C 113.277344 108.300781 113.300781 108.292969 113.324219 108.273438 C 113.410156 108.203125 113.492188 108.144531 113.585938 108.078125 C 113.613281 108.058594 113.632812 108.046875 113.660156 108.027344 C 113.753906 107.96875 113.835938 107.902344 113.929688 107.84375 C 113.953125 107.824219 113.988281 107.816406 114.011719 107.796875 C 114.105469 107.738281 114.199219 107.679688 114.292969 107.625 C 114.328125 107.605469 114.351562 107.597656 114.386719 107.578125 C 114.480469 107.519531 114.585938 107.476562 114.691406 107.417969 C 114.726562 107.398438 114.757812 107.390625 114.785156 107.371094 C 114.886719 107.328125 114.992188 107.28125 115.09375 107.234375 C 115.128906 107.21875 115.164062 107.207031 115.199219 107.191406 C 115.304688 107.144531 115.417969 107.101562 115.519531 107.066406 C 115.554688 107.058594 115.601562 107.039062 115.632812 107.03125 C 115.75 107 115.851562 106.953125 115.976562 106.921875 C 116.023438 106.914062 116.058594 106.894531 116.101562 106.890625 C 116.214844 106.855469 116.332031 106.820312 116.453125 106.789062 C 116.5 106.78125 116.546875 106.765625 116.589844 106.757812 C 116.714844 106.726562 116.828125 106.703125 116.953125 106.679688 C 116.996094 106.675781 117.054688 106.667969 117.097656 106.652344 C 117.222656 106.628906 117.347656 106.609375 117.472656 106.585938 C 117.527344 106.582031 117.582031 106.574219 117.628906 106.566406 C 117.75 106.546875 117.875 106.535156 118.007812 106.515625 C 118.066406 106.511719 118.132812 106.503906 118.1875 106.5 C 118.3125 106.488281 118.445312 106.480469 118.578125 106.46875 C 118.644531 106.464844 118.710938 106.460938 118.777344 106.464844 C 118.910156 106.457031 119.035156 106.457031 119.167969 106.449219 C 119.246094 106.445312 119.320312 106.453125 119.398438 106.449219 C 119.53125 106.449219 119.65625 106.449219 119.785156 106.449219 C 119.886719 106.449219 119.984375 106.457031 120.074219 106.46875 C 120.195312 106.46875 120.304688 106.476562 120.425781 106.476562 C 120.605469 106.484375 120.777344 106.5 120.964844 106.519531 C 121.007812 106.523438 121.054688 106.527344 121.109375 106.53125 C 121.339844 106.554688 121.570312 106.574219 121.808594 106.609375 L 127.691406 113.664062 C 127.164062 114 126.59375 114.53125 126.210938 115.390625 C 126.210938 115.390625 127.925781 114.933594 129.886719 114.828125 C 130.515625 114.832031 131.300781 114.851562 132.050781 114.902344 C 132.105469 114.90625 132.160156 114.910156 132.214844 114.925781 L 132.191406 114.914062 C 132.304688 114.925781 132.414062 114.933594 132.523438 114.945312 C 133.378906 115.027344 134.328125 115.300781 135.253906 115.953125 C 135.304688 115.988281 135.34375 116.015625 135.386719 116.054688 C 135.417969 116.078125 135.449219 116.101562 135.480469 116.117188 C 135.5625 116.179688 135.644531 116.242188 135.714844 116.316406 C 137.777344 118.089844 141.414062 119.898438 143.289062 121.066406 C 144.03125 121.535156 144.496094 121.886719 144.476562 122.105469 C 144.421875 122.664062 142.574219 124.554688 139.027344 124.222656 C 138.488281 124.171875 137.910156 124.0625 137.304688 123.90625 C 136.105469 122.070312 133.855469 120.546875 132.914062 119.960938 C 132.644531 119.792969 132.472656 119.699219 132.472656 119.699219 C 133.253906 120.257812 134.078125 121.835938 134.710938 123.253906 C 134.710938 123.253906 134.710938 123.253906 134.707031 123.265625 C 134.738281 123.324219 134.753906 123.378906 134.78125 123.449219 C 134.789062 123.460938 134.789062 123.480469 134.796875 123.503906 C 134.824219 123.574219 134.851562 123.640625 134.886719 123.722656 C 134.886719 123.722656 134.886719 123.734375 134.898438 123.734375 C 134.96875 123.90625 135.050781 124.113281 135.128906 124.320312 C 135.128906 124.320312 135.128906 124.332031 135.140625 124.332031 C 135.191406 124.480469 135.257812 124.628906 135.320312 124.789062 C 135.355469 124.871094 135.382812 124.949219 135.40625 125.019531 C 135.40625 125.019531 135.417969 125.03125 135.417969 125.042969 C 135.507812 125.269531 135.605469 125.511719 135.703125 125.765625 C 135.703125 125.777344 135.714844 125.777344 135.714844 125.777344 C 135.746094 125.878906 135.792969 125.972656 135.828125 126.074219 C 135.828125 126.074219 135.828125 126.074219 135.828125 126.085938 C 135.863281 126.175781 135.898438 126.269531 135.933594 126.359375 C 135.945312 126.371094 135.945312 126.382812 135.953125 126.394531 C 135.992188 126.476562 136.027344 126.566406 136.050781 126.648438 C 136.0625 126.660156 136.058594 126.679688 136.070312 126.691406 C 136.105469 126.773438 136.132812 126.855469 136.171875 126.921875 C 136.179688 126.945312 136.1875 126.96875 136.195312 126.992188 C 136.222656 127.0625 136.25 127.128906 136.289062 127.199219 C 136.296875 127.222656 136.304688 127.257812 136.324219 127.28125 C 136.351562 127.347656 136.378906 127.40625 136.40625 127.476562 C 136.414062 127.5 136.433594 127.535156 136.441406 127.554688 C 136.472656 127.613281 136.488281 127.671875 136.515625 127.730469 C 136.523438 127.761719 136.542969 127.796875 136.550781 127.820312 C 136.578125 127.878906 136.597656 127.925781 136.613281 127.980469 C 136.621094 128.015625 136.640625 128.039062 136.648438 128.074219 C 136.65625 128.09375 136.675781 128.128906 136.6875 128.152344 C 136.695312 128.175781 136.703125 128.199219 136.710938 128.222656 C 136.71875 128.253906 136.742188 128.28125 136.75 128.3125 C 136.765625 128.359375 136.785156 128.394531 136.804688 128.441406 C 136.8125 128.472656 136.828125 128.507812 136.851562 128.53125 C 136.867188 128.566406 136.886719 128.613281 136.894531 128.648438 C 136.902344 128.679688 136.921875 128.707031 136.929688 128.738281 C 136.949219 128.773438 136.957031 128.808594 136.976562 128.84375 C 136.984375 128.867188 137.003906 128.902344 137.011719 128.921875 C 137.019531 128.957031 137.039062 128.980469 137.050781 129.003906 C 137.058594 129.027344 137.066406 129.050781 137.085938 129.074219 C 137.09375 129.097656 137.113281 129.132812 137.125 129.15625 C 137.132812 129.167969 137.140625 129.191406 137.152344 129.210938 C 137.160156 129.234375 137.179688 129.257812 137.1875 129.28125 C 137.199219 129.292969 137.199219 129.304688 137.207031 129.316406 C 137.21875 129.328125 137.226562 129.351562 137.238281 129.363281 C 137.234375 129.375 137.246094 129.386719 137.257812 129.386719 C 137.539062 129.8125 138.398438 129.949219 138.871094 129.992188 C 139.058594 130.011719 139.191406 130.011719 139.191406 130.011719 C 139.191406 130.011719 139.972656 132.292969 137.265625 132.8125 C 136.917969 132.878906 136.585938 132.890625 136.253906 132.859375 C 135.214844 132.730469 134.300781 132.222656 133.605469 131.707031 Z M 140.167969 145.890625 L 136.742188 144.507812 C 136.617188 143.382812 136.519531 142.28125 136.445312 141.203125 C 136.28125 139.042969 136.199219 136.984375 136.183594 135.015625 C 136.679688 135.050781 137.179688 135.023438 137.664062 134.933594 C 139.550781 134.570312 140.484375 133.578125 140.933594 132.8125 C 141.460938 131.902344 141.558594 131.238281 141.511719 130.78125 C 141.753906 130.914062 142.007812 131.046875 142.25 131.183594 C 142.28125 131.195312 142.3125 131.222656 142.355469 131.234375 C 142.257812 137.816406 142.726562 143.0625 142.890625 144.609375 Z M 144.460938 135 C 143.890625 137.265625 146.027344 140.125 147.441406 141.703125 C 145.65625 140.996094 144.496094 139.429688 143.765625 137.914062 C 143.699219 136.152344 143.65625 134.140625 143.683594 131.957031 C 143.765625 131.996094 143.851562 132.050781 143.933594 132.089844 L 143.910156 132.132812 L 144.03125 132.132812 C 145.484375 132.921875 146.800781 133.640625 147.699219 134.113281 C 147.890625 134.207031 148.070312 134.300781 148.25 134.375 L 148.710938 136.910156 L 149.289062 140.167969 L 149.425781 140.953125 C 146.496094 138.558594 144.460938 135 144.460938 135 Z M 154.5 143.902344 L 154.054688 147.667969 L 153.691406 150.714844 L 153.535156 152.046875 L 153.402344 151.085938 L 152.992188 148.035156 L 152.414062 143.796875 C 153.109375 143.847656 153.8125 143.882812 154.5 143.902344 Z M 152.726562 153.671875 L 152.625 153.484375 L 149.371094 134.722656 C 149.488281 134.742188 149.621094 134.765625 149.742188 134.777344 C 149.871094 134.789062 150.003906 134.792969 150.128906 134.792969 Z M 151.328125 133.226562 C 150.882812 133.726562 149.800781 134.011719 148.199219 133.152344 C 146.429688 132.203125 142.910156 130.285156 140.117188 128.761719 C 140.117188 128.761719 140.097656 128.75 140.074219 128.738281 C 139.558594 128.457031 139.074219 128.191406 138.621094 127.949219 C 138.582031 127.667969 138.535156 127.34375 138.484375 127.050781 C 138.433594 126.761719 138.371094 126.5 138.296875 126.316406 C 138.460938 126.34375 138.625 126.359375 138.800781 126.375 C 140.316406 126.519531 141.664062 126.335938 142.796875 125.957031 C 146.507812 127.695312 150.242188 129.671875 151.0625 130.851562 C 151.160156 130.992188 151.246094 131.132812 151.320312 131.273438 C 151.726562 132.050781 151.734375 132.769531 151.328125 133.226562 Z M 146.851562 126.734375 C 145.976562 126.277344 145.058594 125.816406 144.144531 125.375 C 144.472656 125.199219 144.769531 124.992188 145.03125 124.785156 C 145.609375 125.105469 146.179688 125.425781 146.734375 125.742188 L 146.679688 125.769531 Z M 147.929688 126.472656 C 148.207031 126.476562 148.605469 126.601562 149.054688 127.109375 L 149.1875 128.046875 C 148.84375 127.839844 148.476562 127.628906 148.085938 127.402344 Z M 152.800781 132.394531 C 152.777344 132.414062 152.761719 132.433594 152.738281 132.453125 C 152.761719 131.75 152.5 130.984375 151.972656 130.230469 C 151.679688 129.816406 151.125 129.34375 150.410156 128.835938 L 150.292969 127.941406 C 151.480469 128.75 152.367188 129.472656 152.691406 130.011719 C 153.265625 130.96875 153.3125 131.878906 152.800781 132.394531 Z M 156.441406 135.585938 C 156.363281 135.488281 156.285156 135.382812 156.207031 135.285156 C 155.46875 134.398438 154.585938 133.664062 153.667969 133.070312 C 153.679688 133.0625 153.691406 133.039062 153.703125 133.019531 C 153.84375 132.855469 153.960938 132.667969 154.042969 132.46875 C 154.160156 132.203125 154.230469 131.921875 154.246094 131.613281 C 154.261719 131.339844 154.234375 131.050781 154.171875 130.757812 C 155.554688 132.1875 156.796875 133.488281 157.3125 136.117188 C 157.476562 134.367188 156.183594 131.023438 156.183594 131.023438 C 154.359375 130.410156 150.59375 125.683594 150.59375 125.683594 C 150.875 126.351562 151.175781 126.929688 151.492188 127.457031 C 151.035156 127.128906 150.515625 126.769531 149.972656 126.421875 C 149.929688 126.394531 149.878906 126.355469 149.835938 126.332031 C 149.34375 125.800781 148.835938 125.542969 148.382812 125.433594 C 147.5625 124.945312 146.710938 124.457031 145.859375 123.980469 C 146.324219 123.417969 146.589844 122.835938 146.640625 122.277344 C 146.789062 120.703125 145.402344 119.796875 144.742188 119.359375 C 144.679688 119.320312 144.617188 119.28125 144.554688 119.242188 C 144.558594 119.222656 144.558594 119.199219 144.5625 119.179688 C 144.550781 119.1875 144.535156 119.210938 144.523438 119.21875 C 143.917969 118.84375 143.183594 118.417969 142.339844 117.941406 C 142.277344 117.902344 142.203125 117.863281 142.128906 117.824219 C 142.757812 115.035156 143.613281 112.066406 144.898438 109.949219 C 146.628906 107.074219 148.039062 105.265625 148.847656 104.347656 L 149.1875 117.8125 C 149.183594 117.945312 149.242188 121.109375 150.863281 124.496094 C 151.824219 126.507812 153.457031 128.824219 156.238281 130.476562 C 158.5625 133.664062 157.847656 138.191406 157.847656 138.191406 C 157.847656 138.179688 157.839844 138.167969 157.832031 138.144531 C 157.777344 137.984375 157.726562 137.835938 157.664062 137.6875 C 157.335938 136.917969 156.925781 136.214844 156.441406 135.585938 Z M 163.292969 142.378906 C 163.144531 142.398438 162.980469 142.402344 162.789062 142.417969 C 162.097656 142.476562 161.140625 142.527344 160.027344 142.578125 C 158.847656 142.621094 157.496094 142.648438 156.070312 142.625 C 156.53125 142.207031 158.695312 140.355469 161.957031 138.773438 C 161.382812 139.925781 160.613281 141.652344 161.753906 140.710938 C 162.691406 139.9375 164.039062 138.441406 165.351562 137.425781 C 165.660156 137.332031 165.980469 137.230469 166.296875 137.152344 C 165.878906 138.878906 165.453125 140.484375 165.082031 141.828125 C 164.613281 142.113281 164.015625 142.3125 163.292969 142.378906 Z M 159.046875 138.742188 C 159.046875 138.742188 159.050781 138.734375 159.050781 138.734375 C 159.113281 138.519531 160.007812 135.488281 161.988281 132.453125 C 162.085938 132.460938 162.171875 132.480469 162.269531 132.488281 C 162.699219 132.539062 163.113281 132.589844 163.511719 132.628906 C 163.859375 132.660156 164.203125 132.683594 164.542969 132.703125 C 166.480469 132.820312 168.097656 132.714844 169.390625 132.386719 C 169.6875 133.363281 169.933594 134.28125 170.039062 134.941406 C 165.035156 134.78125 161.277344 136.945312 159.046875 138.742188 Z M 171.007812 145.132812 C 170.84375 145.671875 170.683594 146.195312 170.5 146.730469 L 167.722656 147.320312 L 165.25 145.9375 C 165.671875 144.621094 166.757812 141.082031 167.753906 136.835938 C 167.777344 136.835938 167.789062 136.828125 167.800781 136.828125 C 169.34375 136.53125 170.996094 136.390625 172.726562 136.484375 C 172.398438 139.28125 171.84375 142.230469 171.007812 145.132812 Z M 172.859375 135.328125 C 172.484375 133.769531 172.167969 132.414062 171.863281 131.183594 C 172.164062 130.925781 172.433594 130.640625 172.652344 130.320312 C 172.925781 129.914062 173.097656 129.488281 173.214844 129.058594 C 173.1875 131.007812 173.085938 133.121094 172.859375 135.328125 Z M 170.902344 126.675781 C 170.867188 126.695312 170.832031 126.726562 170.808594 126.746094 L 170.976562 126.839844 C 171.121094 127.316406 171.21875 127.910156 171.089844 128.472656 C 171.066406 128.578125 171.035156 128.6875 170.980469 128.792969 C 170.925781 128.898438 170.882812 128.992188 170.820312 129.097656 C 170.742188 129.210938 170.628906 129.34375 170.484375 129.472656 C 169.664062 130.191406 167.609375 130.949219 162.554688 130.308594 C 151.675781 128.921875 151.394531 118.253906 151.382812 117.789062 L 151.144531 108.535156 L 151.019531 103.945312 C 151.15625 103.921875 151.289062 103.914062 151.410156 103.9375 L 152.0625 104.050781 L 153.582031 119.695312 L 153.671875 119.582031 C 154.027344 120.632812 154.652344 124.949219 161.957031 127.09375 C 162.175781 127.160156 162.378906 127.210938 162.585938 127.265625 C 162.640625 127.28125 162.683594 127.285156 162.726562 127.300781 C 162.929688 127.351562 163.125 127.402344 163.320312 127.445312 C 163.332031 127.445312 163.355469 127.445312 163.367188 127.449219 C 163.550781 127.488281 163.722656 127.527344 163.898438 127.554688 C 163.941406 127.558594 163.984375 127.570312 164.027344 127.578125 C 164.214844 127.605469 164.386719 127.644531 164.5625 127.671875 C 164.585938 127.671875 164.605469 127.675781 164.628906 127.675781 C 164.78125 127.703125 164.933594 127.714844 165.089844 127.730469 C 165.121094 127.734375 165.164062 127.738281 165.199219 127.742188 C 165.363281 127.757812 165.527344 127.773438 165.679688 127.785156 C 165.703125 127.789062 165.734375 127.792969 165.757812 127.792969 C 165.902344 127.808594 166.035156 127.808594 166.175781 127.8125 C 166.210938 127.8125 166.230469 127.816406 166.265625 127.820312 C 166.421875 127.824219 166.5625 127.824219 166.707031 127.816406 C 166.730469 127.820312 166.753906 127.820312 166.777344 127.8125 C 166.90625 127.8125 167.03125 127.804688 167.152344 127.792969 C 167.175781 127.792969 167.199219 127.796875 167.21875 127.789062 C 167.355469 127.777344 167.488281 127.769531 167.621094 127.757812 C 167.644531 127.761719 167.65625 127.75 167.679688 127.753906 C 167.800781 127.742188 167.925781 127.722656 168.035156 127.710938 C 168.046875 127.710938 168.058594 127.710938 168.070312 127.703125 C 168.195312 127.679688 168.316406 127.660156 168.429688 127.636719 C 168.441406 127.636719 168.453125 127.628906 168.476562 127.628906 C 168.710938 127.585938 168.9375 127.53125 169.144531 127.472656 C 169.15625 127.472656 169.15625 127.460938 169.167969 127.464844 C 169.382812 127.40625 169.578125 127.335938 169.761719 127.265625 L 173.527344 120.179688 C 172.804688 120.34375 171.910156 120.421875 170.808594 120.363281 L 167.789062 126.117188 C 167.789062 126.117188 167.539062 126.152344 167.105469 126.175781 L 170.136719 120.3125 C 169.886719 120.289062 169.636719 120.242188 169.386719 120.1875 L 166.449219 126.203125 C 163.53125 126.261719 156.640625 125.722656 153.675781 119.550781 L 160.40625 110.148438 L 160.847656 109.589844 L 160.894531 109.664062 L 160.855469 109.605469 L 162.097656 112.28125 L 167.078125 105.242188 L 162.507812 110.894531 L 161.054688 107.503906 L 153.84375 118.472656 C 153.820312 118.105469 153.265625 108.128906 154.238281 100.824219 L 154.367188 100.625 C 154.792969 103.074219 156.019531 106.730469 159.472656 104.539062 C 160.15625 104.09375 160.597656 103.175781 160.996094 102.230469 C 159.597656 104.617188 155.703125 106.691406 155.078125 99.542969 L 160.992188 90.464844 C 162.492188 98.089844 161.355469 101.449219 161.179688 101.90625 C 162.652344 98.511719 162.503906 93.609375 162.171875 90.417969 C 163.277344 92.808594 165.472656 97.707031 166.679688 101.738281 C 166.679688 101.738281 166.476562 100.804688 166.179688 99.382812 L 163.453125 86.699219 L 163.503906 86.625 C 163.523438 86.628906 163.546875 86.628906 163.566406 86.632812 C 163.898438 86.664062 165.007812 86.746094 165.878906 86.804688 C 165.886719 86.839844 165.890625 86.882812 165.898438 86.917969 C 166.898438 92.796875 171.023438 99.222656 175.175781 99.125 C 178.660156 99.054688 180.4375 95.347656 179.835938 90.046875 C 180.03125 90.121094 180.222656 90.207031 180.351562 90.25 C 180.351562 90.25 180.359375 90.25 180.359375 90.25 C 180.445312 90.28125 180.5 90.308594 180.511719 90.308594 C 180.511719 90.308594 180.511719 90.308594 180.507812 90.320312 C 180.691406 90.394531 180.859375 90.476562 181.03125 90.558594 L 181.636719 102.25 C 170.15625 100.664062 166.691406 101.730469 166.691406 101.730469 C 167.707031 101.746094 168.699219 101.796875 169.65625 101.851562 C 175.070312 102.230469 179.492188 103.261719 181.640625 103.839844 L 180.632812 105.289062 L 165.824219 102.828125 L 167.105469 105.222656 L 181.722656 107.480469 L 182.734375 107.640625 L 179.445312 113.546875 L 179.429688 113.578125 L 178.871094 114.574219 L 162.109375 112.28125 L 175.699219 114.863281 L 175.359375 115.546875 L 158.417969 113.382812 C 158.417969 113.382812 160.222656 118.363281 169.257812 119.65625 C 169.9375 119.753906 170.550781 119.808594 171.125 119.832031 C 171.234375 119.832031 171.34375 119.839844 171.445312 119.839844 C 171.546875 119.835938 171.65625 119.835938 171.753906 119.835938 C 171.753906 119.835938 171.753906 119.835938 171.765625 119.835938 C 171.867188 119.835938 171.964844 119.832031 172.054688 119.828125 C 172.054688 119.828125 172.054688 119.828125 172.066406 119.832031 C 172.15625 119.828125 172.253906 119.828125 172.34375 119.8125 C 172.34375 119.8125 172.355469 119.8125 172.355469 119.8125 C 172.445312 119.8125 172.535156 119.796875 172.613281 119.792969 C 172.613281 119.792969 172.625 119.796875 172.625 119.796875 C 172.710938 119.792969 172.789062 119.777344 172.871094 119.761719 C 172.871094 119.761719 172.878906 119.765625 172.878906 119.765625 C 172.960938 119.75 173.039062 119.746094 173.117188 119.730469 C 173.117188 119.730469 173.128906 119.730469 173.128906 119.730469 C 173.207031 119.71875 173.273438 119.703125 173.351562 119.699219 C 173.351562 119.699219 173.363281 119.699219 173.363281 119.699219 C 173.441406 119.683594 173.511719 119.667969 173.578125 119.652344 C 173.578125 119.652344 173.589844 119.652344 173.589844 119.652344 C 173.65625 119.636719 173.726562 119.621094 173.792969 119.605469 C 173.792969 119.605469 173.804688 119.609375 173.804688 119.609375 C 173.871094 119.59375 173.941406 119.578125 173.996094 119.546875 C 173.996094 119.546875 174.007812 119.550781 174.007812 119.550781 C 174.078125 119.535156 174.132812 119.507812 174.191406 119.488281 C 174.191406 119.488281 174.203125 119.492188 174.203125 119.492188 C 174.257812 119.472656 174.316406 119.445312 174.386719 119.429688 C 174.386719 119.429688 174.386719 119.429688 174.394531 119.433594 C 174.453125 119.402344 174.511719 119.386719 174.570312 119.359375 C 174.628906 119.332031 174.683594 119.316406 174.730469 119.285156 C 174.789062 119.257812 174.835938 119.230469 174.894531 119.203125 Z M 188.238281 160.222656 C 186.589844 159.957031 184.898438 159.71875 183.179688 159.492188 C 181.769531 159.304688 180.34375 159.136719 178.886719 158.96875 C 178.382812 158.910156 177.878906 158.859375 177.375 158.804688 C 177.023438 157.003906 177.101562 154.769531 178.972656 153.34375 C 178.484375 153.695312 177.328125 154.601562 176.367188 155.738281 C 176.652344 154.484375 176.988281 153.148438 177.339844 151.855469 C 179.074219 146.839844 181.3125 146.71875 181.546875 138.792969 C 181.546875 138.792969 180.371094 141.753906 178.941406 143.882812 C 179.332031 140.925781 179.476562 135.949219 177.285156 131.472656 C 177.285156 131.472656 179.625 144.75 175.59375 144.164062 C 174.625 143.398438 174.085938 142.421875 173.796875 141.476562 C 173.644531 140.988281 173.566406 140.503906 173.519531 140.070312 C 174.570312 134.1875 174.628906 128.515625 174.441406 124.46875 L 176.125 121.304688 C 177.605469 122.304688 179.488281 123.929688 181.082031 126.40625 C 181.03125 126.371094 180.992188 126.332031 180.9375 126.304688 C 180.9375 126.304688 184.875 132.714844 183.402344 139.089844 C 183.347656 139.316406 183.292969 139.542969 183.226562 139.78125 C 183.226562 139.78125 183.785156 139.367188 184.316406 138.191406 C 184.3125 139.417969 184.234375 140.601562 184.160156 141.632812 C 184.121094 142.148438 184.089844 142.632812 184.070312 143.070312 C 184.054688 143.46875 184.042969 143.832031 184.042969 144.171875 C 183.96875 145.070312 183.867188 146.03125 183.75 146.9375 C 183.589844 148.050781 183.382812 149.066406 183.101562 149.714844 C 183.101562 149.714844 183.273438 149.554688 183.550781 149.171875 C 183.871094 148.726562 184.328125 147.996094 184.808594 146.859375 C 185.753906 148.230469 189.554688 154.957031 190.472656 160.617188 C 189.753906 160.464844 189.003906 160.335938 188.238281 160.222656 Z M 179.113281 153.246094 C 179.148438 153.230469 179.175781 153.199219 179.210938 153.179688 C 179.210938 153.179688 179.175781 153.210938 179.113281 153.246094 Z M 178.984375 153.347656 C 179.03125 153.316406 179.066406 153.277344 179.113281 153.246094 C 179.078125 153.277344 179.03125 153.304688 178.984375 153.347656 Z M 178.984375 153.347656 " fill-opacity="1" fill-rule="nonzero"/></g></g></g><g clip-path="url(#7dc00efef7)"><g clip-path="url(#a79c2beae7)"><g clip-path="url(#fa5da648e0)"><g clip-path="url(#f1e868025b)"><path fill="#000000" d="M 106.964844 144.921875 C 106.667969 145.066406 106.335938 145.234375 105.980469 145.429688 C 105.3125 145.789062 104.71875 146.246094 104.199219 146.800781 C 102.566406 148.566406 100.53125 150.421875 98.230469 151.785156 C 97.59375 152.164062 96.933594 152.488281 96.25 152.761719 L 98.566406 148.835938 C 98.710938 148.59375 98.382812 148.355469 98.199219 148.5625 C 95.238281 151.871094 90.367188 157.011719 90.367188 157.011719 C 86.148438 161.003906 82.859375 165.070312 81.292969 167.371094 C 80.960938 167.855469 81.492188 168.46875 82.023438 168.210938 C 82.628906 167.917969 97.527344 161.445312 97.527344 161.445312 C 97.785156 161.339844 97.667969 160.953125 97.394531 161.007812 L 88.84375 162.695312 C 90.292969 161.242188 91.996094 159.804688 93.871094 158.691406 C 94.558594 158.28125 95.273438 157.9375 96.019531 157.648438 C 96.917969 157.296875 97.714844 156.792969 98.414062 156.132812 C 102.703125 152.132812 106.121094 148.074219 107.695312 145.765625 C 108.027344 145.277344 107.5 144.664062 106.964844 144.921875 Z M 106.964844 144.921875 " fill-opacity="1" fill-rule="nonzero"/></g></g></g></g><g clip-path="url(#e36616ef15)"><g clip-path="url(#0eb4eca159)"><g clip-path="url(#ffd5805147)"><g clip-path="url(#9d6eb83820)"><path fill="#000000" d="M 103.0625 157.453125 C 103.144531 157.40625 103.167969 157.339844 103.140625 157.253906 C 103.109375 157.164062 103.046875 157.128906 102.957031 157.144531 L 99.847656 157.613281 C 99.484375 157.667969 99.15625 157.804688 98.867188 158.023438 L 97.757812 158.855469 C 97.679688 158.917969 97.652344 158.996094 97.679688 159.089844 C 97.710938 159.1875 97.773438 159.238281 97.875 159.246094 L 98.984375 159.320312 C 99.410156 159.351562 99.8125 159.261719 100.1875 159.050781 Z M 103.0625 157.453125 " fill-opacity="1" fill-rule="nonzero"/></g></g></g></g><g clip-path="url(#4c6878e680)"><g clip-path="url(#301530051e)"><g clip-path="url(#06102b6860)"><g clip-path="url(#80066b1bea)"><path fill="#000000" d="M 85.734375 159.582031 L 86.414062 158.707031 C 86.675781 158.367188 86.824219 157.984375 86.859375 157.554688 L 87.128906 154.28125 C 87.136719 154.1875 87.09375 154.128906 87.003906 154.105469 C 86.914062 154.082031 86.851562 154.113281 86.8125 154.195312 L 85.472656 157.039062 C 85.316406 157.367188 85.246094 157.714844 85.269531 158.082031 L 85.34375 159.460938 C 85.351562 159.5625 85.402344 159.628906 85.496094 159.660156 C 85.59375 159.6875 85.671875 159.664062 85.734375 159.582031 Z M 85.734375 159.582031 " fill-opacity="1" fill-rule="nonzero"/></g></g></g></g><g fill="#2b3a55" fill-opacity="1"><g transform="translate(78.7242, 200.207205)"><g><path d="M 1.046875 0 L 1.046875 -30.09375 L 6.859375 -30.09375 L 6.859375 0 Z M 1.046875 0 "/></g></g></g><g fill="#2b3a55" fill-opacity="1"><g transform="translate(86.67662, 200.207205)"><g><path d="M 1.328125 -30.09375 L 10.578125 -30.09375 C 12.046875 -30.09375 13.179688 -29.757812 13.984375 -29.09375 C 14.796875 -28.425781 15.34375 -27.488281 15.625 -26.28125 C 15.90625 -25.082031 16.046875 -23.550781 16.046875 -21.6875 C 16.046875 -19.976562 15.820312 -18.644531 15.375 -17.6875 C 14.9375 -16.726562 14.164062 -16.0625 13.0625 -15.6875 C 13.976562 -15.5 14.640625 -15.039062 15.046875 -14.3125 C 15.453125 -13.59375 15.65625 -12.617188 15.65625 -11.390625 L 15.59375 0 L 9.703125 0 L 9.703125 -11.765625 C 9.703125 -12.609375 9.535156 -13.144531 9.203125 -13.375 C 8.878906 -13.613281 8.285156 -13.734375 7.421875 -13.734375 L 7.421875 0 L 1.328125 0 Z M 8.890625 -18.953125 C 9.734375 -18.953125 10.15625 -19.863281 10.15625 -21.6875 C 10.15625 -22.476562 10.117188 -23.070312 10.046875 -23.46875 C 9.984375 -23.863281 9.859375 -24.132812 9.671875 -24.28125 C 9.484375 -24.4375 9.210938 -24.515625 8.859375 -24.515625 L 7.46875 -24.515625 L 7.46875 -18.953125 Z M 8.890625 -18.953125 "/></g></g></g><g fill="#2b3a55" fill-opacity="1"><g transform="translate(103.387211, 200.207205)"><g><path d="M 8.515625 0.28125 C 6.085938 0.28125 4.242188 -0.457031 2.984375 -1.9375 C 1.722656 -3.425781 1.09375 -5.515625 1.09375 -8.203125 L 1.09375 -22.53125 C 1.09375 -25.113281 1.722656 -27.066406 2.984375 -28.390625 C 4.242188 -29.710938 6.085938 -30.375 8.515625 -30.375 C 10.941406 -30.375 12.785156 -29.710938 14.046875 -28.390625 C 15.304688 -27.066406 15.9375 -25.113281 15.9375 -22.53125 L 15.9375 -8.203125 C 15.9375 -5.492188 15.304688 -3.398438 14.046875 -1.921875 C 12.785156 -0.453125 10.941406 0.28125 8.515625 0.28125 Z M 8.515625 -5.25 C 9.046875 -5.25 9.40625 -5.484375 9.59375 -5.953125 C 9.78125 -6.421875 9.875 -7.078125 9.875 -7.921875 L 9.875 -22.625 C 9.875 -23.28125 9.785156 -23.8125 9.609375 -24.21875 C 9.441406 -24.632812 9.085938 -24.84375 8.546875 -24.84375 C 7.546875 -24.84375 7.046875 -24.082031 7.046875 -22.5625 L 7.046875 -7.875 C 7.046875 -7.007812 7.148438 -6.351562 7.359375 -5.90625 C 7.566406 -5.46875 7.953125 -5.25 8.515625 -5.25 Z M 8.515625 -5.25 "/></g></g></g><g fill="#2b3a55" fill-opacity="1"><g transform="translate(120.413098, 200.207205)"><g><path d="M 1.328125 0 L 1.328125 -30.09375 L 7.53125 -30.09375 L 10.296875 -15.6875 L 10.296875 -30.09375 L 16.109375 -30.09375 L 16.109375 0 L 10.234375 0 L 7.21875 -15.0625 L 7.21875 0 Z M 1.328125 0 "/></g></g></g><g fill="#2b3a55" fill-opacity="1"><g transform="translate(137.859377, 200.207205)"><g/></g></g><g fill="#2b3a55" fill-opacity="1"><g transform="translate(146.057029, 200.207205)"><g><path d="M 3.671875 0 L 0.453125 -30.09375 L 6.34375 -30.09375 L 8.015625 -11.109375 L 9.703125 -30.09375 L 15.3125 -30.09375 L 16.921875 -11.109375 L 18.53125 -30.09375 L 24.484375 -30.09375 L 21.1875 0 L 13.984375 0 L 12.46875 -14.5 L 11.03125 0 Z M 3.671875 0 "/></g></g></g><g fill="#2b3a55" fill-opacity="1"><g transform="translate(171.0003, 200.207205)"><g><path d="M 8.515625 0.28125 C 6.085938 0.28125 4.242188 -0.457031 2.984375 -1.9375 C 1.722656 -3.425781 1.09375 -5.515625 1.09375 -8.203125 L 1.09375 -22.53125 C 1.09375 -25.113281 1.722656 -27.066406 2.984375 -28.390625 C 4.242188 -29.710938 6.085938 -30.375 8.515625 -30.375 C 10.941406 -30.375 12.785156 -29.710938 14.046875 -28.390625 C 15.304688 -27.066406 15.9375 -25.113281 15.9375 -22.53125 L 15.9375 -8.203125 C 15.9375 -5.492188 15.304688 -3.398438 14.046875 -1.921875 C 12.785156 -0.453125 10.941406 0.28125 8.515625 0.28125 Z M 8.515625 -5.25 C 9.046875 -5.25 9.40625 -5.484375 9.59375 -5.953125 C 9.78125 -6.421875 9.875 -7.078125 9.875 -7.921875 L 9.875 -22.625 C 9.875 -23.28125 9.785156 -23.8125 9.609375 -24.21875 C 9.441406 -24.632812 9.085938 -24.84375 8.546875 -24.84375 C 7.546875 -24.84375 7.046875 -24.082031 7.046875 -22.5625 L 7.046875 -7.875 C 7.046875 -7.007812 7.148438 -6.351562 7.359375 -5.90625 C 7.566406 -5.46875 7.953125 -5.25 8.515625 -5.25 Z M 8.515625 -5.25 "/></g></g></g><g fill="#2b3a55" fill-opacity="1"><g transform="translate(188.026187, 200.207205)"><g><path d="M 1.328125 -30.09375 L 10.578125 -30.09375 C 12.046875 -30.09375 13.179688 -29.757812 13.984375 -29.09375 C 14.796875 -28.425781 15.34375 -27.488281 15.625 -26.28125 C 15.90625 -25.082031 16.046875 -23.550781 16.046875 -21.6875 C 16.046875 -19.976562 15.820312 -18.644531 15.375 -17.6875 C 14.9375 -16.726562 14.164062 -16.0625 13.0625 -15.6875 C 13.976562 -15.5 14.640625 -15.039062 15.046875 -14.3125 C 15.453125 -13.59375 15.65625 -12.617188 15.65625 -11.390625 L 15.59375 0 L 9.703125 0 L 9.703125 -11.765625 C 9.703125 -12.609375 9.535156 -13.144531 9.203125 -13.375 C 8.878906 -13.613281 8.285156 -13.734375 7.421875 -13.734375 L 7.421875 0 L 1.328125 0 Z M 8.890625 -18.953125 C 9.734375 -18.953125 10.15625 -19.863281 10.15625 -21.6875 C 10.15625 -22.476562 10.117188 -23.070312 10.046875 -23.46875 C 9.984375 -23.863281 9.859375 -24.132812 9.671875 -24.28125 C 9.484375 -24.4375 9.210938 -24.515625 8.859375 -24.515625 L 7.46875 -24.515625 L 7.46875 -18.953125 Z M 8.890625 -18.953125 "/></g></g></g><g fill="#2b3a55" fill-opacity="1"><g transform="translate(204.736778, 200.207205)"><g><path d="M 1.328125 0 L 1.328125 -30.09375 L 7.28125 -30.09375 L 7.28125 -18.046875 L 10.09375 -30.09375 L 16.15625 -30.09375 L 12.78125 -16.328125 L 16.84375 0 L 10.609375 0 L 7.328125 -14.578125 L 7.328125 0 Z M 1.328125 0 "/></g></g></g></svg>