<svg xmlns="http://www.w3.org/2000/svg" xmlns:xlink="http://www.w3.org/1999/xlink" width="400" zoomAndPan="magnify" viewBox="0 0 300 299.999988" height="400" preserveAspectRatio="xMidYMid meet" version="1.0"><defs><g/><clipPath id="05e82a3215"><path d="M 81.9375 117 L 136 117 L 136 144 L 81.9375 144 Z M 81.9375 117 " clip-rule="nonzero"/></clipPath><clipPath id="c38045edef"><path d="M 83 56 L 218.4375 56 L 218.4375 179 L 83 179 Z M 83 56 " clip-rule="nonzero"/></clipPath></defs><rect x="-30" width="360" fill="#ffffff" y="-29.999999" height="359.999986" fill-opacity="1"/><rect x="-30" width="360" fill="#ffffff" y="-29.999999" height="359.999986" fill-opacity="1"/><rect x="-30" width="360" fill="#001119" y="-29.999999" height="359.999986" fill-opacity="1"/><g clip-path="url(#05e82a3215)"><path fill="#a6a6a6" d="M 110.980469 117.253906 C 109.65625 117.253906 108.332031 117.253906 106.894531 117.253906 L 81.9375 143.636719 C 96.183594 143.636719 105.238281 143.636719 110.980469 143.636719 L 111.976562 142.535156 L 135.941406 117.253906 C 131.632812 117.253906 124.125 117.253906 110.980469 117.253906 Z M 110.980469 117.253906 " fill-opacity="1" fill-rule="evenodd"/></g><path fill="#a6a6a6" d="M 159.132812 130.335938 L 174.703125 109.777344 L 190.054688 124.617188 L 190.054688 121.539062 L 175.585938 108.238281 L 147.09375 108.238281 L 141.792969 113.953125 L 138.589844 117.253906 L 138.703125 117.253906 L 151.292969 130.113281 Z M 159.132812 130.335938 " fill-opacity="1" fill-rule="evenodd"/><path fill="#00a0ea" d="M 171.390625 127.695312 L 175.367188 127.695312 L 175.367188 131.652344 L 171.390625 131.652344 Z M 171.390625 127.695312 " fill-opacity="1" fill-rule="evenodd"/><path fill="#00a0ea" d="M 171.390625 133.523438 L 175.367188 133.523438 L 175.367188 137.480469 L 171.390625 137.480469 Z M 171.390625 133.523438 " fill-opacity="1" fill-rule="evenodd"/><path fill="#00a0ea" d="M 171.390625 139.238281 L 175.367188 139.238281 L 175.367188 143.195312 L 171.390625 143.195312 Z M 171.390625 139.238281 " fill-opacity="1" fill-rule="evenodd"/><path fill="#00a0ea" d="M 177.132812 139.238281 L 181.109375 139.238281 L 181.109375 143.195312 L 177.132812 143.195312 Z M 177.132812 139.238281 " fill-opacity="1" fill-rule="evenodd"/><path fill="#00a0ea" d="M 177.132812 133.523438 L 181.109375 133.523438 L 181.109375 137.480469 L 177.132812 137.480469 Z M 177.132812 133.523438 " fill-opacity="1" fill-rule="evenodd"/><path fill="#00a0ea" d="M 177.132812 127.695312 L 181.109375 127.695312 L 181.109375 131.652344 L 177.132812 131.652344 Z M 177.132812 127.695312 " fill-opacity="1" fill-rule="evenodd"/><path fill="#00a0ea" d="M 135.609375 135.5 L 139.585938 135.5 L 139.585938 139.457031 L 135.609375 139.457031 Z M 135.609375 135.5 " fill-opacity="1" fill-rule="evenodd"/><path fill="#00a0ea" d="M 135.609375 141.214844 L 139.585938 141.214844 L 139.585938 145.175781 L 135.609375 145.175781 Z M 135.609375 141.214844 " fill-opacity="1" fill-rule="evenodd"/><path fill="#00a0ea" d="M 129.757812 141.214844 L 133.84375 141.214844 L 133.84375 145.175781 L 129.757812 145.175781 Z M 129.757812 141.214844 " fill-opacity="1" fill-rule="evenodd"/><path fill="#00a0ea" d="M 129.757812 135.5 L 133.84375 135.5 L 133.84375 139.457031 L 129.757812 139.457031 Z M 129.757812 135.5 " fill-opacity="1" fill-rule="evenodd"/><g clip-path="url(#c38045edef)"><path fill="#00a0ea" d="M 187.734375 169.246094 C 211.808594 164.300781 218.878906 143.746094 218.4375 128.027344 C 217.882812 109.777344 208.609375 93.839844 193.699219 84.496094 L 193.808594 76.691406 L 183.980469 72.292969 L 178.679688 75.371094 L 178.679688 63.058594 L 164.433594 56.132812 C 161.007812 57.671875 155.929688 59.980469 148.417969 63.609375 L 148.417969 72.734375 L 139.695312 76.800781 L 139.695312 81.964844 C 127.328125 88.011719 117.71875 98.457031 113.078125 111.207031 C 112.75 112.085938 112.417969 112.964844 112.195312 113.84375 L 138.039062 114.066406 L 143.671875 107.910156 L 143.558594 90.871094 L 152.949219 86.253906 L 152.949219 104.722656 L 166.089844 104.609375 C 166.089844 91.75 166.089844 82.734375 166.089844 76.359375 C 165.980469 64.707031 165.757812 61.851562 165.980469 60.53125 C 166.089844 60.089844 166.199219 59.871094 166.308594 59.542969 C 166.863281 58.441406 166.640625 58.992188 166.421875 59.542969 L 176.914062 64.488281 L 176.914062 106.261719 L 184.421875 113.074219 L 184.421875 74.820312 L 192.042969 78.117188 L 192.042969 83.503906 C 192.042969 107.578125 192.375 131.542969 192.375 155.617188 C 174.8125 164.410156 158.46875 157.375 141.574219 153.96875 C 133.621094 152.320312 125.449219 151.441406 117.054688 153.417969 C 106.453125 155.835938 95.410156 162.761719 83.59375 178.152344 C 96.074219 164.410156 108.773438 159.792969 121.253906 159.464844 C 126.332031 159.355469 131.414062 159.902344 136.382812 160.785156 C 155.046875 164.300781 172.714844 172.875 187.957031 169.246094 Z M 193.699219 84.496094 L 191.820312 83.394531 C 192.484375 83.726562 193.148438 84.164062 193.699219 84.496094 Z M 193.699219 84.496094 " fill-opacity="1" fill-rule="evenodd"/></g><g fill="#a6a6a6" fill-opacity="1"><g transform="translate(63.384675, 216.361114)"><g><path d="M 1 -27.996094 L 1 -22.710938 L 3.203125 -22.710938 L 3.203125 -5.328125 L 1 -5.328125 L 1 0 L 23.429688 0 L 23.429688 -10.414062 L 16.703125 -10.414062 L 16.703125 -5.328125 L 11.535156 -5.328125 L 11.535156 -22.710938 L 13.65625 -22.710938 L 13.65625 -27.996094 Z M 1 -27.996094 "/></g></g></g><g fill="#a6a6a6" fill-opacity="1"><g transform="translate(87.816575, 216.361114)"><g><path d="M 0.601562 -27.996094 L 0.601562 -22.789062 L 2.84375 -22.789062 L 2.84375 -12.898438 C 2.84375 -3.804688 7.167969 0.441406 15.261719 0.679688 C 22.789062 0.679688 26.753906 -3.605469 26.753906 -13.097656 L 26.753906 -22.832031 L 28.917969 -22.832031 L 28.917969 -27.996094 L 17.0625 -27.996094 L 17.0625 -22.710938 L 19.226562 -22.710938 L 19.226562 -14.21875 C 19.226562 -7.328125 17.625 -6.367188 15.179688 -6.367188 C 12.617188 -6.367188 11.175781 -7.730469 11.175781 -14.179688 L 11.175781 -22.832031 L 13.335938 -22.832031 L 13.335938 -27.996094 Z M 0.601562 -27.996094 "/></g></g></g><g fill="#a6a6a6" fill-opacity="1"><g transform="translate(117.335114, 216.361114)"><g><path d="M 14.300781 0 L 14.300781 -5.167969 L 10.734375 -5.167969 L 14.859375 -10.414062 L 15.699219 -9.292969 L 18.746094 -5.207031 L 16.460938 -5.207031 L 16.460938 0 L 32.441406 0 L 32.441406 -5.207031 L 30.121094 -5.207031 L 22.910156 -15.058594 L 28.957031 -22.789062 L 32.363281 -22.789062 L 32.363281 -27.996094 L 19.066406 -27.996094 L 19.066406 -22.789062 L 22.589844 -22.789062 L 18.503906 -17.464844 L 14.578125 -22.789062 L 16.902344 -22.789062 L 16.902344 -27.996094 L 1.042969 -27.996094 L 1.042969 -22.789062 L 3.125 -22.789062 L 10.375 -12.816406 L 4.484375 -5.167969 L 1 -5.167969 L 1 0 Z M 14.300781 0 "/></g></g></g><g fill="#a6a6a6" fill-opacity="1"><g transform="translate(150.778773, 216.361114)"><g><path d="M 0.601562 -27.996094 L 0.601562 -22.789062 L 2.84375 -22.789062 L 2.84375 -12.898438 C 2.84375 -3.804688 7.167969 0.441406 15.261719 0.679688 C 22.789062 0.679688 26.753906 -3.605469 26.753906 -13.097656 L 26.753906 -22.832031 L 28.917969 -22.832031 L 28.917969 -27.996094 L 17.0625 -27.996094 L 17.0625 -22.710938 L 19.226562 -22.710938 L 19.226562 -14.21875 C 19.226562 -7.328125 17.625 -6.367188 15.179688 -6.367188 C 12.617188 -6.367188 11.175781 -7.730469 11.175781 -14.179688 L 11.175781 -22.832031 L 13.335938 -22.832031 L 13.335938 -27.996094 Z M 0.601562 -27.996094 "/></g></g></g><g fill="#a6a6a6" fill-opacity="1"><g transform="translate(180.297312, 216.361114)"><g><path d="M 1 -27.996094 L 1 -22.75 L 3.246094 -22.75 L 3.246094 -5.285156 L 1 -5.285156 L 1 0 L 13.9375 0 L 13.9375 -5.285156 L 11.496094 -5.285156 L 11.496094 -11.496094 C 15.058594 -11.496094 15.5 -10.613281 15.5 -6.96875 C 15.5 -2.28125 18.023438 0.480469 23.269531 0.480469 C 27.71875 0.480469 29.117188 -2.601562 29.117188 -5.929688 L 29.117188 -8.128906 L 26.433594 -8.128906 L 26.433594 -6.808594 C 26.433594 -6.007812 26.113281 -5.527344 25.515625 -5.527344 C 24.792969 -5.527344 24.550781 -6.527344 24.550781 -8.25 C 24.550781 -11.136719 22.070312 -13.539062 19.304688 -13.9375 C 22.628906 -14.417969 25.113281 -16.621094 25.113281 -19.746094 C 25.113281 -24.3125 23.3125 -27.996094 14.019531 -27.996094 Z M 11.496094 -22.789062 L 13.496094 -22.789062 C 15.820312 -22.789062 17.144531 -21.589844 17.144531 -19.226562 C 17.144531 -17.101562 15.621094 -15.980469 13.296875 -15.980469 L 11.496094 -15.980469 Z M 11.496094 -22.789062 "/></g></g></g><g fill="#a6a6a6" fill-opacity="1"><g transform="translate(209.815842, 216.361114)"><g><path d="M 14.78125 -15.378906 C 14.621094 -16.0625 13.777344 -17.863281 13.539062 -18.625 L 11.214844 -22.871094 L 13.296875 -22.871094 L 13.296875 -27.996094 L -0.402344 -27.996094 L -0.402344 -22.871094 L 1.5625 -22.871094 L 9.332031 -9.933594 L 9.332031 -5.207031 L 7.050781 -5.207031 L 7.050781 0 L 19.867188 0 L 19.867188 -5.207031 L 17.625 -5.207031 L 17.625 -9.851562 L 25.035156 -22.871094 L 27.195312 -22.871094 L 27.195312 -27.996094 L 16.421875 -27.996094 L 16.421875 -22.871094 L 18.625 -22.871094 L 16.421875 -18.824219 C 15.980469 -17.863281 15.101562 -16.179688 14.941406 -15.378906 Z M 14.78125 -15.378906 "/></g></g></g><g fill="#00a0ea" fill-opacity="1"><g transform="translate(81.933454, 241.189722)"><g><path d="M 4.265625 -8.546875 C 4.597656 -8.546875 4.910156 -8.476562 5.203125 -8.34375 C 5.503906 -8.21875 5.765625 -8.039062 5.984375 -7.8125 C 6.210938 -7.582031 6.390625 -7.3125 6.515625 -7 C 6.640625 -6.6875 6.703125 -6.351562 6.703125 -6 C 6.703125 -5.644531 6.640625 -5.3125 6.515625 -5 C 6.390625 -4.695312 6.210938 -4.425781 5.984375 -4.1875 C 5.765625 -3.957031 5.503906 -3.773438 5.203125 -3.640625 C 4.910156 -3.515625 4.597656 -3.453125 4.265625 -3.453125 L 2.390625 -3.453125 L 2.390625 0 L 0.5625 0 L 0.5625 -8.546875 Z M 4.015625 -5.109375 C 4.242188 -5.109375 4.445312 -5.195312 4.625 -5.375 C 4.800781 -5.550781 4.890625 -5.757812 4.890625 -6 C 4.890625 -6.25 4.800781 -6.457031 4.625 -6.625 C 4.445312 -6.800781 4.242188 -6.890625 4.015625 -6.890625 L 2.390625 -6.890625 L 2.390625 -5.109375 Z M 4.015625 -5.109375 "/></g></g></g><g fill="#00a0ea" fill-opacity="1"><g transform="translate(88.847662, 241.189722)"><g><path d="M 6.71875 -6 C 6.71875 -5.726562 6.675781 -5.46875 6.59375 -5.21875 C 6.519531 -4.976562 6.414062 -4.753906 6.28125 -4.546875 C 6.144531 -4.347656 5.976562 -4.171875 5.78125 -4.015625 C 5.59375 -3.859375 5.382812 -3.726562 5.15625 -3.625 L 8 0 L 5.859375 0 L 3.21875 -3.453125 L 2.40625 -3.453125 L 2.40625 0 L 0.5625 0 L 0.5625 -8.546875 L 4.265625 -8.546875 C 4.597656 -8.546875 4.914062 -8.476562 5.21875 -8.34375 C 5.519531 -8.21875 5.78125 -8.039062 6 -7.8125 C 6.21875 -7.582031 6.390625 -7.3125 6.515625 -7 C 6.648438 -6.6875 6.71875 -6.351562 6.71875 -6 Z M 4.03125 -5.109375 C 4.257812 -5.109375 4.457031 -5.195312 4.625 -5.375 C 4.800781 -5.550781 4.890625 -5.757812 4.890625 -6 C 4.890625 -6.25 4.800781 -6.457031 4.625 -6.625 C 4.457031 -6.800781 4.257812 -6.890625 4.03125 -6.890625 L 2.40625 -6.890625 L 2.40625 -5.109375 Z M 4.03125 -5.109375 "/></g></g></g><g fill="#00a0ea" fill-opacity="1"><g transform="translate(97.1978, 241.189722)"><g><path d="M 0.578125 -8.546875 L 5.921875 -8.546875 L 5.921875 -6.890625 L 2.40625 -6.890625 L 2.40625 -5.34375 L 5.5 -5.34375 L 5.5 -3.671875 L 2.40625 -3.671875 L 2.40625 -1.65625 L 5.921875 -1.65625 L 5.921875 0 L 0.578125 0 Z M 0.578125 -8.546875 "/></g></g></g><g fill="#00a0ea" fill-opacity="1"><g transform="translate(103.762073, 241.189722)"><g><path d="M 8.0625 -8.546875 L 9.78125 -8.546875 L 9.78125 0 L 7.96875 0 L 7.96875 -5.640625 L 5.921875 -2.78125 L 4.46875 -2.78125 L 2.40625 -5.5625 L 2.40625 0 L 0.5625 0 L 0.5625 -8.546875 L 2.296875 -8.546875 L 5.203125 -4.609375 Z M 8.0625 -8.546875 "/></g></g></g><g fill="#00a0ea" fill-opacity="1"><g transform="translate(114.175602, 241.189722)"><g><path d="M 3.671875 -8.546875 L 3.671875 -7.015625 L 3.046875 -7.015625 L 3.046875 -1.53125 L 3.671875 -1.53125 L 3.671875 0 L 0.5625 0 L 0.5625 -1.53125 L 1.203125 -1.53125 L 1.203125 -7.015625 L 0.5625 -7.015625 L 0.5625 -8.546875 Z M 3.671875 -8.546875 "/></g></g></g><g fill="#00a0ea" fill-opacity="1"><g transform="translate(118.471345, 241.189722)"><g><path d="M 5.40625 -8.546875 L 7.21875 -8.546875 L 7.21875 -3.09375 C 7.21875 -2.664062 7.128906 -2.253906 6.953125 -1.859375 C 6.773438 -1.460938 6.535156 -1.113281 6.234375 -0.8125 C 5.929688 -0.519531 5.578125 -0.285156 5.171875 -0.109375 C 4.765625 0.0664062 4.328125 0.15625 3.859375 0.15625 C 3.398438 0.15625 2.960938 0.0664062 2.546875 -0.109375 C 2.140625 -0.285156 1.785156 -0.519531 1.484375 -0.8125 C 1.179688 -1.113281 0.941406 -1.460938 0.765625 -1.859375 C 0.585938 -2.253906 0.5 -2.664062 0.5 -3.09375 L 0.5 -8.546875 L 2.328125 -8.546875 L 2.328125 -3.453125 C 2.328125 -3.210938 2.363281 -2.984375 2.4375 -2.765625 C 2.519531 -2.554688 2.628906 -2.367188 2.765625 -2.203125 C 2.910156 -2.035156 3.078125 -1.90625 3.265625 -1.8125 C 3.453125 -1.71875 3.648438 -1.671875 3.859375 -1.671875 C 4.078125 -1.671875 4.273438 -1.71875 4.453125 -1.8125 C 4.640625 -1.90625 4.800781 -2.035156 4.9375 -2.203125 C 5.082031 -2.367188 5.195312 -2.554688 5.28125 -2.765625 C 5.363281 -2.984375 5.40625 -3.210938 5.40625 -3.453125 Z M 5.40625 -8.546875 "/></g></g></g><g fill="#00a0ea" fill-opacity="1"><g transform="translate(126.254347, 241.189722)"><g><path d="M 8.0625 -8.546875 L 9.78125 -8.546875 L 9.78125 0 L 7.96875 0 L 7.96875 -5.640625 L 5.921875 -2.78125 L 4.46875 -2.78125 L 2.40625 -5.5625 L 2.40625 0 L 0.5625 0 L 0.5625 -8.546875 L 2.296875 -8.546875 L 5.203125 -4.609375 Z M 8.0625 -8.546875 "/></g></g></g><g fill="#00a0ea" fill-opacity="1"><g transform="translate(136.667878, 241.189722)"><g/></g></g><g fill="#00a0ea" fill-opacity="1"><g transform="translate(140.046558, 241.189722)"><g><path d="M 6.71875 -6 C 6.71875 -5.726562 6.675781 -5.46875 6.59375 -5.21875 C 6.519531 -4.976562 6.414062 -4.753906 6.28125 -4.546875 C 6.144531 -4.347656 5.976562 -4.171875 5.78125 -4.015625 C 5.59375 -3.859375 5.382812 -3.726562 5.15625 -3.625 L 8 0 L 5.859375 0 L 3.21875 -3.453125 L 2.40625 -3.453125 L 2.40625 0 L 0.5625 0 L 0.5625 -8.546875 L 4.265625 -8.546875 C 4.597656 -8.546875 4.914062 -8.476562 5.21875 -8.34375 C 5.519531 -8.21875 5.78125 -8.039062 6 -7.8125 C 6.21875 -7.582031 6.390625 -7.3125 6.515625 -7 C 6.648438 -6.6875 6.71875 -6.351562 6.71875 -6 Z M 4.03125 -5.109375 C 4.257812 -5.109375 4.457031 -5.195312 4.625 -5.375 C 4.800781 -5.550781 4.890625 -5.757812 4.890625 -6 C 4.890625 -6.25 4.800781 -6.457031 4.625 -6.625 C 4.457031 -6.800781 4.257812 -6.890625 4.03125 -6.890625 L 2.40625 -6.890625 L 2.40625 -5.109375 Z M 4.03125 -5.109375 "/></g></g></g><g fill="#00a0ea" fill-opacity="1"><g transform="translate(148.396695, 241.189722)"><g><path d="M 0.578125 -8.546875 L 5.921875 -8.546875 L 5.921875 -6.890625 L 2.40625 -6.890625 L 2.40625 -5.34375 L 5.5 -5.34375 L 5.5 -3.671875 L 2.40625 -3.671875 L 2.40625 -1.65625 L 5.921875 -1.65625 L 5.921875 0 L 0.578125 0 Z M 0.578125 -8.546875 "/></g></g></g><g fill="#00a0ea" fill-opacity="1"><g transform="translate(154.96097, 241.189722)"><g><path d="M 5.828125 -8.546875 L 9.390625 0 L 7.421875 0 L 6.640625 -1.828125 L 3.015625 -1.828125 L 2.25 0 L 0.265625 0 L 3.828125 -8.546875 Z M 5.953125 -3.5 L 4.84375 -6.1875 L 3.71875 -3.5 Z M 5.953125 -3.5 "/></g></g></g><g fill="#00a0ea" fill-opacity="1"><g transform="translate(164.686706, 241.189722)"><g><path d="M 2.40625 -1.65625 L 5.90625 -1.65625 L 5.90625 0 L 0.5625 0 L 0.5625 -8.546875 L 2.40625 -8.546875 Z M 2.40625 -1.65625 "/></g></g></g><g fill="#00a0ea" fill-opacity="1"><g transform="translate(170.780386, 241.189722)"><g/></g></g><g fill="#00a0ea" fill-opacity="1"><g transform="translate(174.159071, 241.189722)"><g><path d="M 0.578125 -8.546875 L 5.921875 -8.546875 L 5.921875 -6.890625 L 2.40625 -6.890625 L 2.40625 -5.34375 L 5.5 -5.34375 L 5.5 -3.671875 L 2.40625 -3.671875 L 2.40625 -1.65625 L 5.921875 -1.65625 L 5.921875 0 L 0.578125 0 Z M 0.578125 -8.546875 "/></g></g></g><g fill="#00a0ea" fill-opacity="1"><g transform="translate(180.723345, 241.189722)"><g><path d="M 6 -4.40625 C 6.34375 -4.195312 6.601562 -3.9375 6.78125 -3.625 C 6.957031 -3.3125 7.046875 -2.953125 7.046875 -2.546875 C 7.046875 -2.160156 6.953125 -1.800781 6.765625 -1.46875 C 6.578125 -1.132812 6.316406 -0.835938 5.984375 -0.578125 C 5.679688 -0.347656 5.332031 -0.171875 4.9375 -0.046875 C 4.550781 0.078125 4.140625 0.144531 3.703125 0.15625 C 3.265625 0.15625 2.847656 0.0976562 2.453125 -0.015625 C 2.066406 -0.140625 1.71875 -0.320312 1.40625 -0.5625 C 0.945312 -0.90625 0.632812 -1.328125 0.46875 -1.828125 L 2.15625 -2.609375 C 2.15625 -2.523438 2.179688 -2.421875 2.234375 -2.296875 C 2.296875 -2.179688 2.382812 -2.066406 2.5 -1.953125 C 2.625 -1.835938 2.78125 -1.738281 2.96875 -1.65625 C 3.164062 -1.582031 3.40625 -1.546875 3.6875 -1.546875 C 3.914062 -1.546875 4.113281 -1.570312 4.28125 -1.625 C 4.457031 -1.6875 4.601562 -1.757812 4.71875 -1.84375 C 4.832031 -1.925781 4.921875 -2.019531 4.984375 -2.125 C 5.046875 -2.238281 5.078125 -2.347656 5.078125 -2.453125 C 5.078125 -2.585938 5.035156 -2.707031 4.953125 -2.8125 C 4.867188 -2.925781 4.738281 -3.019531 4.5625 -3.09375 C 4.238281 -3.195312 3.894531 -3.285156 3.53125 -3.359375 C 3.175781 -3.441406 2.828125 -3.539062 2.484375 -3.65625 C 2.148438 -3.769531 1.835938 -3.925781 1.546875 -4.125 C 1.265625 -4.320312 1.039062 -4.59375 0.875 -4.9375 C 0.71875 -5.238281 0.640625 -5.5625 0.640625 -5.90625 C 0.640625 -6.289062 0.726562 -6.664062 0.90625 -7.03125 C 1.09375 -7.394531 1.34375 -7.703125 1.65625 -7.953125 C 1.945312 -8.179688 2.273438 -8.359375 2.640625 -8.484375 C 3.015625 -8.609375 3.410156 -8.671875 3.828125 -8.671875 C 4.234375 -8.671875 4.625 -8.609375 5 -8.484375 C 5.375 -8.367188 5.707031 -8.195312 6 -7.96875 C 6.289062 -7.75 6.519531 -7.492188 6.6875 -7.203125 L 5.3125 -6.265625 C 5.144531 -6.492188 4.9375 -6.675781 4.6875 -6.8125 C 4.4375 -6.957031 4.148438 -7.03125 3.828125 -7.03125 C 3.398438 -7.03125 3.066406 -6.929688 2.828125 -6.734375 C 2.585938 -6.546875 2.46875 -6.296875 2.46875 -5.984375 C 2.46875 -5.835938 2.535156 -5.707031 2.671875 -5.59375 C 2.804688 -5.476562 2.976562 -5.375 3.1875 -5.28125 C 3.40625 -5.195312 3.644531 -5.117188 3.90625 -5.046875 C 4.175781 -4.984375 4.441406 -4.914062 4.703125 -4.84375 C 4.960938 -4.78125 5.207031 -4.710938 5.4375 -4.640625 C 5.675781 -4.566406 5.863281 -4.488281 6 -4.40625 Z M 6 -4.40625 "/></g></g></g><g fill="#00a0ea" fill-opacity="1"><g transform="translate(188.21675, 241.189722)"><g><path d="M 0.28125 -8.546875 L 6.46875 -8.546875 L 6.46875 -6.890625 L 4.28125 -6.890625 L 4.28125 0 L 2.453125 0 L 2.453125 -6.890625 L 0.28125 -6.890625 Z M 0.28125 -8.546875 "/></g></g></g><g fill="#00a0ea" fill-opacity="1"><g transform="translate(195.022361, 241.189722)"><g><path d="M 5.828125 -8.546875 L 9.390625 0 L 7.421875 0 L 6.640625 -1.828125 L 3.015625 -1.828125 L 2.25 0 L 0.265625 0 L 3.828125 -8.546875 Z M 5.953125 -3.5 L 4.84375 -6.1875 L 3.71875 -3.5 Z M 5.953125 -3.5 "/></g></g></g><g fill="#00a0ea" fill-opacity="1"><g transform="translate(204.748098, 241.189722)"><g><path d="M 0.28125 -8.546875 L 6.46875 -8.546875 L 6.46875 -6.890625 L 4.28125 -6.890625 L 4.28125 0 L 2.453125 0 L 2.453125 -6.890625 L 0.28125 -6.890625 Z M 0.28125 -8.546875 "/></g></g></g><g fill="#00a0ea" fill-opacity="1"><g transform="translate(211.553709, 241.189722)"><g><path d="M 0.578125 -8.546875 L 5.921875 -8.546875 L 5.921875 -6.890625 L 2.40625 -6.890625 L 2.40625 -5.34375 L 5.5 -5.34375 L 5.5 -3.671875 L 2.40625 -3.671875 L 2.40625 -1.65625 L 5.921875 -1.65625 L 5.921875 0 L 0.578125 0 Z M 0.578125 -8.546875 "/></g></g></g></svg>