<svg xmlns="http://www.w3.org/2000/svg" xmlns:xlink="http://www.w3.org/1999/xlink" width="400" zoomAndPan="magnify" viewBox="0 0 300 299.999988" height="400" preserveAspectRatio="xMidYMid meet" version="1.0"><defs><g/><clipPath id="0a4974d485"><path d="M 89.160156 162 L 141 162 L 141 202 L 89.160156 202 Z M 89.160156 162 " clip-rule="nonzero"/></clipPath><clipPath id="450017a868"><path d="M 145 60.171875 L 151 60.171875 L 151 216.171875 L 145 216.171875 Z M 145 60.171875 " clip-rule="nonzero"/></clipPath><clipPath id="b1eb8173fb"><path d="M 154 74 L 210.660156 74 L 210.660156 203 L 154 203 Z M 154 74 " clip-rule="nonzero"/></clipPath></defs><rect x="-30" width="360" fill="#ffffff" y="-29.999999" height="359.999986" fill-opacity="1"/><rect x="-30" width="360" fill="#ffffff" y="-29.999999" height="359.999986" fill-opacity="1"/><rect x="-30" width="360" fill="#000000" y="-29.999999" height="359.999986" fill-opacity="1"/><path fill="#ffffff" d="M 140.972656 145.628906 L 140.972656 124.707031 C 127.726562 122.921875 116.871094 119.726562 116.871094 109.882812 C 116.871094 101.074219 124.691406 94.101562 140.972656 93.863281 L 140.972656 74.03125 C 118.8125 74.253906 94.496094 84.433594 94.496094 109.195312 C 94.496094 135.941406 116.691406 142.648438 140.972656 145.628906 Z M 140.972656 145.628906 " fill-opacity="1" fill-rule="nonzero"/><g clip-path="url(#0a4974d485)"><path fill="#ffffff" d="M 140.972656 181.578125 C 126.722656 181.3125 113.304688 175.417969 108.09375 162.457031 L 89.160156 172.28125 C 98.027344 194.140625 116.695312 201.785156 140.972656 201.925781 Z M 140.972656 181.578125 " fill-opacity="1" fill-rule="nonzero"/></g><g clip-path="url(#450017a868)"><path fill="#ffffff" d="M 145.976562 60.1875 L 150.980469 60.1875 L 150.980469 216.15625 L 145.976562 216.15625 Z M 145.976562 60.1875 " fill-opacity="1" fill-rule="nonzero"/></g><g clip-path="url(#b1eb8173fb)"><path fill="#ffde59" d="M 186.703125 74.277344 L 186.703125 128.285156 L 154.464844 128.285156 L 154.464844 150.617188 L 186.703125 150.617188 L 186.703125 202.425781 L 210.648438 202.425781 L 210.648438 74.277344 Z M 186.703125 74.277344 " fill-opacity="1" fill-rule="nonzero"/></g><g fill="#ffffff" fill-opacity="1"><g transform="translate(85.124524, 235.199234)"><g><path d="M 7.3125 0.277344 C 10.859375 0.277344 12.929688 -1.519531 12.929688 -4.355469 C 12.929688 -7.765625 9.953125 -8.4375 7.449219 -8.988281 C 5.617188 -9.402344 4 -9.757812 4 -11.136719 C 4 -12.28125 5.027344 -12.890625 6.445312 -12.890625 C 7.984375 -12.890625 9.265625 -12.160156 9.636719 -10.566406 L 12.535156 -10.566406 C 12.0625 -13.816406 9.402344 -15.316406 6.503906 -15.316406 C 3.46875 -15.316406 1.183594 -13.796875 1.183594 -10.898438 C 1.183594 -7.726562 3.980469 -7.117188 6.445312 -6.5625 C 8.355469 -6.148438 10.070312 -5.773438 10.070312 -4.21875 C 10.070312 -2.777344 8.890625 -2.148438 7.332031 -2.148438 C 5.753906 -2.148438 4.121094 -2.738281 3.625 -4.886719 L 0.691406 -4.886719 C 1.0625 -1.003906 4.414062 0.277344 7.3125 0.277344 Z M 7.3125 0.277344 "/></g></g></g><g fill="#ffffff" fill-opacity="1"><g transform="translate(98.840102, 235.199234)"><g><path d="M 4.394531 0.21875 C 5.339844 0.21875 6.207031 0.0585938 6.898438 -0.394531 C 7.3125 -0.652344 7.628906 -1.003906 7.902344 -1.496094 L 7.902344 0 L 10.566406 0 L 10.566406 -5.753906 C 10.566406 -7.292969 10.566406 -9.027344 9.265625 -10.171875 C 8.4375 -10.9375 7.195312 -11.292969 5.914062 -11.292969 C 3.726562 -11.292969 1.578125 -10.109375 1.183594 -7.527344 L 3.824219 -7.527344 C 4.019531 -8.574219 4.886719 -9.203125 5.894531 -9.203125 C 6.523438 -9.203125 7.035156 -9.027344 7.371094 -8.671875 C 7.707031 -8.316406 7.882812 -7.785156 7.902344 -7.117188 L 4.613281 -6.503906 C 3.6875 -6.328125 2.738281 -6.050781 2.03125 -5.558594 C 1.261719 -5.027344 0.769531 -4.21875 0.769531 -3.035156 C 0.769531 -0.925781 2.304688 0.21875 4.394531 0.21875 Z M 5.046875 -1.871094 C 4.121094 -1.871094 3.429688 -2.304688 3.429688 -3.132812 C 3.429688 -3.507812 3.566406 -3.785156 3.785156 -4 C 4.101562 -4.296875 4.554688 -4.492188 5.320312 -4.632812 L 7.960938 -5.164062 C 7.921875 -3.707031 7.628906 -2.757812 6.464844 -2.1875 C 6.03125 -1.972656 5.539062 -1.871094 5.046875 -1.871094 Z M 5.046875 -1.871094 "/></g></g></g><g fill="#ffffff" fill-opacity="1"><g transform="translate(110.486525, 235.199234)"><g><path d="M 3.863281 0 L 3.863281 -5.855469 C 3.863281 -7.273438 4.078125 -8.023438 4.511719 -8.535156 C 4.828125 -8.890625 5.28125 -9.105469 5.855469 -9.105469 C 6.957031 -9.105469 7.609375 -8.417969 7.609375 -6.917969 L 7.609375 0 L 10.269531 0 L 10.269531 -5.855469 C 10.269531 -7.136719 10.425781 -8.003906 10.9375 -8.574219 C 11.234375 -8.890625 11.667969 -9.105469 12.257812 -9.105469 C 13.382812 -9.105469 13.992188 -8.4375 13.992188 -6.917969 L 13.992188 0 L 16.65625 0 L 16.65625 -7.253906 C 16.65625 -9.71875 15.511719 -11.292969 13.027344 -11.292969 C 11.570312 -11.292969 10.503906 -10.761719 9.777344 -9.519531 C 9.421875 -10.703125 8.316406 -11.292969 6.878906 -11.292969 C 5.734375 -11.292969 4.730469 -10.859375 3.863281 -9.65625 L 3.863281 -11.058594 L 1.203125 -11.058594 L 1.203125 0 Z M 3.863281 0 "/></g></g></g><g fill="#ffffff" fill-opacity="1"><g transform="translate(128.281308, 235.199234)"><g><path d="M 2.542969 -12.28125 C 3.429688 -12.28125 4.179688 -12.871094 4.179688 -13.796875 C 4.179688 -14.683594 3.429688 -15.316406 2.542969 -15.316406 C 1.636719 -15.316406 0.90625 -14.683594 0.90625 -13.796875 C 0.90625 -12.871094 1.636719 -12.28125 2.542969 -12.28125 Z M 3.863281 0 L 3.863281 -11.058594 L 1.203125 -11.058594 L 1.203125 0 Z M 3.863281 0 "/></g></g></g><g fill="#ffffff" fill-opacity="1"><g transform="translate(133.365533, 235.199234)"><g><path d="M 3.863281 0 L 3.863281 -5.125 C 3.863281 -6.582031 4.160156 -7.46875 4.75 -8.0625 C 5.183594 -8.476562 5.8125 -8.730469 6.722656 -8.730469 L 7.332031 -8.730469 L 7.332031 -11.292969 L 7.015625 -11.292969 C 5.714844 -11.292969 4.710938 -10.898438 3.863281 -9.738281 L 3.863281 -11.058594 L 1.203125 -11.058594 L 1.203125 0 Z M 3.863281 0 "/></g></g></g><g fill="#ffffff" fill-opacity="1"><g transform="translate(141.070693, 235.199234)"><g><path d="M 4.394531 0.21875 C 5.339844 0.21875 6.207031 0.0585938 6.898438 -0.394531 C 7.3125 -0.652344 7.628906 -1.003906 7.902344 -1.496094 L 7.902344 0 L 10.566406 0 L 10.566406 -5.753906 C 10.566406 -7.292969 10.566406 -9.027344 9.265625 -10.171875 C 8.4375 -10.9375 7.195312 -11.292969 5.914062 -11.292969 C 3.726562 -11.292969 1.578125 -10.109375 1.183594 -7.527344 L 3.824219 -7.527344 C 4.019531 -8.574219 4.886719 -9.203125 5.894531 -9.203125 C 6.523438 -9.203125 7.035156 -9.027344 7.371094 -8.671875 C 7.707031 -8.316406 7.882812 -7.785156 7.902344 -7.117188 L 4.613281 -6.503906 C 3.6875 -6.328125 2.738281 -6.050781 2.03125 -5.558594 C 1.261719 -5.027344 0.769531 -4.21875 0.769531 -3.035156 C 0.769531 -0.925781 2.304688 0.21875 4.394531 0.21875 Z M 5.046875 -1.871094 C 4.121094 -1.871094 3.429688 -2.304688 3.429688 -3.132812 C 3.429688 -3.507812 3.566406 -3.785156 3.785156 -4 C 4.101562 -4.296875 4.554688 -4.492188 5.320312 -4.632812 L 7.960938 -5.164062 C 7.921875 -3.707031 7.628906 -2.757812 6.464844 -2.1875 C 6.03125 -1.972656 5.539062 -1.871094 5.046875 -1.871094 Z M 5.046875 -1.871094 "/></g></g></g><g fill="#ffde59" fill-opacity="1"><g transform="translate(152.708893, 235.199234)"><g/></g></g><g fill="#ffde59" fill-opacity="1"><g transform="translate(157.990176, 235.199234)"><g><path d="M 4.179688 0 L 4.179688 -6.269531 L 10.625 -6.269531 L 10.625 0 L 13.460938 0 L 13.460938 -15.039062 L 10.625 -15.039062 L 10.625 -8.808594 L 4.179688 -8.808594 L 4.179688 -15.039062 L 1.339844 -15.039062 L 1.339844 0 Z M 4.179688 0 "/></g></g></g><g fill="#ffde59" fill-opacity="1"><g transform="translate(172.809313, 235.199234)"><g><path d="M 4.394531 0.21875 C 5.339844 0.21875 6.207031 0.0585938 6.898438 -0.394531 C 7.3125 -0.652344 7.628906 -1.003906 7.902344 -1.496094 L 7.902344 0 L 10.566406 0 L 10.566406 -5.753906 C 10.566406 -7.292969 10.566406 -9.027344 9.265625 -10.171875 C 8.4375 -10.9375 7.195312 -11.292969 5.914062 -11.292969 C 3.726562 -11.292969 1.578125 -10.109375 1.183594 -7.527344 L 3.824219 -7.527344 C 4.019531 -8.574219 4.886719 -9.203125 5.894531 -9.203125 C 6.523438 -9.203125 7.035156 -9.027344 7.371094 -8.671875 C 7.707031 -8.316406 7.882812 -7.785156 7.902344 -7.117188 L 4.613281 -6.503906 C 3.6875 -6.328125 2.738281 -6.050781 2.03125 -5.558594 C 1.261719 -5.027344 0.769531 -4.21875 0.769531 -3.035156 C 0.769531 -0.925781 2.304688 0.21875 4.394531 0.21875 Z M 5.046875 -1.871094 C 4.121094 -1.871094 3.429688 -2.304688 3.429688 -3.132812 C 3.429688 -3.507812 3.566406 -3.785156 3.785156 -4 C 4.101562 -4.296875 4.554688 -4.492188 5.320312 -4.632812 L 7.960938 -5.164062 C 7.921875 -3.707031 7.628906 -2.757812 6.464844 -2.1875 C 6.03125 -1.972656 5.539062 -1.871094 5.046875 -1.871094 Z M 5.046875 -1.871094 "/></g></g></g><g fill="#ffde59" fill-opacity="1"><g transform="translate(184.455736, 235.199234)"><g><path d="M 5.65625 0.21875 C 6.957031 0.21875 7.902344 -0.15625 8.789062 -1.398438 L 8.789062 0 L 11.453125 0 L 11.453125 -15.039062 L 8.789062 -15.039062 L 8.789062 -9.65625 C 7.902344 -10.917969 6.957031 -11.292969 5.65625 -11.292969 C 2.757812 -11.292969 0.789062 -8.929688 0.789062 -5.539062 C 0.789062 -2.148438 2.757812 0.21875 5.65625 0.21875 Z M 6.269531 -2.070312 C 4.574219 -2.070312 3.46875 -3.527344 3.46875 -5.539062 C 3.46875 -7.550781 4.574219 -9.007812 6.269531 -9.007812 C 7.960938 -9.007812 9.125 -7.589844 9.125 -5.539062 C 9.125 -3.488281 7.960938 -2.070312 6.269531 -2.070312 Z M 6.269531 -2.070312 "/></g></g></g><g fill="#ffde59" fill-opacity="1"><g transform="translate(197.12688, 235.199234)"><g><path d="M 2.542969 -12.28125 C 3.429688 -12.28125 4.179688 -12.871094 4.179688 -13.796875 C 4.179688 -14.683594 3.429688 -15.316406 2.542969 -15.316406 C 1.636719 -15.316406 0.90625 -14.683594 0.90625 -13.796875 C 0.90625 -12.871094 1.636719 -12.28125 2.542969 -12.28125 Z M 3.863281 0 L 3.863281 -11.058594 L 1.203125 -11.058594 L 1.203125 0 Z M 3.863281 0 "/></g></g></g><g fill="#ffde59" fill-opacity="1"><g transform="translate(202.211105, 235.199234)"><g><path d="M 5.65625 0.21875 C 6.957031 0.21875 7.902344 -0.15625 8.789062 -1.398438 L 8.789062 0 L 11.453125 0 L 11.453125 -15.039062 L 8.789062 -15.039062 L 8.789062 -9.65625 C 7.902344 -10.917969 6.957031 -11.292969 5.65625 -11.292969 C 2.757812 -11.292969 0.789062 -8.929688 0.789062 -5.539062 C 0.789062 -2.148438 2.757812 0.21875 5.65625 0.21875 Z M 6.269531 -2.070312 C 4.574219 -2.070312 3.46875 -3.527344 3.46875 -5.539062 C 3.46875 -7.550781 4.574219 -9.007812 6.269531 -9.007812 C 7.960938 -9.007812 9.125 -7.589844 9.125 -5.539062 C 9.125 -3.488281 7.960938 -2.070312 6.269531 -2.070312 Z M 6.269531 -2.070312 "/></g></g></g></svg>