<svg width="31" height="25" viewBox="0 0 31 25" fill="none" xmlns="http://www.w3.org/2000/svg">
<g filter="url(#filter0_d_1_583)">
<path d="M7.02549 22.8728L1.77039 21.4985C1.53278 21.4364 1.33567 21.287 1.2151 21.0773C1.09809 20.8739 1.06748 20.639 1.12959 20.414L6.52689 0.750828C6.6331 0.364727 6.99308 0.0947266 7.4026 0.0947266C7.48087 0.0947266 7.5601 0.10553 7.63749 0.125328L12.8926 1.49963C13.1302 1.56173 13.3273 1.71113 13.4479 1.92083C13.5649 2.12333 13.5955 2.35913 13.5334 2.58413L8.13609 22.2473C8.02988 22.6334 7.6699 22.9034 7.26038 22.9034C7.18119 22.9034 7.102 22.8935 7.02549 22.8728ZM2.84138 17.5979C2.65598 18.2729 2.74778 18.9803 3.09968 19.5887C3.4615 20.216 4.05277 20.6633 4.76469 20.8496C4.99329 20.9099 5.23087 20.9405 5.47028 20.9405C6.69788 20.9405 7.77787 20.1314 8.09647 18.9722C8.2819 18.2981 8.19007 17.5907 7.83909 16.9823C7.47727 16.355 6.88599 15.9068 6.1732 15.7196C5.94187 15.6593 5.70518 15.6287 5.46848 15.6287C4.24 15.6287 3.15998 16.4387 2.84138 17.5979ZM3.8827 13.8044L9.1378 15.1787L11.9539 4.91963L6.69877 3.54443L3.8827 13.8044ZM23.6503 22.5695C23.1544 22.5695 22.7503 22.1654 22.7503 21.6695V1.34033C22.7503 0.844429 23.1544 0.440327 23.6503 0.440327H29.0998C29.5957 0.440327 29.9998 0.844429 29.9998 1.34033V21.6695C29.9998 22.1654 29.5957 22.5695 29.0998 22.5695H23.6503ZM23.6503 18.5798C23.6503 20.0468 24.8707 21.2402 26.3701 21.2402C27.8695 21.2402 29.0899 20.0468 29.0899 18.5798C29.0899 17.1137 27.8695 15.9203 26.3701 15.9203C24.8707 15.9203 23.6503 17.1137 23.6503 18.5798ZM23.6503 14.6H29.0899V3.98003H23.6503V14.6ZM15.49 22.5695C14.9941 22.5695 14.59 22.1654 14.59 21.6695V1.34033C14.59 0.844429 14.9941 0.440327 15.49 0.440327H20.9404C21.4363 0.440327 21.8404 0.844429 21.8404 1.34033V21.6695C21.8404 22.1654 21.4363 22.5695 20.9404 22.5695H15.49ZM15.49 18.5195C15.49 19.9865 16.7104 21.1799 18.2098 21.1799C19.7092 21.1799 20.9296 19.9865 20.9296 18.5195C20.9296 17.0534 19.7092 15.86 18.2098 15.86C16.7104 15.86 15.49 17.0534 15.49 18.5195ZM15.49 14.6H20.9296V3.98003H15.49V14.6ZM25.0102 18.5798C25.0102 17.8454 25.6186 17.2496 26.3701 17.2496C27.1207 17.2496 27.73 17.8454 27.73 18.5798C27.73 19.3142 27.1207 19.91 26.3701 19.91C25.6186 19.91 25.0102 19.3142 25.0102 18.5798ZM16.8499 18.5798C16.8499 17.8454 17.4592 17.2496 18.2098 17.2496C18.9613 17.2496 19.5697 17.8454 19.5697 18.5798C19.5697 19.3142 18.9613 19.91 18.2098 19.91C17.4592 19.91 16.8499 19.3142 16.8499 18.5798ZM5.10218 19.6202C4.37678 19.4303 3.94657 18.7031 4.14008 17.9948C4.33448 17.2865 5.08057 16.8662 5.80598 17.0561C6.53138 17.2451 6.96247 17.9732 6.76807 18.6815C6.60535 19.2752 6.05582 19.6659 5.45561 19.6659C5.33884 19.6659 5.22031 19.6512 5.10218 19.6202ZM6.16688 8.90393L6.40177 8.04893L9.90458 8.96513L9.66969 9.82013L6.16688 8.90393ZM24.5602 9.28013V8.39993H28.1899V9.28013H24.5602ZM16.3999 9.28013V8.39993H20.0296V9.28013H16.3999ZM6.63578 7.19393L6.87067 6.33893L10.3744 7.25513L10.1395 8.11013L6.63578 7.19393ZM24.5602 7.51973V6.62963H28.1899V7.51973H24.5602ZM16.3999 7.51973V6.62963H20.0296V7.51973H16.3999ZM7.1056 5.48393L7.34049 4.62893L10.8433 5.54513L10.6084 6.40013L7.1056 5.48393ZM24.5602 5.75033V4.86023H28.1899V5.75033H24.5602ZM16.3999 5.75033V4.86023H20.0296V5.75033H16.3999Z" fill="black"/>
</g>
<defs>
<filter id="filter0_d_1_583" x="0.598145" y="0.0947266" width="29.9017" height="24.3086" filterUnits="userSpaceOnUse" color-interpolation-filters="sRGB">
<feFlood flood-opacity="0" result="BackgroundImageFix"/>
<feColorMatrix in="SourceAlpha" type="matrix" values="0 0 0 0 0 0 0 0 0 0 0 0 0 0 0 0 0 0 127 0" result="hardAlpha"/>
<feOffset dy="1"/>
<feGaussianBlur stdDeviation="0.25"/>
<feComposite in2="hardAlpha" operator="out"/>
<feColorMatrix type="matrix" values="0 0 0 0 0 0 0 0 0 0 0 0 0 0 0 0 0 0 0.2 0"/>
<feBlend mode="normal" in2="BackgroundImageFix" result="effect1_dropShadow_1_583"/>
<feBlend mode="normal" in="SourceGraphic" in2="effect1_dropShadow_1_583" result="shape"/>
</filter>
</defs>
</svg>
