<svg width="558" height="486" viewBox="0 0 558 486" fill="none" xmlns="http://www.w3.org/2000/svg">
<path d="M276.97 324.63C266.07 324.63 255.176 323.533 244.592 321.369C234.277 319.26 224.13 316.113 214.434 312.016C204.915 307.993 195.733 303.013 187.144 297.216C178.637 291.473 170.637 284.879 163.367 277.615C156.096 270.351 149.496 262.358 143.749 253.858C137.946 245.277 132.962 236.103 128.936 226.592C124.835 216.904 121.685 206.767 119.575 196.46C117.409 185.885 116.311 175.001 116.311 164.11C116.311 153.219 117.409 142.335 119.575 131.759C121.685 121.453 124.835 111.316 128.936 101.628C132.962 92.117 137.946 82.9432 143.749 74.3618C149.496 65.8621 156.096 57.8693 163.367 50.6053C170.637 43.3416 178.637 36.7469 187.144 31.0045C195.733 25.207 204.915 20.2276 214.434 16.2047C224.13 12.1074 234.277 8.96051 244.592 6.8515C255.176 4.68753 266.07 3.59033 276.97 3.59033C287.871 3.59033 298.765 4.68753 309.349 6.8515C319.664 8.96045 329.811 12.1073 339.507 16.2047C349.026 20.2275 358.208 25.2069 366.797 31.0045C375.305 36.7471 383.304 43.3418 390.574 50.6053C397.844 57.869 404.445 65.8618 410.192 74.3618C415.995 82.9431 420.978 92.1169 425.005 101.628C429.106 111.316 432.256 121.453 434.366 131.759C436.532 142.335 437.63 153.219 437.63 164.11C437.63 175.001 436.532 185.885 434.366 196.46C432.256 206.767 429.106 216.904 425.005 226.592C420.978 236.103 415.995 245.277 410.192 253.858C404.445 262.358 397.844 270.351 390.574 277.615C383.304 284.879 375.304 291.473 366.797 297.216C358.208 303.013 349.026 307.993 339.507 312.016C329.811 316.113 319.664 319.26 309.349 321.369C298.765 323.533 287.871 324.63 276.97 324.63ZM277.301 112.94C248.892 112.94 225.78 136.03 225.78 164.41C225.78 192.791 248.892 215.88 277.301 215.88C305.709 215.88 328.82 192.791 328.82 164.41C328.82 136.03 305.709 112.94 277.301 112.94Z" fill="#ECF5F6"/>
<path d="M299 163.998C298.999 151.869 289.131 141.999 277 141.999C264.869 141.999 255 151.869 255 163.999C255 176.13 264.869 185.999 277 185.999C289.131 185.999 299 176.13 299 163.999V163.998ZM295.894 167.639L287.887 165.494C287.892 165.454 287.899 165.414 287.905 165.373H296.18C296.126 166.141 296.036 166.898 295.894 167.639ZM294.295 172.397L287.139 168.265C287.154 168.228 287.165 168.189 287.18 168.151L295.172 170.292C294.921 171.016 294.627 171.716 294.295 172.397ZM258.106 160.361L266.113 162.507C266.108 162.547 266.101 162.585 266.095 162.624H257.82C257.874 161.857 257.964 161.101 258.106 160.361ZM259.705 155.602L266.861 159.733C266.845 159.771 266.834 159.811 266.819 159.849L258.827 157.708C259.078 156.985 259.373 156.284 259.705 155.602ZM295.172 157.707L287.181 159.848C287.165 159.81 287.154 159.771 287.139 159.733L294.295 155.601C294.627 156.283 294.921 156.984 295.172 157.707ZM277 162.624C275.116 162.624 274.135 163.669 273.42 164.433C272.807 165.086 272.508 165.374 271.842 165.374C271.178 165.374 270.88 165.086 270.269 164.434C269.883 164.021 269.421 163.543 268.792 163.178C268.845 162.644 268.951 162.126 269.101 161.627C269.742 162.161 270.591 162.624 271.842 162.624C273.727 162.624 274.709 161.579 275.425 160.815C276.037 160.163 276.335 159.874 277 159.874C277.665 159.874 277.964 160.163 278.575 160.815C279.291 161.579 280.273 162.624 282.158 162.624C283.409 162.624 284.258 162.161 284.899 161.627C285.049 162.126 285.155 162.644 285.208 163.178C284.579 163.543 284.117 164.021 283.731 164.434C283.12 165.086 282.822 165.374 282.158 165.374C281.492 165.374 281.193 165.086 280.581 164.433C279.865 163.669 278.884 162.624 277 162.624ZM283.6 159.069C283.08 159.616 282.769 159.874 282.158 159.874C281.492 159.874 281.193 159.585 280.581 158.934C279.865 158.17 278.884 157.125 277 157.125C275.116 157.125 274.135 158.17 273.42 158.934C272.807 159.585 272.508 159.874 271.842 159.874C271.232 159.874 270.92 159.616 270.4 159.069C271.906 157.058 274.3 155.75 277 155.75C279.7 155.75 282.094 157.058 283.6 159.069ZM277 170.874C277.665 170.874 277.964 171.163 278.575 171.815C278.645 171.889 278.719 171.968 278.795 172.047C278.217 172.175 277.617 172.249 277 172.249C276.383 172.249 275.784 172.175 275.205 172.047C275.281 171.968 275.355 171.889 275.425 171.815C276.037 171.163 276.335 170.874 277 170.874ZM281.66 170.801C281.298 170.681 281.026 170.408 280.581 169.933C279.864 169.17 278.883 168.124 277 168.124C275.117 168.124 274.136 169.17 273.42 169.933C272.974 170.408 272.702 170.681 272.34 170.801C271.115 169.958 270.133 168.793 269.507 167.43C270.094 167.823 270.837 168.124 271.842 168.124C273.727 168.124 274.709 167.078 275.425 166.315C276.037 165.662 276.335 165.374 277 165.374C277.665 165.374 277.964 165.662 278.575 166.315C279.291 167.078 280.273 168.124 282.158 168.124C283.163 168.124 283.906 167.823 284.493 167.43C283.867 168.793 282.885 169.958 281.66 170.801ZM283.733 155.321C281.87 153.871 279.537 152.999 277 152.999C274.462 152.999 272.129 153.871 270.266 155.321L268.299 153.354C273.342 149.226 280.656 149.226 285.701 153.353L283.733 155.321ZM266.095 165.374C266.101 165.414 266.108 165.453 266.113 165.492L258.106 167.638C257.964 166.898 257.874 166.142 257.82 165.374H266.095ZM258.828 170.292L266.819 168.151C266.834 168.188 266.846 168.227 266.861 168.265L259.704 172.395C259.373 171.715 259.079 171.014 258.828 170.292ZM270.265 172.677C272.128 174.126 274.461 174.999 277 174.999C279.538 174.999 281.871 174.127 283.734 172.678L285.701 174.645C280.657 178.774 273.342 178.773 268.298 174.644L270.265 172.677ZM287.905 162.624C287.899 162.584 287.892 162.545 287.887 162.506L295.894 160.36C296.036 161.101 296.126 161.857 296.18 162.624H287.905ZM292.934 153.211L285.75 157.359C285.725 157.328 285.702 157.295 285.678 157.264L288.663 154.279C288.663 154.279 288.666 154.278 288.667 154.276C288.667 154.276 288.669 154.274 288.67 154.272L291.531 151.411C292.029 151.986 292.505 152.58 292.934 153.211ZM289.586 149.467L287.646 151.408C281.518 146.222 272.482 146.222 266.354 151.409L264.413 149.468C267.792 146.537 272.187 144.749 277 144.749C281.813 144.749 286.207 146.537 289.586 149.467ZM262.469 151.412L268.322 157.265C268.298 157.296 268.275 157.328 268.25 157.36L261.066 153.212C261.494 152.581 261.97 151.987 262.469 151.412ZM261.065 174.786L268.25 170.638C268.274 170.669 268.297 170.701 268.32 170.732L262.468 176.586C261.97 176.011 261.494 175.417 261.065 174.786ZM264.412 178.53L266.353 176.589C269.417 179.183 273.205 180.492 277 180.492C280.794 180.492 284.582 179.183 287.646 176.59L289.587 178.531C286.208 181.461 281.813 183.249 277 183.249C272.186 183.249 267.791 181.461 264.412 178.53ZM291.532 176.587L285.678 170.734C285.702 170.703 285.725 170.67 285.749 170.639L292.934 174.787C292.505 175.418 292.03 176.011 291.532 176.587Z" fill="#3E3E3E"/>
<g filter="url(#filter0_d_1_2300)">
<circle cx="458" cy="262" r="65" fill="white"/>
</g>
<g filter="url(#filter1_d_1_2300)">
<circle cx="89" cy="72" r="65" fill="white"/>
</g>
<g filter="url(#filter2_d_1_2300)">
<circle cx="114" cy="343" r="100" fill="#EBEBEB"/>
</g>
<defs>
<filter id="filter0_d_1_2300" x="379" y="190.687" width="179" height="179" filterUnits="userSpaceOnUse" color-interpolation-filters="sRGB">
<feFlood flood-opacity="0" result="BackgroundImageFix"/>
<feColorMatrix in="SourceAlpha" type="matrix" values="0 0 0 0 0 0 0 0 0 0 0 0 0 0 0 0 0 0 127 0" result="hardAlpha"/>
<feOffset dx="10.5" dy="18.1865"/>
<feGaussianBlur stdDeviation="12.25"/>
<feComposite in2="hardAlpha" operator="out"/>
<feColorMatrix type="matrix" values="0 0 0 0 0.517647 0 0 0 0 0.431373 0 0 0 0 0.709804 0 0 0 0.258824 0"/>
<feBlend mode="normal" in2="BackgroundImageFix" result="effect1_dropShadow_1_2300"/>
<feBlend mode="normal" in="SourceGraphic" in2="effect1_dropShadow_1_2300" result="shape"/>
</filter>
<filter id="filter1_d_1_2300" x="10" y="0.686533" width="179" height="179" filterUnits="userSpaceOnUse" color-interpolation-filters="sRGB">
<feFlood flood-opacity="0" result="BackgroundImageFix"/>
<feColorMatrix in="SourceAlpha" type="matrix" values="0 0 0 0 0 0 0 0 0 0 0 0 0 0 0 0 0 0 127 0" result="hardAlpha"/>
<feOffset dx="10.5" dy="18.1865"/>
<feGaussianBlur stdDeviation="12.25"/>
<feComposite in2="hardAlpha" operator="out"/>
<feColorMatrix type="matrix" values="0 0 0 0 0.517647 0 0 0 0 0.431373 0 0 0 0 0.709804 0 0 0 0.258824 0"/>
<feBlend mode="normal" in2="BackgroundImageFix" result="effect1_dropShadow_1_2300"/>
<feBlend mode="normal" in="SourceGraphic" in2="effect1_dropShadow_1_2300" result="shape"/>
</filter>
<filter id="filter2_d_1_2300" x="0" y="236.687" width="249" height="249" filterUnits="userSpaceOnUse" color-interpolation-filters="sRGB">
<feFlood flood-opacity="0" result="BackgroundImageFix"/>
<feColorMatrix in="SourceAlpha" type="matrix" values="0 0 0 0 0 0 0 0 0 0 0 0 0 0 0 0 0 0 127 0" result="hardAlpha"/>
<feOffset dx="10.5" dy="18.1865"/>
<feGaussianBlur stdDeviation="12.25"/>
<feComposite in2="hardAlpha" operator="out"/>
<feColorMatrix type="matrix" values="0 0 0 0 0.517647 0 0 0 0 0.431373 0 0 0 0 0.709804 0 0 0 0.258824 0"/>
<feBlend mode="normal" in2="BackgroundImageFix" result="effect1_dropShadow_1_2300"/>
<feBlend mode="normal" in="SourceGraphic" in2="effect1_dropShadow_1_2300" result="shape"/>
</filter>
</defs>
</svg>
