<svg width="1820" height="213" viewBox="0 0 1820 213" fill="none" xmlns="http://www.w3.org/2000/svg">
<path d="M577 108C577 108 721 12.9995 850 111.999" stroke="#14BDB3" stroke-width="2" stroke-dasharray="8 4"/>
<path d="M968 182C968 182 1097 262.999 1257 155" stroke="#14BDB3" stroke-width="2" stroke-dasharray="8 4"/>
<path d="M18.9999 115C18.9999 115 99 19.9997 206 91.9997C206 91.9997 307 181 457 149" stroke="#14BDB3" stroke-width="2" stroke-dasharray="8 4"/>
<circle cx="13.5" cy="127.5" r="12.5" stroke="#14BDB3" stroke-width="2"/>
<path d="M1372 77C1372 77 1485 -5.00049 1594 75.9995C1594 75.9995 1681 160 1808 19.9995" stroke="#14BDB3" stroke-width="2" stroke-dasharray="8 4"/>
<path d="M1814.82 36.9148L1805.03 22.2219L1787.63 19.1697C1787.3 19.1125 1787.04 18.8503 1786.98 18.5164C1786.93 18.1824 1787.09 17.8513 1787.39 17.6892L1818.06 1.01489L1818.15 0.983154L1818.21 0.960693C1818.36 0.91626 1818.51 0.917725 1818.66 0.959229L1818.7 0.960693L1818.76 0.992432L1818.86 1.05151L1818.97 1.1355L1819.02 1.17407L1819.04 1.20581C1819.13 1.32202 1819.2 1.46021 1819.21 1.61304L1819.22 1.68286L1819.23 1.78149L1816.27 36.5427C1816.24 36.8796 1816 37.1614 1815.67 37.2439L1815.64 37.2537C1815.59 37.2649 1815.53 37.2703 1815.48 37.2703C1815.22 37.2703 1814.96 37.1399 1814.82 36.9148ZM1790.15 17.9978L1805.12 20.6218L1816.04 3.92065L1790.15 17.9978Z" fill="#14BDB3"/>
</svg>
