<svg width="62" height="36" viewBox="0 0 62 36" fill="none" xmlns="http://www.w3.org/2000/svg">
<path d="M60.3011 15.6746C60.1699 15.6746 60.0419 15.6893 59.9191 15.7176L43.139 18.9791L32.4643 0.83753C32.1587 0.318324 31.6018 0 31.0001 0C30.9974 0 30.9946 0 30.9919 0C30.387 0.00294746 29.8295 0.327394 29.5277 0.851815L19.0891 18.9923L2.0745 15.7163C1.52374 15.5929 0.922237 15.7455 0.494272 16.1765C0.206319 16.4665 0.0443315 16.8347 0.00808247 17.2127C-0.019784 17.4975 0.0253007 17.7757 0.129517 18.0264C0.167578 18.1187 0.214249 18.2082 0.269302 18.294C0.344745 18.4116 0.434461 18.5195 0.536412 18.6157L17.5209 35.5057C17.839 35.8222 18.2699 36 18.7185 36H43.5583C44.0089 36 44.441 35.8209 44.76 35.5021L61.5025 18.747C61.821 18.4279 62 17.9956 62 17.5444V17.3753C62.0002 16.4357 61.2395 15.6746 60.3011 15.6746ZM31.0166 5.07937L39.5999 19.667L31.1369 21.3119L22.6195 19.672L31.0166 5.07937ZM31.1385 25.3379L39.1507 32.5989H23.1266L31.1385 25.3379ZM6.8494 20.0989L27.4746 24.0703L18.7728 31.9563L6.8494 20.0989ZM43.5003 31.9527L34.7967 24.0651L55.3796 20.0645L43.5003 31.9527Z" fill="#003844"/>
</svg>
