<?xml version="1.0" encoding="iso-8859-1"?>
<!-- Generator: Adobe Illustrator 18.1.1, SVG Export Plug-In . SVG Version: 6.00 Build 0)  -->
<svg version="1.1" id="Capa_1" xmlns="http://www.w3.org/2000/svg" xmlns:xlink="http://www.w3.org/1999/xlink" x="0px" y="0px"
	 viewBox="0 0 38.427 38.427" style="enable-background:new 0 0 38.427 38.427;" xml:space="preserve">
<g>
	<g>
		<path style="fill:#030104;" d="M36.501,32.204c-1.564-1.324-3.673-1.896-5.43-2.887c-2.982-1.691-6.375-3.368-9.061-5.492
			c-6.664-5.27-6.313-11.534-5.379-19.234c0.187-1.542-0.278-2.926-1.583-3.861c-1.786-1.28-4.05-0.93-4.512,1.483
			c-0.619,3.24,1.31,7.409,1.536,10.708c0.261,3.819-0.133,7.697-1.485,11.289c-0.959,2.547-2.575,5.114-4.321,7.203
			c-1.05,1.258-6.88,4.613-4.839,6.575c2.09,2.009,7.67-3.442,9.003-4.79c0.599-0.605,3.845-5.631,5.302-8.421
			c0.529-1.014,0.823-1.733,0.666-1.837c0.103,0.068,0.183,0.126,0.242,0.2c2.873,3.598,5.354,7.825,8.822,10.881
			c2.332,2.054,5.276,1.676,8.112,1.265C35.38,35.023,39.187,34.477,36.501,32.204z"/>
		<path style="fill:#030104;" d="M19.749,18.387c0.57-0.052,1.096-0.284,1.584-0.618c2.598-1.779,5.195-3.573,7.354-5.902
			c0.506-0.548,0.971-1.162,1.332-1.815c0.648-1.175,0.445-2.074-0.574-2.959c-0.875-0.759-1.937-1.033-3.062-1.142
			c-1.818-0.178-3.195,0.716-3.715,2.452c-0.126,0.422-0.215,0.859-0.286,1.294c-0.256,1.559-0.83,2.986-1.722,4.289
			c-0.675,0.988-1.358,1.971-2.017,2.97c-0.108,0.164-0.198,0.341-0.289,0.529C18.209,17.786,18.803,18.473,19.749,18.387z"/>
		<path style="fill:#030104;" d="M3.011,15.781c1.296,0.81,1.983,1.954,2.452,3.341c0.177,0.524,0.479,1.113,0.905,1.423
			c0.795,0.576,1.719,0.591,2.642,0.127c0.482-0.242,0.879-0.531,1.164-0.908c0.496-0.656,0.387-1.723,0.265-2.138
			c-0.075-0.253-0.158-0.502-0.277-0.732c-1.358-2.636-4.129-3.154-6.506-4.246c-0.194-0.089-0.625,0.084-0.807,0.27
			C2.143,13.643,2.168,15.254,3.011,15.781z"/>
	</g>
</g>
<g>
</g>
<g>
</g>
<g>
</g>
<g>
</g>
<g>
</g>
<g>
</g>
<g>
</g>
<g>
</g>
<g>
</g>
<g>
</g>
<g>
</g>
<g>
</g>
<g>
</g>
<g>
</g>
<g>
</g>
</svg>
