<svg width="343" height="402" viewBox="0 0 343 402" fill="none" xmlns="http://www.w3.org/2000/svg">
<path d="M168.125 339.603C202.869 339.603 231.035 311.437 231.035 276.693C231.035 241.949 202.869 213.783 168.125 213.783C133.381 213.783 105.215 241.949 105.215 276.693C105.215 311.437 133.381 339.603 168.125 339.603Z" fill="#AF1F24"/>
<path d="M167.195 401.183C111.395 401.183 51.6251 370.443 30.4151 303.313C22.5451 278.413 21.5251 255.833 27.3351 235.913C23.2997 233.668 19.5236 230.985 16.0751 227.913C10.9327 223.353 6.83488 217.736 4.06151 211.448C1.28814 205.159 -0.0954794 198.346 0.00511734 191.473C0.00511734 120.983 114.795 102.423 119.675 101.663L123.495 126.403L121.585 114.033L123.505 126.403C122.505 126.553 25.0351 143.103 25.0351 191.473C24.9177 194.839 25.5576 198.189 26.9076 201.275C28.2576 204.361 30.2833 207.104 32.8351 209.303C34.3706 210.659 36.0125 211.89 37.7451 212.983C58.5851 180.383 102.115 158.633 163.675 150.083C183.785 147.293 251.355 139.863 276.945 161.463C280.26 164.135 282.959 167.49 284.858 171.301C286.756 175.112 287.809 179.288 287.945 183.543C288.515 202.543 273.025 218.643 241.945 231.383C219.485 240.583 194.715 245.633 183.545 246.793H183.235C136.545 251.623 86.8951 254.533 50.8951 245.053C47.2051 259.763 48.3551 276.723 54.3551 295.713C75.2351 361.793 141.845 384.943 193.925 373.183C240.865 362.573 286.925 321.583 275.315 238.363L300.005 234.983C306.005 278.153 298.415 316.483 278.005 345.843C259.935 371.843 232.005 390.283 199.315 397.663C188.771 400.02 177.999 401.201 167.195 401.183ZM61.9051 222.093C99.6951 230.333 155.735 224.533 180.585 221.963H180.905C190.255 220.963 212.515 216.423 232.395 208.283C255.135 198.973 263.065 189.823 262.895 184.363C262.895 183.363 262.675 182.233 260.805 180.653C248.295 170.093 204.215 169.783 167.125 174.933C116.115 181.983 79.9251 198.253 61.9051 222.093Z" fill="#212529"/>
<path d="M294.43 -6.1882e-07L100.376 204.062L113.977 216.997L308.032 12.9347L294.43 -6.1882e-07Z" fill="#AF1F24"/>
<path d="M331.35 42.968L100.367 204.044L111.103 219.44L342.086 58.3641L331.35 42.968Z" fill="#AF1F24"/>
</svg>
