<svg width="1647" height="423" viewBox="0 0 1647 423" fill="none" xmlns="http://www.w3.org/2000/svg">
<path d="M528.58 193.56C530.353 194.32 531.873 194.953 533.14 195.46C534.407 195.967 535.673 196.473 536.94 196.98C542.26 199.007 547.58 201.92 552.9 205.72C563.54 213.067 570.127 221.933 572.66 232.32C575.193 242.707 574.56 252.84 570.76 262.72C568.48 268.547 565.693 273.993 562.4 279.06C559.107 283.873 555.433 288.56 551.38 293.12C541.247 305.027 529.593 315.667 516.42 325.04C510.34 329.347 504.133 333.78 497.8 338.34C491.72 342.647 485.513 346.953 479.18 351.26C477.407 352.527 475.633 353.54 473.86 354.3C472.34 355.06 470.567 355.947 468.54 356.96C461.953 360.253 455.493 361.393 449.16 360.38C447.133 360.127 445.74 360.127 444.98 360.38C444.473 360.887 443.967 362.153 443.46 364.18C442.953 365.447 442.573 366.713 442.32 367.98C442.067 369.5 441.813 370.893 441.56 372.16C441.307 374.44 439.913 375.58 437.38 375.58C426.233 376.847 419.52 371.907 417.24 360.76C416.733 358.48 416.353 356.2 416.1 353.92C416.1 351.387 416.227 348.98 416.48 346.7C417.493 337.327 418.633 328.08 419.9 318.96C421.42 309.84 423.573 300.847 426.36 291.98C427.627 288.433 428.767 285.14 429.78 282.1C431.047 278.807 432.693 275.64 434.72 272.6C436.493 269.307 439.28 267.66 443.08 267.66C450.173 267.66 457.013 269.18 463.6 272.22C467.147 273.993 468.287 276.653 467.02 280.2C465.5 285.267 463.853 290.333 462.08 295.4C460.56 300.213 459.04 305.153 457.52 310.22C456.76 312.753 456 315.287 455.24 317.82C454.48 320.353 453.72 322.887 452.96 325.42C451.947 327.953 451.947 329.98 452.96 331.5C453.973 331.5 454.733 331.247 455.24 330.74C456 329.98 456.633 329.347 457.14 328.84C462.713 323.773 467.907 318.453 472.72 312.88C477.533 307.053 482.473 301.227 487.54 295.4C492.86 289.32 498.18 283.24 503.5 277.16C508.82 270.827 514.013 264.62 519.08 258.54C522.12 254.993 524.78 251.32 527.06 247.52C529.593 243.72 532.127 239.92 534.66 236.12C536.433 233.333 537.7 230.547 538.46 227.76C539.473 224.973 540.233 222.06 540.74 219.02C541.247 217.753 541.373 216.487 541.12 215.22C541.12 213.7 541.12 212.307 541.12 211.04C540.867 207.747 538.84 205.973 535.04 205.72C530.987 205.467 527.06 205.593 523.26 206.1C519.46 206.607 515.66 207.367 511.86 208.38C504.767 210.153 497.927 212.433 491.34 215.22C484.753 217.753 478.167 220.667 471.58 223.96L453.34 233.08C444.727 237.64 436.493 237.64 428.64 233.08C424.587 231.053 421.04 229.027 418 227C412.68 223.707 410.02 218.64 410.02 211.8C410.02 208.76 410.273 205.847 410.78 203.06C411.287 200.273 412.047 197.487 413.06 194.7C415.593 187.1 418.633 179.88 422.18 173.04C425.727 165.947 429.78 159.107 434.34 152.52C439.407 145.68 444.6 139.22 449.92 133.14C455.24 126.807 461.193 120.727 467.78 114.9C468.54 114.14 469.3 113.38 470.06 112.62C471.073 111.86 472.087 111.1 473.1 110.34C477.407 106.793 480.953 105.02 483.74 105.02C486.78 104.767 490.833 106.033 495.9 108.82C497.42 109.833 498.813 111.1 500.08 112.62C501.6 114.14 503.373 114.393 505.4 113.38C506.667 112.62 507.68 111.48 508.44 109.96C509.2 108.187 510.087 106.54 511.1 105.02C512.873 102.487 514.647 100.08 516.42 97.8C518.193 95.2666 520.22 92.9867 522.5 90.96C525.793 87.6667 529.72 86.78 534.28 88.3C537.573 89.5667 540.613 90.96 543.4 92.48C546.44 94 549.353 95.9 552.14 98.18C554.42 99.9533 555.687 101.6 555.94 103.12C556.447 104.64 556.067 106.793 554.8 109.58C553.533 112.367 552.14 115.28 550.62 118.32C549.1 121.107 547.58 123.893 546.06 126.68C543.78 131.493 541.373 136.307 538.84 141.12C536.56 145.933 534.027 150.62 531.24 155.18C526.933 162.02 524.147 169.873 522.88 178.74C522.88 181.273 523.893 182.54 525.92 182.54C526.427 182.793 526.807 182.92 527.06 182.92C527.313 182.667 527.693 182.667 528.2 182.92C531.24 183.427 533.013 184.187 533.52 185.2C534.027 185.96 533.267 187.607 531.24 190.14C530.733 190.647 530.353 191.153 530.1 191.66C529.847 191.913 529.34 192.547 528.58 193.56ZM494.76 143.78C493.24 143.527 492.1 143.907 491.34 144.92C490.833 145.68 490.2 146.313 489.44 146.82C488.427 148.087 487.54 149.353 486.78 150.62C486.02 151.887 485.133 153.153 484.12 154.42C477.28 163.287 470.82 172.28 464.74 181.4C458.66 190.52 452.707 199.893 446.88 209.52C446.373 210.027 445.993 210.66 445.74 211.42C445.487 212.18 445.867 213.067 446.88 214.08C451.947 212.053 457.14 210.027 462.46 208C467.78 205.72 473.1 203.567 478.42 201.54C483.74 199.513 489.06 197.867 494.38 196.6C499.953 195.08 505.527 193.687 511.1 192.42C510.593 191.153 509.96 190.393 509.2 190.14C508.44 189.887 507.68 189.507 506.92 189C499.32 184.44 495.14 177.853 494.38 169.24C493.62 165.187 493.493 160.5 494 155.18C494.507 153.153 494.887 151.253 495.14 149.48C495.393 147.707 495.267 145.807 494.76 143.78ZM772.056 227.76C769.269 228.267 766.609 228.647 764.076 228.9C761.543 228.9 758.883 229.027 756.096 229.28C753.056 229.28 750.776 229.407 749.256 229.66C747.989 229.913 747.103 230.42 746.596 231.18C746.089 231.687 745.709 232.573 745.456 233.84C745.203 235.107 744.949 236.88 744.696 239.16C742.163 252.84 740.009 266.647 738.236 280.58C736.463 294.26 735.323 308.193 734.816 322.38C734.563 328.967 734.183 335.68 733.676 342.52C733.423 349.36 733.043 356.073 732.536 362.66C732.536 365.7 730.763 367.093 727.216 366.84C723.163 366.84 719.869 364.94 717.336 361.14C715.563 358.607 714.169 356.073 713.156 353.54C712.396 350.753 711.763 347.967 711.256 345.18C709.989 339.353 709.103 333.653 708.596 328.08C708.089 322.507 707.709 316.807 707.456 310.98C706.949 300.087 706.316 289.32 705.556 278.68C705.049 268.04 704.923 257.273 705.176 246.38C705.176 245.367 705.049 244.353 704.796 243.34C704.796 242.327 704.796 241.44 704.796 240.68C703.023 239.92 701.249 239.92 699.476 240.68C679.969 247.773 661.729 256.26 644.756 266.14C643.489 266.647 642.349 267.28 641.336 268.04C640.576 268.8 639.689 269.56 638.676 270.32C636.903 271.587 635.889 273.233 635.636 275.26C634.876 279.06 634.369 282.86 634.116 286.66C634.116 290.46 634.116 294.387 634.116 298.44C633.863 303.76 633.736 309.207 633.736 314.78C633.736 320.1 633.736 325.42 633.736 330.74C633.989 336.313 633.863 341.887 633.356 347.46C632.849 352.78 632.216 358.353 631.456 364.18C631.203 367.473 629.176 369.12 625.376 369.12C623.856 369.373 622.463 369.12 621.196 368.36C619.929 367.6 618.789 366.713 617.776 365.7C615.749 363.673 614.103 361.52 612.836 359.24C611.823 356.707 610.809 354.047 609.796 351.26C608.023 346.193 606.629 341.127 605.616 336.06C604.856 330.993 604.223 325.927 603.716 320.86L601.436 302.62C594.343 301.353 588.263 298.947 583.196 295.4C580.409 293.627 577.876 291.473 575.596 288.94C572.809 285.9 572.809 282.607 575.596 279.06C577.369 276.527 579.396 274.247 581.676 272.22C583.956 270.193 586.109 268.167 588.136 266.14C589.403 265.127 590.416 264.24 591.176 263.48C592.189 262.467 593.329 261.58 594.596 260.82C597.889 258.54 599.536 255.5 599.536 251.7C599.536 245.873 599.663 240.3 599.916 234.98C600.423 229.407 600.929 223.833 601.436 218.26C602.703 204.833 604.349 191.66 606.376 178.74C608.403 165.567 611.189 152.52 614.736 139.6C616.003 135.04 617.269 130.607 618.536 126.3C620.056 121.74 621.829 117.307 623.856 113C625.883 108.947 627.783 106.413 629.556 105.4C631.583 104.133 634.749 103.753 639.056 104.26C647.163 105.02 654.509 107.047 661.096 110.34C663.376 111.607 664.769 112.873 665.276 114.14C665.783 115.153 665.783 116.927 665.276 119.46C664.516 122.5 663.629 125.667 662.616 128.96C661.856 132 660.969 135.04 659.956 138.08C656.916 148.213 654.383 158.473 652.356 168.86C650.329 178.993 648.429 189.38 646.656 200.02C645.896 203.567 645.136 207.24 644.376 211.04C643.869 214.84 643.363 218.513 642.856 222.06C642.603 223.58 642.349 225.1 642.096 226.62C642.096 228.14 642.096 229.66 642.096 231.18C641.589 233.207 642.603 233.967 645.136 233.46C645.643 233.207 646.149 233.08 646.656 233.08C647.163 233.08 647.669 232.953 648.176 232.7C656.789 229.153 665.403 226.24 674.016 223.96C682.629 221.427 691.623 219.653 700.996 218.64C703.529 218.387 705.049 218.007 705.556 217.5C706.063 216.74 706.569 215.093 707.076 212.56C708.849 195.08 711.509 177.853 715.056 160.88C718.856 143.653 723.289 126.553 728.356 109.58C729.623 106.033 730.636 103.753 731.396 102.74C732.409 101.473 735.449 101.6 740.516 103.12C742.796 103.88 745.076 104.767 747.356 105.78C749.636 106.54 751.789 107.427 753.816 108.44C760.909 111.733 763.949 117.18 762.936 124.78C762.429 128.073 762.049 131.24 761.796 134.28C761.543 137.32 761.163 140.487 760.656 143.78C758.629 154.42 756.729 165.06 754.956 175.7C753.436 186.34 751.663 196.98 749.636 207.62C749.383 208.633 749.129 209.647 748.876 210.66C748.876 211.42 748.876 212.433 748.876 213.7C748.623 216.233 749.763 217.88 752.296 218.64C755.083 219.147 757.743 219.653 760.276 220.16C762.809 220.667 765.343 221.553 767.876 222.82C768.889 223.327 769.776 223.96 770.536 224.72C771.296 225.227 771.803 226.24 772.056 227.76ZM905.225 113.38C903.199 112.62 901.552 112.113 900.285 111.86C899.019 111.607 897.879 111.48 896.865 111.48C896.105 111.227 895.219 111.227 894.205 111.48C893.192 111.48 891.799 111.607 890.025 111.86C884.959 112.62 880.019 113.76 875.205 115.28C870.392 116.547 865.579 117.813 860.765 119.08C856.965 120.093 854.939 122.5 854.685 126.3C851.139 142.007 847.972 158.6 845.185 176.08C842.399 193.56 839.992 211.167 837.965 228.9C835.939 246.633 834.292 264.24 833.025 281.72C831.759 299.2 830.999 315.793 830.745 331.5C830.492 335.553 830.745 338.087 831.505 339.1C832.265 339.86 834.925 340.493 839.485 341C846.832 341.253 854.052 343.027 861.145 346.32C861.652 346.573 862.159 346.953 862.665 347.46C863.172 347.713 863.679 348.093 864.185 348.6C864.185 348.6 864.185 349.107 864.185 350.12C863.172 350.627 862.539 350.88 862.285 350.88C853.925 352.147 845.692 353.92 837.585 356.2C829.479 358.227 821.499 361.013 813.645 364.56C813.139 364.56 812.885 364.687 812.885 364.94C805.792 368.993 799.332 369.88 793.505 367.6C787.679 365.573 782.105 362.407 776.785 358.1C774.759 356.833 773.745 355.313 773.745 353.54C773.999 351.767 775.139 350.247 777.165 348.98C780.205 346.7 783.372 345.307 786.665 344.8C790.212 344.293 793.252 343.533 795.785 342.52C798.319 341.507 800.345 339.987 801.865 337.96C803.385 335.68 803.765 331.88 803.005 326.56C802.245 321.24 801.739 314.273 801.485 305.66C801.232 296.793 801.105 287.04 801.105 276.4C801.105 265.76 801.232 254.613 801.485 242.96C801.739 231.307 801.992 220.033 802.245 209.14C802.752 197.993 803.132 187.48 803.385 177.6C803.892 167.72 804.399 159.36 804.905 152.52C805.665 150.24 804.652 148.467 801.865 147.2C801.105 146.947 799.965 146.947 798.445 147.2C797.179 147.2 795.785 147.453 794.265 147.96C792.999 148.213 791.605 148.467 790.085 148.72C788.819 148.973 787.805 148.847 787.045 148.34C783.499 146.06 780.332 143.653 777.545 141.12C773.745 137.827 771.845 135.167 771.845 133.14C771.845 131.113 773.619 128.327 777.165 124.78C779.699 121.993 782.359 119.713 785.145 117.94C787.932 115.913 790.972 114.013 794.265 112.24C803.639 107.173 812.632 103.247 821.245 100.46C829.859 97.6733 839.359 95.52 849.745 94C854.305 93.24 858.865 92.86 863.425 92.86C867.985 92.6067 872.545 92.9866 877.105 94C882.679 95.2666 887.745 97.42 892.305 100.46C897.119 103.247 901.425 107.553 905.225 113.38ZM1216.1 362.66C1210.78 362.913 1206.86 362.027 1204.32 360C1201.79 357.973 1199.26 354.553 1196.72 349.74C1195.96 348.22 1195.2 346.7 1194.44 345.18C1193.94 343.66 1193.43 342.14 1192.92 340.62C1191.91 338.593 1190.26 337.707 1187.98 337.96C1184.94 338.973 1181.78 339.86 1178.48 340.62C1175.44 341.38 1172.4 342.267 1169.36 343.28C1163.54 345.053 1157.08 346.953 1149.98 348.98C1143.14 350.753 1136.94 352.78 1131.36 355.06C1127.82 356.327 1126.17 358.48 1126.42 361.52C1126.42 362.027 1126.3 362.66 1126.04 363.42C1126.04 364.18 1126.04 364.813 1126.04 365.32C1125.79 367.347 1125.41 368.613 1124.9 369.12C1124.4 369.627 1123.13 369.753 1121.1 369.5C1119.08 369.247 1117.81 368.867 1117.3 368.36C1116.8 367.853 1115.78 367.093 1114.26 366.08C1111.48 364.307 1108.31 363.8 1104.76 364.56C1099.7 365.573 1094.76 365.32 1089.94 363.8C1085.13 362.533 1080.44 360.633 1075.88 358.1C1073.1 356.58 1072.72 354.553 1074.74 352.02C1076.77 349.993 1078.92 348.347 1081.2 347.08C1083.23 346.067 1085.26 345.053 1087.28 344.04C1089.56 343.027 1091.72 342.013 1093.74 341C1095.52 339.987 1096.53 339.227 1096.78 338.72C1097.04 337.96 1097.04 336.567 1096.78 334.54C1095.52 318.58 1095.01 301.353 1095.26 282.86C1095.52 264.367 1096.53 245.493 1098.3 226.24C1100.33 206.987 1103.12 187.733 1106.66 168.48C1110.21 149.227 1114.52 130.987 1119.58 113.76C1120.85 110.467 1123.26 108.82 1126.8 108.82C1131.36 108.82 1135.16 109.2 1138.2 109.96C1141.24 110.72 1144.92 112.113 1149.22 114.14C1152.26 115.407 1154.42 117.94 1155.68 121.74C1156.44 124.527 1156.82 127.187 1156.82 129.72C1156.82 132.253 1156.57 134.913 1156.06 137.7C1152.26 156.7 1148.72 173.927 1145.42 189.38C1142.38 204.58 1139.72 219.273 1137.44 233.46C1135.16 247.647 1133.14 262.213 1131.36 277.16C1129.59 292.107 1128.2 308.7 1127.18 326.94C1129.72 328.207 1132.76 328.46 1136.3 327.7C1139.85 326.687 1142.89 325.927 1145.42 325.42C1152.01 324.407 1158.47 323.393 1164.8 322.38C1171.14 321.113 1177.6 319.847 1184.18 318.58C1186.21 318.073 1187.48 317.693 1187.98 317.44C1188.49 316.933 1188.87 315.667 1189.12 313.64C1190.14 292.867 1191.53 273.74 1193.3 256.26C1195.08 238.527 1197.48 221.68 1200.52 205.72C1203.56 189.507 1207.36 173.8 1211.92 158.6C1216.48 143.147 1221.8 127.44 1227.88 111.48C1229.15 109.2 1230.92 107.933 1233.2 107.68C1238.52 107.173 1243.08 107.173 1246.88 107.68C1250.68 107.933 1255.12 109.073 1260.18 111.1C1264.74 113.127 1266.64 116.42 1265.88 120.98C1262.84 138.967 1259.42 155.94 1255.62 171.9C1251.82 187.86 1247.9 203.44 1243.84 218.64C1240.04 233.84 1236.37 249.04 1232.82 264.24C1229.53 279.44 1226.87 295.02 1224.84 310.98C1224.59 314.02 1225.86 315.667 1228.64 315.92C1230.42 316.173 1232.19 316.427 1233.96 316.68C1235.74 316.68 1237.64 316.807 1239.66 317.06C1241.44 317.313 1243.21 317.567 1244.98 317.82C1246.76 318.073 1248.66 318.453 1250.68 318.96C1251.95 319.467 1252.46 320.227 1252.2 321.24C1251.7 322.253 1250.94 322.76 1249.92 322.76C1248.66 323.267 1247.52 323.647 1246.5 323.9C1245.49 323.9 1244.35 324.153 1243.08 324.66C1241.06 325.167 1238.9 325.673 1236.62 326.18C1234.6 326.433 1232.44 326.813 1230.16 327.32C1227.38 327.827 1225.22 328.713 1223.7 329.98C1222.18 331.247 1221.17 333.527 1220.66 336.82C1220.16 341.127 1219.4 345.433 1218.38 349.74C1217.62 354.047 1216.86 358.353 1216.1 362.66ZM1360.24 129.34C1365.31 126.807 1370.12 124.273 1374.68 121.74C1379.24 118.953 1383.93 116.42 1388.74 114.14C1397.1 110.087 1405.46 106.287 1413.82 102.74C1415.09 102.233 1416.35 101.853 1417.62 101.6C1418.89 101.093 1420.15 100.587 1421.42 100.08C1430.79 96.5333 1439.15 96.28 1446.5 99.32C1454.1 102.36 1460.94 107.427 1467.02 114.52C1469.55 117.307 1471.2 120.22 1471.96 123.26C1472.97 126.3 1473.48 129.593 1473.48 133.14C1473.23 137.447 1472.97 141.627 1472.72 145.68C1472.47 149.733 1472.09 153.913 1471.58 158.22C1470.57 165.567 1469.43 172.787 1468.16 179.88C1467.15 186.973 1465.88 194.067 1464.36 201.16C1461.83 212.053 1459.42 222.947 1457.14 233.84C1454.86 244.48 1452.58 255.247 1450.3 266.14C1448.53 273.993 1447.13 281.847 1446.12 289.7C1445.11 297.553 1444.35 305.407 1443.84 313.26C1443.33 318.327 1442.95 323.393 1442.7 328.46C1442.7 333.527 1442.57 338.593 1442.32 343.66C1442.07 345.687 1442.07 347.713 1442.32 349.74C1442.83 351.513 1444.09 353.033 1446.12 354.3C1446.37 354.553 1446.5 354.933 1446.5 355.44C1446.75 355.693 1446.75 355.82 1446.5 355.82C1445.99 356.327 1445.61 356.833 1445.36 357.34C1445.11 357.593 1444.73 357.72 1444.22 357.72C1439.41 357.467 1435.1 356.453 1431.3 354.68C1427.5 352.653 1424.21 349.487 1421.42 345.18C1418.63 339.86 1416.61 333.78 1415.34 326.94C1414.07 318.327 1413.31 309.587 1413.06 300.72C1413.06 290.08 1413.19 279.693 1413.44 269.56C1413.95 259.173 1414.71 248.787 1415.72 238.4C1416.99 226.493 1418.89 214.967 1421.42 203.82C1423.95 192.673 1426.87 181.4 1430.16 170C1432.19 163.667 1433.96 157.46 1435.48 151.38C1437.25 145.047 1439.03 138.713 1440.8 132.38C1441.31 130.607 1441.69 128.96 1441.94 127.44C1442.19 125.92 1441.94 124.147 1441.18 122.12C1437.63 122.88 1434.21 124.02 1430.92 125.54C1427.88 127.06 1424.71 128.58 1421.42 130.1C1410.02 135.673 1398.75 141.5 1387.6 147.58C1376.71 153.66 1365.94 160.12 1355.3 166.96C1351.25 169.24 1348.71 172.913 1347.7 177.98C1344.91 193.18 1342 208.253 1338.96 223.2C1336.17 238.147 1333.39 253.22 1330.6 268.42C1328.83 276.527 1327.56 284.76 1326.8 293.12C1326.04 301.48 1325.28 309.967 1324.52 318.58C1324.01 323.14 1323.63 327.827 1323.38 332.64C1323.13 337.2 1322.75 341.887 1322.24 346.7C1322.24 348.727 1322.11 350.753 1321.86 352.78C1321.86 354.807 1321.99 356.833 1322.24 358.86C1322.49 361.647 1322.37 363.293 1321.86 363.8C1321.61 364.307 1320.21 364.307 1317.68 363.8C1309.07 362.027 1302.99 356.707 1299.44 347.84C1297.67 342.773 1296.4 337.707 1295.64 332.64C1295.13 327.573 1294.63 322.38 1294.12 317.06C1293.61 305.407 1293.36 293.88 1293.36 282.48C1293.36 270.827 1293.49 259.173 1293.74 247.52C1293.99 242.2 1293.99 236.88 1293.74 231.56C1293.74 225.987 1294.25 220.54 1295.26 215.22C1295.51 214.713 1295.51 214.207 1295.26 213.7C1295.26 213.193 1295.26 212.687 1295.26 212.18C1295.26 211.167 1294.88 210.407 1294.12 209.9C1293.36 209.393 1292.6 209.393 1291.84 209.9C1290.57 210.913 1289.31 211.927 1288.04 212.94C1286.77 213.7 1285.51 214.46 1284.24 215.22C1281.96 216.993 1279.68 218.64 1277.4 220.16C1275.12 221.68 1272.71 223.327 1270.18 225.1C1267.9 226.873 1265.49 226.873 1262.96 225.1C1256.88 221.047 1253.46 217.373 1252.7 214.08C1251.94 210.533 1253.97 206.1 1258.78 200.78C1264.61 194.447 1270.43 188.367 1276.26 182.54C1282.34 176.713 1288.93 171.52 1296.02 166.96C1298.55 165.44 1300.33 163.793 1301.34 162.02C1302.61 159.993 1303.49 157.587 1304 154.8C1305.52 147.453 1307.29 140.233 1309.32 133.14C1311.6 125.793 1314.13 118.573 1316.92 111.48C1318.19 108.44 1319.2 106.16 1319.96 104.64C1320.97 102.867 1322.11 101.727 1323.38 101.22C1324.9 100.46 1326.55 100.207 1328.32 100.46C1330.35 100.713 1332.88 101.347 1335.92 102.36C1338.71 103.12 1341.37 104.007 1343.9 105.02C1346.69 106.033 1349.35 107.173 1351.88 108.44C1358.21 111.987 1360.87 116.927 1359.86 123.26C1359.61 124.273 1359.35 125.287 1359.1 126.3C1359.1 127.06 1359.48 128.073 1360.24 129.34ZM1380 333.4C1369.11 332.893 1362.01 327.827 1358.72 318.2C1357.45 315.413 1356.57 312.627 1356.06 309.84C1355.55 307.053 1355.05 304.267 1354.54 301.48C1353.53 288.56 1352.89 275.64 1352.64 262.72C1352.64 249.8 1353.4 236.88 1354.92 223.96C1355.93 213.067 1358.85 202.047 1363.66 190.9C1364.93 187.86 1366.19 185.96 1367.46 185.2C1368.73 184.187 1371.13 183.933 1374.68 184.44C1382.03 184.693 1389.37 186.72 1396.72 190.52C1401.28 192.8 1403.18 196.347 1402.42 201.16C1401.91 203.947 1401.41 206.607 1400.9 209.14C1400.65 211.673 1400.27 214.333 1399.76 217.12C1397.73 226.24 1395.71 235.487 1393.68 244.86C1391.91 253.98 1390.13 263.1 1388.36 272.22C1386.33 282.1 1384.69 291.98 1383.42 301.86C1382.41 311.74 1381.52 321.62 1380.76 331.5C1380.76 331.753 1380.51 332.387 1380 333.4ZM1637.83 350.5C1629.98 353.54 1623.14 352.4 1617.31 347.08C1611.48 341.76 1607.05 336.313 1604.01 330.74C1596.16 317.567 1588.81 304.14 1581.97 290.46C1575.38 276.78 1570.19 262.34 1566.39 247.14C1565.12 241.82 1563.98 236.373 1562.97 230.8C1561.96 225.227 1561.2 219.78 1560.69 214.46C1560.69 213.193 1560.56 212.053 1560.31 211.04C1560.31 209.773 1559.68 208.507 1558.41 207.24C1557.14 210.533 1556 213.573 1554.99 216.36C1553.98 218.893 1552.84 221.553 1551.57 224.34C1544.73 242.327 1536.75 259.553 1527.63 276.02C1518.76 292.487 1508.25 308.32 1496.09 323.52C1492.54 328.08 1489 332.767 1485.45 337.58C1482.16 342.14 1478.74 346.7 1475.19 351.26C1470.38 357.847 1464.8 363.673 1458.47 368.74C1457.2 369.5 1455.94 370.26 1454.67 371.02C1453.4 371.78 1451.88 372.16 1450.11 372.16C1445.3 372.16 1443.52 370.26 1444.79 366.46C1445.3 364.433 1446.06 362.66 1447.07 361.14C1447.83 359.62 1448.46 358.227 1448.97 356.96C1450.24 354.933 1451.5 352.78 1452.77 350.5C1454.04 348.22 1455.43 346.067 1456.95 344.04C1466.58 329.853 1475.06 315.287 1482.41 300.34C1490.01 285.393 1496.98 270.067 1503.31 254.36C1508.12 241.947 1512.81 229.533 1517.37 217.12C1521.93 204.707 1525.98 192.04 1529.53 179.12C1532.57 168.987 1535.36 158.853 1537.89 148.72C1540.42 138.587 1542.83 128.327 1545.11 117.94C1545.62 115.913 1545.87 114.013 1545.87 112.24C1546.12 110.467 1546.5 108.567 1547.01 106.54C1547.77 104.007 1548.53 102.36 1549.29 101.6C1550.3 100.84 1552.08 100.46 1554.61 100.46C1557.14 100.967 1558.92 101.22 1559.93 101.22C1562.46 102.233 1564.24 101.853 1565.25 100.08C1566.26 99.0667 1567.28 98.56 1568.29 98.56C1569.3 98.3067 1570.44 98.18 1571.71 98.18C1578.3 98.4333 1584.88 99.5733 1591.47 101.6C1595.78 103.88 1598.44 106.793 1599.45 110.34C1600.97 113.633 1601.98 117.18 1602.49 120.98C1603 124.527 1603.25 128.2 1603.25 132C1603.25 135.8 1603.25 139.473 1603.25 143.02C1603.25 150.367 1603.12 157.713 1602.87 165.06C1602.62 172.153 1602.36 179.373 1602.11 186.72C1601.6 203.187 1602.49 219.273 1604.77 234.98C1607.05 250.687 1610.34 266.52 1614.65 282.48C1616.17 289.32 1618.07 296.033 1620.35 302.62C1622.63 308.953 1624.91 315.287 1627.19 321.62C1629.22 326.433 1630.99 331.247 1632.51 336.06C1634.03 340.62 1635.8 345.433 1637.83 350.5ZM1554.99 304.9C1558.54 304.647 1561.7 304.773 1564.49 305.28C1567.28 305.787 1570.06 306.927 1572.85 308.7C1575.13 309.967 1575.26 311.613 1573.23 313.64C1571.71 315.667 1569.56 317.313 1566.77 318.58C1563.98 320.607 1561.07 322.76 1558.03 325.04C1555.24 327.32 1552.58 329.853 1550.05 332.64C1546.5 336.44 1542.7 338.593 1538.65 339.1C1534.6 339.607 1530.42 339.1 1526.11 337.58C1521.55 335.807 1517.37 333.527 1513.57 330.74C1510.28 328.46 1510.02 325.927 1512.81 323.14C1514.33 321.873 1515.72 320.733 1516.99 319.72C1518.51 318.707 1520.16 317.82 1521.93 317.06C1525.48 315.287 1529.02 313.767 1532.57 312.5C1536.12 310.98 1539.66 309.333 1543.21 307.56C1545.24 307.053 1547.26 306.547 1549.29 306.04C1551.57 305.533 1553.47 305.153 1554.99 304.9Z" fill="#212529"/>
<path d="M1009.09 288.56C1007.83 288.56 1007.19 288.56 1007.19 288.56C998.326 293.627 989.966 299.2 982.113 305.28C974.26 311.107 967.293 318.073 961.213 326.18C956.906 331.753 952.853 337.327 949.053 342.9C945.253 348.473 941.326 354.173 937.273 360C935.5 362.787 933.98 364.433 932.713 364.94C931.446 365.447 929.166 365.447 925.873 364.94C923.593 364.433 921.313 363.673 919.033 362.66C916.753 361.9 914.6 360.887 912.573 359.62C907.253 356.327 905.48 351.767 907.253 345.94C908.52 341.887 910.04 338.213 911.813 334.92C912.32 333.653 912.826 332.64 913.333 331.88C914.093 330.867 914.726 329.853 915.233 328.84C917.006 326.56 917.006 324.153 915.233 321.62C909.153 313.26 904.086 303.76 900.033 293.12C897.753 286.787 896.233 280.58 895.473 274.5C894.966 268.167 894.966 261.707 895.473 255.12C896.486 243.72 898.133 232.067 900.413 220.16C902.693 208.253 905.606 196.727 909.153 185.58C912.7 174.18 916.88 163.413 921.693 153.28C926.506 142.893 932.08 133.52 938.413 125.16C939.68 123.64 940.946 122.12 942.213 120.6C943.733 119.08 945.126 117.56 946.393 116.04C952.22 109.707 959.566 108.187 968.433 111.48C972.486 112.747 975.02 113.253 976.033 113C977.3 112.747 978.946 110.847 980.973 107.3C981.986 105.273 983.126 103.5 984.393 101.98C985.66 100.46 986.926 98.94 988.193 97.42C990.726 94.8867 993.766 93.8733 997.313 94.38C1006.18 95.9 1013.78 99.32 1020.11 104.64C1022.39 106.16 1022.52 108.187 1020.49 110.72C1016.19 116.547 1012.77 122.753 1010.23 129.34C1007.7 135.927 1005.17 142.513 1002.63 149.1C1000.61 154.167 999.466 158.853 999.213 163.16C998.96 167.213 999.34 171.773 1000.35 176.84C1001.87 177.093 1003.39 177.22 1004.91 177.22C1006.69 177.22 1008.33 177.473 1009.85 177.98C1011.12 178.233 1011.88 178.867 1012.13 179.88C1012.39 180.64 1012.26 181.527 1011.75 182.54C1007.95 186.593 1003.77 188.113 999.213 187.1C996.173 186.34 993.26 185.453 990.473 184.44C987.686 183.427 985.026 182.033 982.493 180.26C979.453 178.233 977.173 175.827 975.653 173.04C974.133 170 972.993 166.707 972.233 163.16C971.726 161.64 971.473 160.12 971.473 158.6C971.473 156.827 971.346 155.053 971.093 153.28C970.84 152.013 970.84 150.747 971.093 149.48C971.346 148.213 970.713 147.453 969.193 147.2C967.926 146.947 967.04 147.453 966.533 148.72C966.026 149.987 965.52 151.253 965.013 152.52C959.186 162.907 953.993 174.94 949.433 188.62C945.126 202.047 941.58 214.713 938.793 226.62C936.513 236.247 934.486 246 932.713 255.88C931.193 265.507 930.306 275.387 930.053 285.52C930.053 289.067 930.053 292.613 930.053 296.16C930.306 299.453 931.066 302.873 932.333 306.42C933.093 308.447 934.36 308.953 936.133 307.94C939.68 305.66 943.226 303.38 946.773 301.1C950.32 298.82 953.866 296.667 957.413 294.64C962.733 291.347 968.053 288.18 973.373 285.14C978.946 282.1 984.646 279.44 990.473 277.16C993.513 275.893 996.553 274.88 999.593 274.12C1002.63 273.107 1005.8 272.347 1009.09 271.84C1011.88 271.333 1013.65 269.94 1014.41 267.66C1016.19 261.073 1017.96 254.613 1019.73 248.28C1021.51 241.947 1023.41 235.613 1025.43 229.28C1024.17 228.013 1023.03 227.633 1022.01 228.14C1021.25 228.393 1020.37 228.773 1019.35 229.28C1015.81 231.053 1012.39 232.827 1009.09 234.6C1005.8 236.373 1002.51 238.273 999.213 240.3L982.113 249.42C979.326 251.193 976.413 252.08 973.373 252.08C970.586 252.08 967.673 251.447 964.633 250.18C964.126 249.927 963.62 249.8 963.113 249.8C962.86 249.547 962.48 249.293 961.973 249.04C957.16 246.76 954.626 244.607 954.373 242.58C954.12 240.553 956.02 237.893 960.073 234.6C967.42 228.773 974.893 223.707 982.493 219.4C990.346 214.84 998.706 211.167 1007.57 208.38C1017.96 204.833 1028.09 204.96 1037.97 208.76C1040.76 209.773 1043.55 210.787 1046.33 211.8C1049.37 212.813 1052.16 214.207 1054.69 215.98C1058.49 218.513 1061.28 221.427 1063.05 224.72C1065.08 228.013 1065.71 232.067 1064.95 236.88C1064.45 241.187 1063.69 245.367 1062.67 249.42C1061.91 253.473 1060.9 257.527 1059.63 261.58C1055.33 276.02 1050.01 290.587 1043.67 305.28C1040.89 311.867 1038.61 318.58 1036.83 325.42C1035.06 332.26 1033.41 339.1 1031.89 345.94C1031.39 349.233 1030.75 352.527 1029.99 355.82C1029.23 359.113 1028.98 362.533 1029.23 366.08C1029.49 367.6 1028.6 368.36 1026.57 368.36C1022.52 367.853 1018.72 366.713 1015.17 364.94C1011.88 363.42 1009.22 359.747 1007.19 353.92C1005.93 350.12 1005.29 346.447 1005.29 342.9C1005.29 334.54 1005.67 326.18 1006.43 317.82C1006.94 313.513 1007.45 309.207 1007.95 304.9C1008.46 300.34 1008.97 295.907 1009.47 291.6C1009.47 291.093 1009.35 290.587 1009.09 290.08C1009.09 289.573 1009.09 289.067 1009.09 288.56Z" fill="#AF1F24"/>
<path d="M168.125 339.603C202.869 339.603 231.035 311.437 231.035 276.693C231.035 241.949 202.869 213.783 168.125 213.783C133.381 213.783 105.215 241.949 105.215 276.693C105.215 311.437 133.381 339.603 168.125 339.603Z" fill="#AF1F24"/>
<path d="M167.195 401.183C111.395 401.183 51.6251 370.443 30.4151 303.313C22.5451 278.413 21.5251 255.833 27.3351 235.913C23.2997 233.668 19.5236 230.985 16.0751 227.913C10.9327 223.353 6.83488 217.736 4.06151 211.448C1.28814 205.159 -0.0954794 198.346 0.00511734 191.473C0.00511734 120.983 114.795 102.423 119.675 101.663L123.495 126.403L121.585 114.033L123.505 126.403C122.505 126.553 25.0351 143.103 25.0351 191.473C24.9177 194.839 25.5576 198.189 26.9076 201.275C28.2576 204.361 30.2833 207.105 32.8351 209.303C34.3706 210.659 36.0125 211.89 37.7451 212.983C58.5851 180.383 102.115 158.633 163.675 150.083C183.785 147.293 251.355 139.863 276.945 161.463C280.26 164.135 282.959 167.49 284.858 171.301C286.756 175.112 287.809 179.288 287.945 183.543C288.515 202.543 273.025 218.643 241.945 231.383C219.485 240.583 194.715 245.633 183.545 246.793H183.235C136.545 251.623 86.8951 254.533 50.8951 245.053C47.2051 259.763 48.3551 276.723 54.3551 295.713C75.2351 361.793 141.845 384.943 193.925 373.183C240.865 362.573 286.925 321.583 275.315 238.363L300.005 234.983C306.005 278.153 298.415 316.483 278.005 345.843C259.935 371.843 232.005 390.283 199.315 397.663C188.771 400.02 177.999 401.201 167.195 401.183V401.183ZM61.9051 222.093C99.6951 230.333 155.735 224.533 180.585 221.963H180.905C190.255 220.963 212.515 216.423 232.395 208.283C255.135 198.973 263.065 189.823 262.895 184.363C262.895 183.363 262.675 182.233 260.805 180.653C248.295 170.093 204.215 169.783 167.125 174.933C116.115 181.983 79.9251 198.253 61.9051 222.093Z" fill="#212529"/>
<path d="M294.43 -6.1882e-07L100.376 204.062L113.977 216.997L308.032 12.9347L294.43 -6.1882e-07Z" fill="#AF1F24"/>
<path d="M331.35 42.968L100.367 204.044L111.103 219.44L342.086 58.3641L331.35 42.968Z" fill="#AF1F24"/>
</svg>
